<svg width="25" height="31" viewBox="0 0 25 31" fill="none" xmlns="http://www.w3.org/2000/svg">
<path d="M22.2856 26.4376C21.0751 28.2459 19.7918 30.0105 17.8376 30.0397C15.8835 30.0834 15.2564 28.8876 13.0397 28.8876C10.8085 28.8876 10.1231 30.0105 8.27098 30.0834C6.36056 30.1563 4.91681 28.1584 3.69181 26.3938C1.19806 22.7917 -0.712356 16.1563 1.85431 11.6938C3.12306 9.47717 5.39806 8.07717 7.86264 8.03341C9.72931 8.00425 11.5085 9.30217 12.6606 9.30217C13.7981 9.30217 15.9564 7.74175 18.2168 7.97508C19.1647 8.01883 21.8189 8.35425 23.5251 10.8626C23.3939 10.9501 20.3606 12.7292 20.3897 16.4188C20.4335 20.823 24.2543 22.2959 24.2981 22.3105C24.2543 22.4126 23.6856 24.4105 22.2856 26.4376ZM13.9585 3.10425C15.0231 1.89383 16.7876 0.975081 18.246 0.916748C18.4356 2.623 17.7501 4.34383 16.7293 5.56883C15.7231 6.80841 14.0606 7.77092 12.4272 7.63967C12.2085 5.96258 13.0251 4.21258 13.9585 3.10425Z" fill="white"/>
</svg>
