<svg width="27" height="16" viewBox="0 0 27 16" fill="none" xmlns="http://www.w3.org/2000/svg">
<path d="M25.9141 8.27344L16.0703 15.3047C16.0206 15.3413 15.9611 15.3704 15.8953 15.3903C15.8296 15.4102 15.7589 15.4204 15.6875 15.4204C15.6161 15.4204 15.5454 15.4102 15.4797 15.3903C15.4139 15.3704 15.3544 15.3413 15.3047 15.3047C15.2534 15.2692 15.2127 15.2267 15.1848 15.1797C15.157 15.1327 15.1426 15.0823 15.1426 15.0313C15.1426 14.9802 15.157 14.9298 15.1848 14.8828C15.2127 14.8358 15.2534 14.7933 15.3047 14.7578L24.2051 8.39063H1.46875C1.32371 8.39063 1.18461 8.34947 1.08205 8.27622C0.979492 8.20296 0.921875 8.1036 0.921875 8C0.921875 7.8964 0.979492 7.79704 1.08205 7.72379C1.18461 7.65053 1.32371 7.60938 1.46875 7.60938H24.2051L15.3047 1.24219C15.2257 1.16696 15.1874 1.07391 15.1967 0.980122C15.206 0.886329 15.2624 0.798088 15.3555 0.731599C15.4486 0.66511 15.5721 0.624836 15.7034 0.618171C15.8347 0.611505 15.965 0.638895 16.0703 0.695313L25.9141 7.72656C25.9653 7.76207 26.0061 7.80457 26.0339 7.85154C26.0618 7.89851 26.0761 7.949 26.0761 8C26.0761 8.05101 26.0618 8.10149 26.0339 8.14846C26.0061 8.19544 25.9653 8.23793 25.9141 8.27344Z" fill="white"/>
</svg>
