<svg width="46" height="60" viewBox="0 0 46 60" fill="none" xmlns="http://www.w3.org/2000/svg">
<path d="M45.0482 19.7376V19.4591V4.64837C45.0482 2.46616 43.3268 0.691162 41.2124 0.691162H39.3179C37.3536 0.691162 35.7143 2.21253 35.5 4.23585L35.4881 4.35196H30.7016C30.2284 4.35196 29.7749 4.53592 29.4337 4.86268L8.21441 25.284C7.80005 25.6197 7.53399 26.1323 7.53399 26.7072V28.4447C6.00439 29.0192 4.90725 30.4854 4.90725 32.2143V44.6107C4.90725 45.6214 5.72517 46.4393 6.73582 46.4393H12.1036C13.1142 46.4393 13.9322 45.6214 13.9322 44.6107V32.2145C13.9322 30.4437 12.78 28.9528 11.1911 28.4096V27.4949L31.4393 8.0091H35.1169L34.2701 16.352C31.4801 17.1799 29.262 19.0676 28.4644 21.5038L25.3523 30.9922C25.2805 31.131 25.2413 31.2806 25.2066 31.4373C22.672 40.9201 19.468 44.153 22.2161 48.5324C23.4651 50.5258 25.7027 51.9905 28.317 52.5767C29.0353 56.3242 32.3285 59.1681 36.2822 59.1681C40.759 59.1681 44.4018 55.5253 44.4018 51.0486C44.4018 50.1633 44.2237 49.326 43.9608 48.5275C44.667 47.4091 45.0482 46.1703 45.0482 44.8843V19.7376ZM10.275 42.7823H8.5644V32.2145C8.5644 32.0054 8.73409 31.8341 8.94291 31.8341H9.89468C10.1037 31.8341 10.275 32.0056 10.275 32.2145V42.7823ZM28.3287 33.6519H41.3913V37.309H27.1297L28.3287 33.6519ZM39.3179 4.3483H41.2124C41.2856 4.3483 41.3911 4.46442 41.3911 4.64837V15.9255C41.2512 15.9133 41.1157 15.8893 40.9714 15.8893H37.9936L38.9534 6.42995C38.9657 6.34474 39.0037 6.26885 39.0037 6.18035C39.0037 6.15109 38.9885 6.12677 38.9873 6.09806L39.1377 4.61436C39.1555 4.45016 39.2555 4.3483 39.3179 4.3483ZM31.9394 22.643C32.5269 20.8484 34.8358 19.5465 37.4304 19.5465H40.9714C41.1733 19.5465 41.3143 19.5964 41.3911 19.6375V19.7376V29.9948H29.5282L31.9394 22.643ZM24.9553 43.9376L25.93 40.9662H41.3911V44.7899C39.9911 43.6449 38.2275 42.9288 36.2822 42.9288C32.5755 42.9288 29.475 45.4409 28.5061 48.8413C26.2052 48.1283 24.2146 46.2032 24.9553 43.9376ZM36.2822 55.5108C33.8215 55.5108 31.8198 53.5091 31.8198 51.0484C31.8198 48.5877 33.8215 46.5859 36.2822 46.5859C38.743 46.5859 40.7447 48.5877 40.7447 51.0484C40.7447 53.5091 38.743 55.5108 36.2822 55.5108ZM6.27868 48.7714L5.27333 50.2983C4.718 51.1411 4.95187 52.2752 5.79484 52.8305C6.6347 53.384 7.76897 53.1562 8.32705 52.309L9.3324 50.7821C9.88773 49.9393 9.65386 48.8053 8.81089 48.2499C7.96974 47.6966 6.83585 47.9286 6.27868 48.7714ZM2.25893 54.8822L1.25358 56.409C0.698246 57.2518 0.932121 58.3859 1.77509 58.9412C2.61496 59.4947 3.74922 59.2669 4.3073 58.4197L5.31265 56.8929C5.86798 56.0501 5.63411 54.916 4.79114 54.3606C3.95 53.8073 2.81427 54.0412 2.25893 54.8822ZM15.15 58.4001C15.6565 59.272 16.7745 59.5688 17.65 59.0608C18.5232 58.5519 18.8179 57.4341 18.3107 56.5608L17.9375 55.9197C17.4304 55.0447 16.3089 54.7518 15.4374 55.259C14.5643 55.7679 14.2695 56.8857 14.7768 57.759L15.15 58.4001Z" fill="#1F6115"/>
</svg>
