<svg width="40" height="40" viewBox="0 0 40 40" fill="none" xmlns="http://www.w3.org/2000/svg">
<g clip-path="url(#clip0_78_495)">
<path d="M19.4352 0.129199L1.52352 8.77623C1.29891 8.88467 1.15625 9.11201 1.15625 9.36139V30.6386C1.15625 30.888 1.29898 31.1153 1.52352 31.2237L19.4352 39.8708C19.7921 40.0431 20.2082 40.0431 20.5652 39.8708L38.4768 31.2237C38.7014 31.1153 38.8441 30.888 38.8441 30.6386V9.36139C38.8441 9.11201 38.7013 8.88467 38.4768 8.77623L20.5652 0.129199C20.2082 -0.0430664 19.7921 -0.0430664 19.4352 0.129199Z" fill="#FFE17D"/>
<path d="M1.2643 9.00574C1.19602 9.10972 1.15625 9.23214 1.15625 9.36144V30.6386C1.15625 30.888 1.29898 31.1153 1.52352 31.2238L19.4352 39.8707C19.6136 39.9569 19.8069 40 20.0002 40V18.0507L1.2643 9.00574Z" fill="#FFC350"/>
<path d="M38.7359 9.00574C38.8041 9.10972 38.8439 9.23214 38.8439 9.36144V30.6386C38.8439 30.888 38.7012 31.1153 38.4766 31.2238L20.565 39.8707C20.3866 39.9569 20.1933 40 20 40V18.0507L38.7359 9.00574Z" fill="#FFD164"/>
<path d="M6.51621 29.5044C6.42167 29.5044 6.32519 29.4835 6.23449 29.4397L3.4691 28.1047C3.1455 27.9486 3.01035 27.5602 3.16644 27.2372C3.32191 26.9143 3.71152 26.7797 4.03386 26.9346L6.79925 28.2697C7.12285 28.4258 7.258 28.8142 7.10191 29.1372C6.99027 29.3693 6.758 29.5044 6.51621 29.5044Z" fill="#FFE17D"/>
<path d="M9.06149 27.8477C8.96696 27.8477 8.87047 27.8267 8.77977 27.783L3.47289 25.2213C3.14993 25.0652 3.01414 24.6768 3.17024 24.3538C3.32571 24.0315 3.71594 23.8963 4.03766 24.0512L9.34446 26.6129C9.66743 26.769 9.80321 27.1574 9.64711 27.4803C9.53555 27.7124 9.30329 27.8477 9.06149 27.8477Z" fill="#FFF6D8"/>
<path d="M32.3869 12.0603L13.5852 2.97729L8.62891 5.37964L27.4728 14.4767L32.3869 12.0603Z" fill="#FF8087"/>
<path d="M27.4727 14.4768V21.5242C27.4727 21.7638 27.723 21.921 27.9388 21.8168L32.0195 19.8469C32.2441 19.7385 32.3867 19.5111 32.3867 19.2617V12.0605L27.4727 14.4768Z" fill="#E6646E"/>
</g>
<defs>
<clipPath id="clip0_78_495">
<rect width="40" height="40" fill="white"/>
</clipPath>
</defs>
</svg>
