<svg width="40" height="41" viewBox="0 0 40 41" fill="none" xmlns="http://www.w3.org/2000/svg">
<g clip-path="url(#clip0_78_525)">
<path d="M31.7676 40.315H0V10.0787H40V32.0177L31.7676 40.315Z" fill="white"/>
<path d="M0 10.0787H40V15.1181H0V10.0787Z" fill="#DCE9FF"/>
<path d="M7.5 5.03937H5V1.25984C5 0.564099 5.55969 0 6.25 0C6.94031 0 7.5 0.564099 7.5 1.25984V5.03937Z" fill="#D0DCEE"/>
<path d="M35 5.03937H32.5V1.25984C32.5 0.564099 33.0597 0 33.75 0C34.4403 0 35 0.564099 35 1.25984V5.03937Z" fill="#D0DCEE"/>
<path d="M31.7676 32.0177V40.3149L40 32.0177H31.7676Z" fill="#DBE6F8"/>
<path d="M17.5924 31.9245L11.4449 26.9682C10.9057 26.5333 10.8181 25.7403 11.2499 25.1968C11.6814 24.6533 12.4682 24.5651 13.0074 25.0003L17.4074 28.5479L26.9823 18.8976C27.4706 18.4058 28.2619 18.4058 28.7499 18.8976C29.2379 19.3894 29.2379 20.187 28.7499 20.6791L17.5924 31.9245Z" fill="#0AC1A7"/>
<path d="M40 12.5984H0V6.29923C0 4.90774 1.11938 3.77954 2.5 3.77954H37.5C38.8806 3.77954 40 4.90774 40 6.29923V12.5984Z" fill="#FF3132"/>
</g>
<defs>
<clipPath id="clip0_78_525">
<rect width="40" height="40.315" fill="white"/>
</clipPath>
</defs>
</svg>
