<svg width="64" height="64" viewBox="0 0 64 64" fill="none" xmlns="http://www.w3.org/2000/svg">
<path d="M32 48C27.6 48 24 44.4 24 40V35C24 34.4 24.4 34 25 34C25.6 34 26 34.4 26 35V40C26 43.4 28.6 46 32 46C35.4 46 38 43.4 38 40V35C38 34.4 38.4 34 39 34C39.6 34 40 34.4 40 35V40C40 44.4 36.4 48 32 48Z" fill="#1F6115"/>
<path d="M32 38C24.2 38 18 31.8 18 24V19C18 18.4 18.4 18 19 18C19.6 18 20 18.4 20 19V24C20 30.6 25.4 36 32 36C38.6 36 44 30.6 44 24V19C44 18.4 44.4 18 45 18C45.6 18 46 18.4 46 19V24C46 31.8 39.8 38 32 38ZM57 64H7C6.4 64 6 63.6 6 63V54.2C6 49.4 9 45.2 13.6 43.8L24.8 40H25.6C25.8 40.2 26 40.4 26 40.8C26.4 43.8 29 45.8 32 45.8C35 45.8 37.4 43.6 38 40.8C38 40.6 38.2 40.2 38.4 40C38.6 39.8 39 39.8 39.2 40L50.4 43.8C55 45.2 58 49.4 58 54.2V63C58 63.6 57.6 64 57 64ZM8 62H56V54.2C56 50.4 53.6 46.8 49.8 45.6L39.6 42.2C38.6 45.6 35.6 47.8 32 47.8C28.4 47.8 25.4 45.4 24.4 42.2L14.2 45.6C10.4 46.8 8 50.4 8 54.2V62Z" fill="#1F6115"/>
<path d="M57 64H45C44.4 64 44 63.6 44 63V61C44 54.4 49 48.8 55.4 48.2C55.8 48.2 56.2 48.4 56.4 48.6C57.4 50.4 58 52.2 58 54.2V63C58 63.6 57.6 64 57 64ZM46 62H56V54.2C56 52.8 55.6 51.4 55 50.2C49.8 51.2 46 55.6 46 61V62ZM19 64H7C6.4 64 6 63.6 6 63V54.2C6 52.2 6.6 50.2 7.6 48.6C7.8 48.2 8.2 48 8.6 48C15.2 48.8 20 54.4 20 60.8V62.8C20 63.6 19.6 64 19 64ZM8 62H18V61C18 55.6 14.2 51.2 9 50.2C8.4 51.4 8 52.8 8 54.2V62ZM45 20H44C42.4 20 41 18.6 41 17V13C41 12.4 40.6 12 40 12H24C23.4 12 23 12.4 23 13V17C23 18.6 21.6 20 20 20H19C18.4 20 18 19.6 18 19C18 18.4 18.4 18 19 18H20C20.6 18 21 17.6 21 17V13C21 11.4 22.4 10 24 10H40C41.6 10 43 11.4 43 13V17C43 17.6 43.4 18 44 18H45C45.6 18 46 18.4 46 19C46 19.6 45.6 20 45 20Z" fill="#1F6115"/>
<path d="M45 20H44.8C44.2 19.8 44 19.4 44 18.8L45.8 10.6C46.2 8.6 45.8 6.4 44.4 4.8C43.2 3 41.2 2 39 2H29C27.4 2 26 3.4 26 5C26 5.6 25.6 6 25 6C24.4 6 24 5.6 24 5C24 2.2 26.2 0 29 0H39C41.8 0 44.4 1.2 46 3.4C47.6 5.6 48.4 8.4 47.8 11L46 19.2C45.8 19.6 45.4 20 45 20Z" fill="#1F6115"/>
<path d="M19.9998 20H18.9998C18.5998 20 18.1998 19.6 17.9998 19.2L15.7998 10.8C15.1998 8.6 15.7998 6.6 16.9998 4.8C18.1998 3 20.5998 2 22.5998 2H22.9998C24.5998 2 25.9998 3.4 25.9998 5C25.9998 5.6 25.5998 6 24.9998 6C24.3998 6 23.9998 5.6 23.9998 5C23.9998 4.4 23.5998 4 22.9998 4H22.5998C20.9998 4 19.5998 4.8 18.5998 6C17.5998 7.2 17.3998 8.8 17.7998 10.2L19.7998 18H19.9998C20.5998 18 20.9998 18.4 20.9998 19C20.9998 19.6 20.5998 20 19.9998 20ZM48.9998 26H44.9998C44.3998 26 43.9998 25.6 43.9998 25V19C43.9998 18.4 44.3998 18 44.9998 18H46.9998C48.5998 18 49.9998 19.4 49.9998 21V25C49.9998 25.6 49.5998 26 48.9998 26ZM45.9998 24H47.9998V21C47.9998 20.4 47.5998 20 46.9998 20H45.9998V24Z" fill="#1F6115"/>
<path d="M43 32H37C36.4 32 36 31.6 36 31C36 30.4 36.4 30 37 30H43C45.8 30 48 27.8 48 25V21C48 20.4 48.4 20 49 20C49.6 20 50 20.4 50 21V25C50 28.8 46.8 32 43 32ZM19 26H17C15.4 26 14 24.6 14 23V21C14 19.4 15.4 18 17 18H19C19.6 18 20 18.4 20 19V25C20 25.6 19.6 26 19 26ZM17 20C16.4 20 16 20.4 16 21V23C16 23.6 16.4 24 17 24H18V20H17Z" fill="#1F6115"/>
<path d="M35 34H33C31.4 34 30 32.6 30 31C30 29.4 31.4 28 33 28H35C36.6 28 38 29.4 38 31C38 32.6 36.6 34 35 34ZM33 30C32.4 30 32 30.4 32 31C32 31.6 32.4 32 33 32H35C35.6 32 36 31.6 36 31C36 30.4 35.6 30 35 30H33Z" fill="#1F6115"/>
</svg>
