<svg width="19" height="19" viewBox="0 0 19 19" fill="none" xmlns="http://www.w3.org/2000/svg">
<path d="M6 1.625V4.25C6 4.71413 5.81563 5.15925 5.48744 5.48744C5.15925 5.81563 4.71413 6 4.25 6H1.625M17.375 6H14.75C14.2859 6 13.8408 5.81563 13.5126 5.48744C13.1844 5.15925 13 4.71413 13 4.25V1.625M13 17.375V14.75C13 14.2859 13.1844 13.8408 13.5126 13.5126C13.8408 13.1844 14.2859 13 14.75 13H17.375M1.625 13H4.25C4.71413 13 5.15925 13.1844 5.48744 13.5126C5.81563 13.8408 6 14.2859 6 14.75V17.375" stroke="white" stroke-width="2" stroke-linecap="round" stroke-linejoin="round"/>
</svg>
