<svg width="22" height="62" viewBox="0 0 22 62" fill="none" xmlns="http://www.w3.org/2000/svg">
<path d="M17.7365 32.5384H12.8017C12.8048 32.4938 12.8277 32.4554 12.8277 32.4098V28.8277C12.8277 28.8174 12.8219 28.8088 12.8219 28.7991H14.6045C15.5278 28.7991 16.3045 28.1116 16.4188 27.1973L18.9796 6.65441C19.4144 2.85427 15.1346 0.488281 10.9991 0.488281C6.86583 0.488281 2.58789 2.8731 3.02053 6.65441L3.02235 6.65971C3.02272 6.66465 3.02199 6.66904 3.02235 6.67397L5.58126 27.1971C5.69554 28.1114 6.47232 28.799 7.39557 28.799H9.17641C9.17641 28.8088 9.17056 28.8172 9.17056 28.8275V32.4097C9.17056 32.4552 9.19342 32.4936 9.19653 32.5382H4.26341C1.951 32.5382 0.0688477 34.3971 0.0688477 36.6828V52.9043C0.0688477 53.4828 0.342036 54.0257 0.804482 54.3704L9.90619 61.1489C10.2311 61.39 10.6151 61.5114 10.9991 61.5114C11.3831 61.5114 11.7669 61.39 12.0921 61.1489L21.1956 54.3704C21.6581 54.0257 21.9312 53.4828 21.9312 52.9043V36.6828C21.9311 34.3973 20.0489 32.5384 17.7365 32.5384ZM6.65262 6.24024C6.53687 5.21422 8.77138 4.14561 10.9991 4.14561C12.6598 4.14561 15.4788 5.02954 15.3469 6.23804L12.9903 25.142H9.00983L6.65262 6.24024ZM18.2739 51.9867L10.999 57.4027L3.72581 51.9867V36.6832C3.72581 36.4135 3.96681 36.1957 4.26322 36.1957H17.7365C18.0329 36.1957 18.2739 36.4135 18.2739 36.6832V51.9867Z" fill="#1F6115"/>
</svg>
