<svg width="63" height="58" viewBox="0 0 63 58" fill="none" xmlns="http://www.w3.org/2000/svg">
<path d="M48.5974 46.0625L47.1599 47.4375L43.7224 44.0625H46.5974L48.5974 46.0625ZM54.1599 46.0625C54.1599 47.7292 53.5766 49.1458 52.4099 50.3125C51.2432 51.4792 49.8266 52.0625 48.1599 52.0625H42.1599V50.0625H48.1599C49.2849 50.0625 50.2328 49.6667 51.0037 48.875C51.7745 48.0833 52.1599 47.1458 52.1599 46.0625C52.1599 45.6875 52.1078 45.3333 52.0037 45C51.8995 44.6667 51.7641 44.3333 51.5974 44V44.0625H53.7849C53.9099 44.3542 54.0037 44.6667 54.0662 45C54.1287 45.3333 54.1599 45.6875 54.1599 46.0625ZM47.1599 47.4375L40.7224 41.0625L47.1599 34.625L48.5974 36.0625L43.5974 41.0625L48.5974 46.0625L47.1599 47.4375ZM8.15991 39.25V41.0625L3.15991 39.0625V37.25L8.15991 39.25ZM8.15991 36.125V37.9375L3.15991 35.9375V34.125L8.15991 36.125ZM31.2224 55.1875L0.159912 41.6875V18.4375L33.0974 0.9375L62.1599 12.375V35.625L56.9099 38.9375L55.8474 37.25L60.1599 34.5V13.75L33.2224 3.125L2.15991 19.625V40.375L31.0974 52.9375L37.2849 49L38.3474 50.6875L31.2224 55.1875ZM31.1599 55.0625C31.0766 55.0625 31.0037 55.0521 30.9412 55.0312C30.8787 55.0104 30.8057 54.9792 30.7224 54.9375H30.7849L0.784912 41.9375C0.576579 41.8958 0.420329 41.7917 0.316162 41.625C0.211995 41.4583 0.159912 41.2708 0.159912 41.0625V19.0625C0.159912 18.7708 0.253662 18.5312 0.441162 18.3438C0.628662 18.1562 0.868245 18.0625 1.15991 18.0625C1.24325 18.0625 1.31616 18.0625 1.37866 18.0625C1.44116 18.0625 1.49325 18.0833 1.53491 18.125L31.5349 30.125C31.7016 30.2083 31.8474 30.3333 31.9724 30.5C32.0974 30.6667 32.1599 30.8542 32.1599 31.0625V54.0625C32.1599 54.3125 32.0662 54.5417 31.8787 54.75C31.6912 54.9583 31.4516 55.0625 31.1599 55.0625ZM2.15991 40.375L30.1599 52.5V31.75L2.15991 20.5V40.375ZM31.1599 55.0625C30.8682 55.0625 30.6287 54.9583 30.4412 54.75C30.2537 54.5417 30.1599 54.3125 30.1599 54.0625V31.0625C30.1599 30.8542 30.2016 30.6771 30.2849 30.5312C30.3682 30.3854 30.4932 30.2708 30.6599 30.1875L60.6599 12.1875C60.7432 12.1458 60.8266 12.1146 60.9099 12.0938C60.9932 12.0729 61.0766 12.0625 61.1599 12.0625C61.4516 12.0625 61.6912 12.1562 61.8787 12.3438C62.0662 12.5312 62.1599 12.7708 62.1599 13.0625V35.0625C62.1599 35.2292 62.1182 35.3854 62.0349 35.5312C61.9516 35.6771 61.8474 35.7917 61.7224 35.875L56.9099 38.9375L55.8474 37.25L60.1599 34.5V14.8125L32.1599 31.625V52.25L37.2849 49L38.3474 50.6875L31.7224 54.875C31.6391 54.9167 31.5453 54.9583 31.4412 55C31.337 55.0417 31.2432 55.0625 31.1599 55.0625ZM19.1599 34.0625C19.0766 34.0625 19.0037 34.0521 18.9412 34.0312C18.8787 34.0104 18.8266 34 18.7849 34L13.7849 32C13.6182 31.9167 13.4724 31.7917 13.3474 31.625C13.2224 31.4583 13.1599 31.2708 13.1599 31.0625V24.25C13.1599 23.9583 13.2537 23.7188 13.4412 23.5312C13.6287 23.3438 13.8682 23.25 14.1599 23.25C14.2432 23.25 14.3162 23.2604 14.3787 23.2812C14.4412 23.3021 14.4932 23.3125 14.5349 23.3125L19.5349 25.3125C19.7016 25.3958 19.8474 25.5208 19.9724 25.6875C20.0974 25.8542 20.1599 26.0417 20.1599 26.25V33.0625C20.1599 33.3125 20.0662 33.5417 19.8787 33.75C19.6912 33.9583 19.4516 34.0625 19.1599 34.0625ZM15.1599 30.375L18.1599 31.5625V26.9375L15.1599 25.75V30.375ZM19.1599 27.25C19.0766 27.25 19.0037 27.2396 18.9412 27.2188C18.8787 27.1979 18.8266 27.1875 18.7849 27.1875L13.7849 25.1875C13.6182 25.1042 13.4724 24.9792 13.3474 24.8125C13.2224 24.6458 13.1599 24.4583 13.1599 24.25C13.1599 24.0833 13.2016 23.9271 13.2849 23.7812C13.3682 23.6354 13.4932 23.5 13.6599 23.375L42.9724 5.25C43.0141 5.20833 43.087 5.17708 43.1912 5.15625C43.2953 5.13542 43.3891 5.125 43.4724 5.125C43.5557 5.125 43.6287 5.125 43.6912 5.125C43.7537 5.125 43.8057 5.14583 43.8474 5.1875L48.9099 7.1875C49.0766 7.22917 49.212 7.33333 49.3162 7.5C49.4203 7.66667 49.4724 7.85417 49.4724 8.0625C49.4724 8.27083 49.4307 8.44792 49.3474 8.59375C49.2641 8.73958 49.1599 8.85417 49.0349 8.9375L19.6599 27.125C19.6182 27.1667 19.5453 27.1979 19.4412 27.2188C19.337 27.2396 19.2432 27.25 19.1599 27.25ZM16.3474 24.0625L19.0349 25.125L46.2849 8.25L43.5974 7.1875L16.3474 24.0625ZM47.1599 57.0625C45.3682 57.0625 43.6807 56.7083 42.0974 56C40.5141 55.3333 39.1391 54.4167 37.9724 53.25C36.8057 52.0833 35.8682 50.7083 35.1599 49.125C34.4932 47.5417 34.1599 45.8542 34.1599 44.0625C34.1599 42.2708 34.4932 40.5833 35.1599 39C35.8682 37.4167 36.8057 36.0312 37.9724 34.8438C39.1391 33.6562 40.5141 32.7292 42.0974 32.0625C43.6807 31.3958 45.3682 31.0625 47.1599 31.0625C48.9516 31.0625 50.6391 31.3958 52.2224 32.0625C53.8057 32.7292 55.1807 33.6562 56.3474 34.8438C57.5141 36.0312 58.4516 37.4167 59.1599 39C59.8266 40.5833 60.1599 42.2708 60.1599 44.0625C60.1599 45.8542 59.8266 47.5417 59.1599 49.125C58.4516 50.7083 57.5141 52.0833 56.3474 53.25C55.1807 54.4167 53.8057 55.3333 52.2224 56C50.6391 56.7083 48.9516 57.0625 47.1599 57.0625ZM47.1599 33.0625C44.1182 33.0625 41.5245 34.1354 39.3787 36.2812C37.2328 38.4271 36.1599 41.0208 36.1599 44.0625C36.1599 47.1042 37.2328 49.6979 39.3787 51.8438C41.5245 53.9896 44.1182 55.0625 47.1599 55.0625C50.2016 55.0625 52.7953 53.9896 54.9412 51.8438C57.087 49.6979 58.1599 47.1042 58.1599 44.0625C58.1599 41.0208 57.087 38.4271 54.9412 36.2812C52.7953 34.1354 50.2016 33.0625 47.1599 33.0625ZM48.1599 52.0625H42.1599V50.0625H48.1599C49.2849 50.0625 50.2328 49.6667 51.0037 48.875C51.7745 48.0833 52.1599 47.1458 52.1599 46.0625C52.1599 44.9375 51.7745 43.9896 51.0037 43.2188C50.2328 42.4479 49.2849 42.0625 48.1599 42.0625H42.1599V40.0625H48.1599C49.8266 40.0625 51.2432 40.6458 52.4099 41.8125C53.5766 42.9792 54.1599 44.3958 54.1599 46.0625C54.1599 47.7292 53.5766 49.1458 52.4099 50.3125C51.2432 51.4792 49.8266 52.0625 48.1599 52.0625Z" fill="#4BAF47"/>
</svg>
