<svg width="50" height="41" viewBox="0 0 50 41" fill="none" xmlns="http://www.w3.org/2000/svg">
<g clip-path="url(#clip0_1597_563)">
<path d="M15.0879 7.12695L17.1387 5.44531L23.2422 10.4102C23.4049 10.5703 23.5758 10.7305 23.7549 10.8906C23.9339 11.0508 24.1048 11.2109 24.2676 11.3711C25.2441 10.1966 25.651 8.88867 25.4883 7.44727C25.3255 6.00586 24.6257 4.778 23.3887 3.76367C21.9238 2.53581 20.2393 1.60156 18.335 0.960938C16.4307 0.320312 14.4368 0 12.3535 0H8.44727V3.20312C8.44727 4.91146 8.83789 6.54639 9.61914 8.10791C10.4004 9.66943 11.5397 11.0508 13.0371 12.252C14.2741 13.2663 15.7552 13.8402 17.4805 13.9736C19.2057 14.1071 20.7845 13.8001 22.2168 13.0527C22.054 12.8926 21.8831 12.7324 21.7041 12.5723C21.5251 12.4121 21.3379 12.252 21.1426 12.0918L15.0879 7.12695ZM38.916 5.44531L40.9668 7.12695L34.9121 12.0918C34.7168 12.252 34.5296 12.4121 34.3506 12.5723C34.1716 12.7324 34.0007 12.8926 33.8379 13.0527C35.2702 13.8001 36.849 14.1071 38.5742 13.9736C40.2995 13.8402 41.7806 13.2663 43.0176 12.252C44.515 11.0508 45.6543 9.66943 46.4355 8.10791C47.2168 6.54639 47.6074 4.91146 47.6074 3.20312V0H43.7012C41.6178 0 39.624 0.320312 37.7197 0.960938C35.8154 1.60156 34.1309 2.53581 32.666 3.76367C31.429 4.778 30.7292 6.00586 30.5664 7.44727C30.4036 8.88867 30.8105 10.1966 31.7871 11.3711C31.9499 11.2109 32.1208 11.0508 32.2998 10.8906C32.4788 10.7305 32.6497 10.5703 32.8125 10.4102L38.916 5.44531ZM32.666 12.252C32.5033 12.1185 32.3486 11.9784 32.2021 11.8315C32.0557 11.6847 31.9173 11.5312 31.7871 11.3711C30.9733 12.1185 30.2572 12.9193 29.6387 13.7734C29.0202 14.6276 28.4831 15.5218 28.0273 16.4561C27.6042 15.5218 27.0752 14.6276 26.4404 13.7734C25.8057 12.9193 25.0814 12.1185 24.2676 11.3711C24.1374 11.5312 23.999 11.6847 23.8525 11.8315C23.7061 11.9784 23.5514 12.1185 23.3887 12.252C23.1934 12.4121 22.998 12.5522 22.8027 12.6724C22.6074 12.7925 22.4121 12.9193 22.2168 13.0527C23.4538 14.2806 24.4303 15.6619 25.1465 17.1968C25.8626 18.7316 26.3021 20.2998 26.4648 21.9014C25.293 22.0081 24.1699 22.2417 23.0957 22.6021C22.0215 22.9624 21.0286 23.4229 20.1172 23.9834C20.5404 24.1702 20.9554 24.3771 21.3623 24.604C21.7692 24.8309 22.2005 25.0645 22.6562 25.3047L28.0273 25.3848C30.013 25.3848 31.8522 25.8319 33.5449 26.7261C35.2376 27.6203 36.5072 28.8148 37.3535 30.3096V30.3496C37.8743 30.1094 38.3789 29.8491 38.8672 29.5688C39.3555 29.2886 39.8275 29.0016 40.2832 28.708C39.4368 26.8662 38.0615 25.3314 36.1572 24.1035C34.2529 22.8757 32.0638 22.1416 29.5898 21.9014C29.7526 20.2998 30.1921 18.7316 30.9082 17.1968C31.6243 15.6619 32.6009 14.2806 33.8379 13.0527C33.6426 12.9193 33.4473 12.7925 33.252 12.6724C33.0566 12.5522 32.8613 12.4121 32.666 12.252ZM17.2852 39.999C18.6198 40.266 19.9707 40.4995 21.3379 40.6997C22.7051 40.8999 24.3164 41 26.1719 41C28.6458 41 30.8268 40.7865 32.7148 40.3594C34.5703 39.9056 36.3688 39.285 38.1104 38.4976C39.8519 37.7101 41.6504 36.7692 43.5059 35.6748C45.3613 34.5537 47.526 33.3392 50 32.0312C49.9349 31.9779 49.9023 31.9445 49.9023 31.9312C49.9023 31.9178 49.6582 31.6042 49.1699 30.9902C48.4212 30.0827 47.3633 29.5889 45.9961 29.5088C44.6289 29.4287 43.4245 29.7357 42.3828 30.4297C41.3086 31.1237 40.1693 31.7643 38.9648 32.3516C37.7604 32.9121 36.5153 33.3926 35.2295 33.793C33.9437 34.1934 32.6172 34.5003 31.25 34.7139C29.9154 34.9274 28.5482 35.0208 27.1484 34.9941C24.8698 34.9941 22.9574 34.7939 21.4111 34.3936C19.8649 33.9932 18.9941 33.7663 18.7988 33.7129L19.6777 31.4707C19.9382 31.5241 20.7113 31.7176 21.9971 32.0513C23.2829 32.3849 24.9349 32.5651 26.9531 32.5918C28.2878 32.6452 29.6061 32.5518 30.9082 32.3115C32.2103 32.0713 33.4635 31.7376 34.668 31.3105C34.082 30.2695 33.195 29.422 32.0068 28.7681C30.8187 28.1141 29.4922 27.7871 28.0273 27.7871H22.8516C22.526 27.7871 22.2005 27.7471 21.875 27.667C21.5495 27.5869 21.2565 27.4668 20.9961 27.3066C17.806 25.5449 15.4297 24.584 13.8672 24.4238C12.3047 24.2637 10.0423 24.9844 7.08008 26.5859H0V38.5977H1.46484C5.56641 38.5977 8.78906 38.7511 11.1328 39.0581C13.4766 39.3651 15.5273 39.6787 17.2852 39.999Z" fill="white"/>
</g>
<defs>
<clipPath id="clip0_1597_563">
<rect width="50" height="41" fill="white" transform="matrix(1 0 0 -1 0 41)"/>
</clipPath>
</defs>
</svg>
