<svg width="14" height="22" viewBox="0 0 14 22" fill="none" xmlns="http://www.w3.org/2000/svg">
<path d="M13.4558 7.15168V7.04724V1.49323C13.4558 0.6749 12.9317 0.00927734 12.288 0.00927734H11.7111C11.1131 0.00927734 10.614 0.579792 10.5487 1.33853L10.5451 1.38208H9.08777C8.94368 1.38208 8.80561 1.45106 8.70172 1.5736L2.24115 9.23159C2.11499 9.35748 2.03399 9.54969 2.03399 9.76528V10.4168C1.56827 10.6323 1.23423 11.1821 1.23423 11.8304V16.4791C1.23423 16.8581 1.48326 17.1648 1.79097 17.1648H3.42528C3.73299 17.1648 3.98202 16.8581 3.98202 16.4791V11.8305C3.98202 11.1665 3.63122 10.6074 3.14746 10.4037V10.0607L9.31236 2.75351H10.4321L10.1742 5.88208C9.32477 6.19257 8.64945 6.90043 8.4066 7.81401L7.45908 11.3722C7.4372 11.4242 7.42529 11.4803 7.41471 11.5391C6.64301 15.0951 5.66749 16.3075 6.50422 17.9498C6.88447 18.6973 7.56575 19.2465 8.36172 19.4664C8.58041 20.8717 9.5831 21.9381 10.7869 21.9381C12.1499 21.9381 13.259 20.5721 13.259 18.8933C13.259 18.5613 13.2048 18.2474 13.1247 17.9479C13.3398 17.5285 13.4558 17.064 13.4558 16.5817V7.15168ZM2.86854 15.7935H2.34771V11.8305C2.34771 11.7521 2.39937 11.6879 2.46295 11.6879H2.75274C2.81637 11.6879 2.86854 11.7522 2.86854 11.8305V15.7935ZM8.36529 12.3696H12.3424V13.741H8.00023L8.36529 12.3696ZM11.7111 1.38071H12.288C12.3102 1.38071 12.3424 1.42425 12.3424 1.49323V5.72217C12.2998 5.71758 12.2585 5.70859 12.2146 5.70859H11.3079L11.6002 2.16132C11.6039 2.12937 11.6155 2.10091 11.6155 2.06772C11.6155 2.05675 11.6109 2.04763 11.6105 2.03687L11.6563 1.48048C11.6617 1.4189 11.6921 1.38071 11.7111 1.38071ZM9.46462 8.24121C9.64351 7.56825 10.3465 7.08002 11.1365 7.08002H12.2146C12.276 7.08002 12.319 7.09874 12.3424 7.11417V7.15168V10.9981H8.73051L9.46462 8.24121ZM7.33821 16.2267L7.63495 15.1124H12.3424V16.5463C11.9161 16.1169 11.3791 15.8484 10.7869 15.8484C9.65831 15.8484 8.71431 16.7904 8.41929 18.0656C7.71874 17.7982 7.11268 17.0763 7.33821 16.2267ZM10.7869 20.5666C10.0377 20.5666 9.42821 19.816 9.42821 18.8932C9.42821 17.9705 10.0377 17.2198 10.7869 17.2198C11.5361 17.2198 12.1455 17.9705 12.1455 18.8932C12.1455 19.816 11.5361 20.5666 10.7869 20.5666ZM1.65178 18.0394L1.34569 18.612C1.17661 18.928 1.24781 19.3533 1.50447 19.5615C1.76018 19.7691 2.10553 19.6837 2.27544 19.366L2.58154 18.7934C2.75062 18.4773 2.67941 18.0521 2.42276 17.8438C2.16666 17.6363 1.82142 17.7233 1.65178 18.0394ZM0.427902 20.3309L0.121806 20.9035C-0.0472755 21.2195 0.0239316 21.6448 0.280589 21.8531C0.536299 22.0606 0.881645 21.9752 1.05156 21.6575L1.35766 21.0849C1.52674 20.7689 1.45553 20.3436 1.19888 20.1353C0.942775 19.9278 0.596984 20.0155 0.427902 20.3309ZM4.35281 21.6501C4.50702 21.9771 4.84741 22.0884 5.11398 21.8979C5.37982 21.7071 5.46957 21.2879 5.31513 20.9604L5.2015 20.72C5.04712 20.3919 4.70567 20.282 4.44033 20.4722C4.17448 20.6631 4.08474 21.0822 4.23918 21.4097L4.35281 21.6501Z" fill="white"/>
</svg>
