<svg width="64" height="60" viewBox="0 0 64 60" fill="none" xmlns="http://www.w3.org/2000/svg">
<path d="M60.9883 0.823512L54.4001 1.48234C53.6472 1.57645 53.0824 2.04704 52.8942 2.61175C51.5766 2.8941 50.4472 3.64704 49.506 4.58822L11.7648 46.9412L2.44715 39.7882C2.07068 39.5059 1.41186 39.5059 1.1295 39.9765C0.847152 40.3529 0.941269 40.9176 1.31774 41.2941C2.44715 42.2353 -2.82344 38 12.5177 50.1412C11.8589 51.0823 11.4824 52.2117 11.4824 53.4353C11.4824 56.6353 14.0236 59.1765 17.2236 59.1765C20.4236 59.1765 22.9648 56.6353 22.9648 53.4353C22.9648 52.1176 22.4942 50.8941 21.7413 49.9529L52.5177 21.5294C55.0589 19.1765 55.0589 15.3176 52.706 12.8706L48.4707 8.63528L50.9177 5.90586C51.4824 5.24704 52.3295 4.77645 53.1766 4.4941C53.553 4.96469 54.0236 5.15292 54.5883 5.15292C54.7766 5.15292 54.0236 5.24704 61.3648 4.4941C62.4001 4.39998 63.153 3.45881 63.0589 2.42351C62.9648 1.48234 62.0236 0.729394 60.9883 0.823512ZM40.0001 30.6588L33.7883 25.1059L39.7177 18.4235L46.4942 24.5412L40.0001 30.6588ZM31.4354 38.5647L25.8824 33.9529L32.5648 26.5176L38.5883 31.8823L31.4354 38.5647ZM24.4707 44.9647L19.6707 40.8235L24.5648 35.3647L30.0236 39.8823L24.4707 44.9647ZM17.2236 47.6941C15.906 47.6941 14.7766 48.1647 13.8354 48.8235L13.1766 48.1647L18.4472 42.2353L23.153 46.2823L20.5177 48.7294C19.5766 48.0706 18.4472 47.6941 17.2236 47.6941ZM17.2236 57.2941C15.0589 57.2941 13.3648 55.5059 13.3648 53.4353C13.3648 51.2706 15.153 49.5765 17.2236 49.5765C19.3883 49.5765 21.0824 51.3647 21.0824 53.4353C21.1766 55.6 19.3883 57.2941 17.2236 57.2941ZM51.3883 14.0941C53.0824 15.7882 52.9883 18.5176 51.2942 20.1176L47.906 23.3176L40.9413 17.1059L47.2472 10.047L51.3883 14.0941Z" fill="white"/>
</svg>
