<svg width="65" height="64" viewBox="0 0 65 64" fill="none" xmlns="http://www.w3.org/2000/svg">
<path d="M47.7825 48.3125C47.7825 48.0208 47.8762 47.7812 48.0637 47.5938C48.2512 47.4062 48.4908 47.3125 48.7825 47.3125C49.0325 47.3125 49.2616 47.4062 49.47 47.5938C49.6783 47.7812 49.7825 48.0208 49.7825 48.3125V63C49.7825 63.2917 49.6783 63.5312 49.47 63.7188C49.2616 63.9062 49.0325 64 48.7825 64H6.15747C5.90747 64 5.6783 63.9062 5.46997 63.7188C5.26164 63.5312 5.15747 63.2917 5.15747 63V37.75C5.15747 37.4583 5.26164 37.2188 5.46997 37.0312C5.6783 36.8438 5.90747 36.75 6.15747 36.75C6.44914 36.75 6.68872 36.8438 6.87622 37.0312C7.06372 37.2188 7.15747 37.4583 7.15747 37.75V62H47.7825V48.3125ZM15.0325 60.375C15.0325 60.6667 14.9283 60.9167 14.72 61.125C14.5116 61.3333 14.2825 61.4375 14.0325 61.4375C13.7408 61.4375 13.5012 61.3333 13.3137 61.125C13.1262 60.9167 13.0325 60.6667 13.0325 60.375V47.625C13.0325 46.6667 13.2096 45.7708 13.5637 44.9375C13.9179 44.1042 14.4075 43.375 15.0325 42.75C15.6575 42.125 16.3971 41.6354 17.2512 41.2812C18.1054 40.9271 18.9908 40.75 19.9075 40.75C20.8658 40.75 21.7616 40.9271 22.595 41.2812C23.4283 41.6354 24.1575 42.125 24.7825 42.75C25.4075 43.375 25.9075 44.1042 26.2825 44.9375C26.6575 45.7708 26.845 46.6667 26.845 47.625V60.375C26.845 60.6667 26.7408 60.9167 26.5325 61.125C26.3241 61.3333 26.095 61.4375 25.845 61.4375C25.5533 61.4375 25.3137 61.3333 25.1262 61.125C24.9387 60.9167 24.845 60.6667 24.845 60.375V47.625C24.845 46.9583 24.7096 46.3229 24.4387 45.7188C24.1679 45.1146 23.8241 44.6042 23.4075 44.1875C22.9491 43.7292 22.4179 43.375 21.8137 43.125C21.2096 42.875 20.5741 42.75 19.9075 42.75C19.2408 42.75 18.6054 42.875 18.0012 43.125C17.3971 43.375 16.8866 43.7292 16.47 44.1875C16.0116 44.6042 15.6575 45.1146 15.4075 45.7188C15.1575 46.3229 15.0325 46.9583 15.0325 47.625V60.375ZM33.2825 52.4375H42.47V45.4375H33.2825V52.4375ZM43.47 54.4375H32.2825C31.9908 54.4375 31.7512 54.3333 31.5637 54.125C31.3762 53.9167 31.2825 53.6875 31.2825 53.4375V44.4375C31.2825 44.1458 31.3762 43.9062 31.5637 43.7188C31.7512 43.5312 31.9908 43.4375 32.2825 43.4375H43.47C43.72 43.4375 43.9491 43.5312 44.1575 43.7188C44.3658 43.9062 44.47 44.1458 44.47 44.4375V53.4375C44.47 53.6875 44.3658 53.9167 44.1575 54.125C43.9491 54.3333 43.72 54.4375 43.47 54.4375ZM21.595 55C21.8866 55 22.1262 54.9062 22.3137 54.7188C22.5012 54.5312 22.595 54.3125 22.595 54.0625C22.595 53.7708 22.5012 53.5208 22.3137 53.3125C22.1262 53.1042 21.8866 53 21.595 53C21.3033 53 21.0637 53.1042 20.8762 53.3125C20.6887 53.5208 20.595 53.7708 20.595 54.0625C20.595 54.3125 20.6887 54.5312 20.8762 54.7188C21.0637 54.9062 21.3033 55 21.595 55ZM22.7825 31V30.9375L23.4075 18.5625H19.595L17.345 31.0625C17.345 31.4375 17.4179 31.8021 17.5637 32.1562C17.7096 32.5104 17.8866 32.8125 18.095 33.0625C18.345 33.3125 18.6366 33.5104 18.97 33.6562C19.3033 33.8021 19.6575 33.875 20.0325 33.875C20.4075 33.875 20.7616 33.8021 21.095 33.6562C21.4283 33.5104 21.6991 33.3125 21.9075 33.0625C22.1991 32.8125 22.4075 32.5 22.5325 32.125C22.6575 31.75 22.72 31.375 22.72 31H22.7825ZM25.4075 18.5625L24.7825 31C24.7825 31.375 24.8554 31.75 25.0012 32.125C25.1471 32.5 25.345 32.8125 25.595 33.0625C25.8033 33.3125 26.0741 33.5104 26.4075 33.6562C26.7408 33.8021 27.095 33.875 27.47 33.875C27.845 33.875 28.1991 33.8021 28.5325 33.6562C28.8658 33.5104 29.1575 33.3125 29.4075 33.0625C29.6575 32.8125 29.845 32.5 29.97 32.125C30.095 31.75 30.1575 31.375 30.1575 31H30.22L29.845 24.75C29.845 24.4583 29.9387 24.2083 30.1262 24C30.3137 23.7917 30.5325 23.6875 30.7825 23.6875C31.0741 23.6875 31.3241 23.7812 31.5325 23.9688C31.7408 24.1562 31.845 24.375 31.845 24.625L32.1575 30.9375V31H32.22C32.22 31.375 32.2929 31.75 32.4387 32.125C32.5846 32.5 32.7825 32.8125 33.0325 33.0625C33.2408 33.3125 33.5116 33.5104 33.845 33.6562C34.1783 33.8021 34.5325 33.875 34.9075 33.875C35.1991 33.875 35.4387 33.9792 35.6262 34.1875C35.8137 34.3958 35.9075 34.625 35.9075 34.875C35.9075 35.1667 35.8137 35.4062 35.6262 35.5938C35.4387 35.7812 35.1991 35.875 34.9075 35.875C34.2408 35.875 33.6262 35.75 33.0637 35.5C32.5012 35.25 31.9908 34.8958 31.5325 34.4375C31.4908 34.3542 31.4387 34.2812 31.3762 34.2188C31.3137 34.1562 31.2616 34.0833 31.22 34C31.1366 34.0833 31.0637 34.1562 31.0012 34.2188C30.9387 34.2812 30.8866 34.3542 30.845 34.4375C30.3866 34.8958 29.8762 35.25 29.3137 35.5C28.7512 35.75 28.1366 35.875 27.47 35.875C26.8033 35.875 26.1887 35.75 25.6262 35.5C25.0637 35.25 24.5533 34.8958 24.095 34.4375C24.0533 34.3542 24.0012 34.2812 23.9387 34.2188C23.8762 34.1562 23.8241 34.0833 23.7825 34C23.6991 34.0833 23.6262 34.1562 23.5637 34.2188C23.5012 34.2812 23.4491 34.3542 23.4075 34.4375C22.9491 34.8958 22.4387 35.25 21.8762 35.5C21.3137 35.75 20.6991 35.875 20.0325 35.875C19.3658 35.875 18.7512 35.75 18.1887 35.5C17.6262 35.25 17.1158 34.8958 16.6575 34.4375C16.6158 34.3542 16.5637 34.2812 16.5012 34.2188C16.4387 34.1562 16.3658 34.0833 16.2825 34C16.2408 34.0833 16.1887 34.1562 16.1262 34.2188C16.0637 34.2812 16.0116 34.3542 15.97 34.4375C15.5116 34.8958 15.0012 35.25 14.4387 35.5C13.8762 35.75 13.2616 35.875 12.595 35.875C11.9283 35.875 11.3137 35.75 10.7512 35.5C10.1887 35.25 9.6783 34.8958 9.21997 34.4375C9.1783 34.3542 9.12622 34.2812 9.06372 34.2188C9.00122 34.1562 8.9283 34.0833 8.84497 34C8.8033 34.0833 8.75122 34.1562 8.68872 34.2188C8.62622 34.2812 8.57414 34.3542 8.53247 34.4375C8.07414 34.8958 7.56372 35.25 7.00122 35.5C6.43872 35.75 5.82414 35.875 5.15747 35.875C4.6158 35.875 4.09497 35.7812 3.59497 35.5938C3.09497 35.4062 2.63664 35.1458 2.21997 34.8125C1.8033 34.4792 1.44914 34.0833 1.15747 33.625C0.865804 33.1667 0.678304 32.6667 0.594971 32.125C0.553304 31.9583 0.522054 31.7812 0.501221 31.5938C0.480387 31.4062 0.469971 31.2292 0.469971 31.0625C0.511637 30.8958 0.553304 30.7292 0.594971 30.5625C0.636637 30.3958 0.678304 30.2292 0.719971 30.0625L4.84497 19.9375C5.09497 19.4375 5.38664 18.9792 5.71997 18.5625C6.0533 18.1458 6.4283 17.7917 6.84497 17.5C7.26164 17.1667 7.73039 16.9271 8.25122 16.7812C8.77205 16.6354 9.3033 16.5625 9.84497 16.5625H28.095C28.3866 16.5625 28.6262 16.6562 28.8137 16.8438C29.0012 17.0312 29.095 17.2708 29.095 17.5625C29.095 17.8125 29.0012 18.0417 28.8137 18.25C28.6262 18.4583 28.3866 18.5625 28.095 18.5625H25.4075ZM17.595 18.5625H13.5325L9.90747 31.0625C9.90747 31.4792 9.98039 31.8542 10.1262 32.1875C10.2721 32.5208 10.4491 32.8125 10.6575 33.0625C10.9075 33.3125 11.1991 33.5104 11.5325 33.6562C11.8658 33.8021 12.22 33.875 12.595 33.875C12.97 33.875 13.3241 33.8021 13.6575 33.6562C13.9908 33.5104 14.2616 33.3125 14.47 33.0625C14.7616 32.8125 14.97 32.5 15.095 32.125C15.22 31.75 15.2825 31.375 15.2825 31H15.345C15.345 30.9583 15.345 30.9167 15.345 30.875C15.345 30.8333 15.345 30.8125 15.345 30.8125L17.595 18.5625ZM11.47 18.5625H9.84497C9.51164 18.5625 9.1783 18.6042 8.84497 18.6875C8.51164 18.7708 8.21997 18.9167 7.96997 19.125C7.71997 19.2917 7.48039 19.5104 7.25122 19.7812C7.02205 20.0521 6.84497 20.375 6.71997 20.75L2.59497 30.8125C2.5533 30.8958 2.52205 30.9688 2.50122 31.0312C2.48039 31.0938 2.46997 31.1667 2.46997 31.25C2.46997 31.2917 2.46997 31.3542 2.46997 31.4375C2.46997 31.5208 2.4908 31.6042 2.53247 31.6875C2.57414 32.0208 2.6783 32.3229 2.84497 32.5938C3.01164 32.8646 3.21997 33.1042 3.46997 33.3125C3.71997 33.4792 3.98039 33.6146 4.25122 33.7188C4.52205 33.8229 4.82414 33.875 5.15747 33.875C5.53247 33.875 5.88664 33.8021 6.21997 33.6562C6.5533 33.5104 6.82414 33.3125 7.03247 33.0625C7.32414 32.8125 7.53247 32.5 7.65747 32.125C7.78247 31.75 7.84497 31.375 7.84497 31H7.90747C7.90747 30.9167 7.90747 30.8542 7.90747 30.8125C7.90747 30.7708 7.90747 30.7292 7.90747 30.6875L11.47 18.5625ZM30.7825 57.8125C30.4908 57.8125 30.2512 57.7083 30.0637 57.5C29.8762 57.2917 29.7825 57.0625 29.7825 56.8125C29.7825 56.5208 29.8762 56.2812 30.0637 56.0938C30.2512 55.9062 30.4908 55.8125 30.7825 55.8125H44.97C45.22 55.8125 45.4387 55.9062 45.6262 56.0938C45.8137 56.2812 45.9075 56.5208 45.9075 56.8125C45.9075 57.0625 45.8137 57.2917 45.6262 57.5C45.4387 57.7083 45.22 57.8125 44.97 57.8125H30.7825ZM62.47 23.375L49.595 45.125C49.47 45.375 49.2721 45.5312 49.0012 45.5938C48.7304 45.6562 48.47 45.625 48.22 45.5C48.1366 45.4583 48.0637 45.4062 48.0012 45.3438C47.9387 45.2812 47.8866 45.2083 47.845 45.125L35.0325 23.375C35.0325 23.375 35.0221 23.3646 35.0012 23.3438C34.9804 23.3229 34.97 23.3125 34.97 23.3125C34.6783 22.7292 34.4075 22.1354 34.1575 21.5312C33.9075 20.9271 33.6991 20.3125 33.5325 19.6875C33.3658 19.0208 33.2408 18.3646 33.1575 17.7188C33.0741 17.0729 33.0325 16.3958 33.0325 15.6875C33.0325 13.5208 33.4491 11.4896 34.2825 9.59375C35.1158 7.69792 36.2408 6.04167 37.6575 4.625C39.0741 3.20833 40.7304 2.08333 42.6262 1.25C44.5221 0.416668 46.5741 0 48.7825 0C50.9491 0 52.9804 0.416668 54.8762 1.25C56.7721 2.08333 58.4283 3.20833 59.845 4.625C61.2616 6.04167 62.3866 7.69792 63.22 9.59375C64.0533 11.4896 64.47 13.5208 64.47 15.6875C64.47 16.3958 64.4283 17.0729 64.345 17.7188C64.2616 18.3646 64.1366 19.0208 63.97 19.6875C63.8033 20.3125 63.595 20.9375 63.345 21.5625C63.095 22.1875 62.8033 22.7917 62.47 23.375ZM48.7825 6.1875C50.0741 6.1875 51.3033 6.4375 52.47 6.9375C53.6366 7.4375 54.6366 8.125 55.47 9C56.345 9.83333 57.0325 10.8333 57.5325 12C58.0325 13.1667 58.2825 14.3958 58.2825 15.6875C58.2825 17.0208 58.0325 18.2708 57.5325 19.4375C57.0325 20.6042 56.345 21.6042 55.47 22.4375C54.6366 23.3125 53.6366 24 52.47 24.5C51.3033 25 50.0741 25.25 48.7825 25.25C47.4491 25.25 46.1991 25 45.0325 24.5C43.8658 24 42.845 23.3125 41.97 22.4375C41.1366 21.6042 40.47 20.6042 39.97 19.4375C39.47 18.2708 39.22 17.0208 39.22 15.6875C39.22 14.3958 39.47 13.1667 39.97 12C40.47 10.8333 41.1366 9.83333 41.97 9C42.845 8.125 43.8658 7.4375 45.0325 6.9375C46.1991 6.4375 47.4491 6.1875 48.7825 6.1875ZM54.095 10.375C53.3866 9.70833 52.5846 9.17708 51.6887 8.78125C50.7929 8.38542 49.8241 8.1875 48.7825 8.1875C47.7408 8.1875 46.7616 8.38542 45.845 8.78125C44.9283 9.17708 44.1158 9.70833 43.4075 10.375C42.7408 11.0833 42.2096 11.8854 41.8137 12.7812C41.4179 13.6771 41.22 14.6458 41.22 15.6875C41.22 16.7292 41.4179 17.7083 41.8137 18.625C42.2096 19.5417 42.7408 20.3542 43.4075 21.0625C44.1158 21.7292 44.9283 22.2604 45.845 22.6562C46.7616 23.0521 47.7408 23.25 48.7825 23.25C49.8241 23.25 50.7929 23.0521 51.6887 22.6562C52.5846 22.2604 53.3866 21.7292 54.095 21.0625C54.7616 20.3542 55.2929 19.5417 55.6887 18.625C56.0846 17.7083 56.2825 16.7292 56.2825 15.6875C56.2825 14.6458 56.0846 13.6771 55.6887 12.7812C55.2929 11.8854 54.7616 11.0833 54.095 10.375ZM48.7825 42.6875L60.7825 22.375C61.0325 21.875 61.2616 21.3542 61.47 20.8125C61.6783 20.2708 61.8658 19.7292 62.0325 19.1875C62.1575 18.6042 62.2616 18.0312 62.345 17.4688C62.4283 16.9062 62.47 16.3125 62.47 15.6875C62.47 13.8125 62.1054 12.0417 61.3762 10.375C60.6471 8.70833 59.6783 7.25 58.47 6C57.22 4.79167 55.7616 3.82292 54.095 3.09375C52.4283 2.36458 50.6575 2 48.7825 2C46.8658 2 45.0741 2.36458 43.4075 3.09375C41.7408 3.82292 40.2825 4.79167 39.0325 6C37.7825 7.25 36.8033 8.70833 36.095 10.375C35.3866 12.0417 35.0325 13.8125 35.0325 15.6875C35.0325 16.3125 35.0637 16.9062 35.1262 17.4688C35.1887 18.0312 35.3033 18.6042 35.47 19.1875C35.595 19.7292 35.7721 20.2604 36.0012 20.7812C36.2304 21.3021 36.47 21.8125 36.72 22.3125V22.375L48.7825 42.6875ZM48.7825 11.125C49.3658 11.125 49.9387 11.25 50.5012 11.5C51.0637 11.75 51.5533 12.0833 51.97 12.5C52.3866 12.9167 52.72 13.3958 52.97 13.9375C53.22 14.4792 53.345 15.0625 53.345 15.6875C53.345 16.3542 53.22 16.9583 52.97 17.5C52.72 18.0417 52.3866 18.5208 51.97 18.9375C51.5533 19.3542 51.0741 19.6875 50.5325 19.9375C49.9908 20.1875 49.4075 20.3125 48.7825 20.3125C48.1158 20.3125 47.5116 20.1875 46.97 19.9375C46.4283 19.6875 45.9491 19.3542 45.5325 18.9375C45.4908 18.9375 45.47 18.9271 45.47 18.9062C45.47 18.8854 45.47 18.875 45.47 18.875C45.0533 18.4583 44.7304 17.9792 44.5012 17.4375C44.2721 16.8958 44.1575 16.3125 44.1575 15.6875C44.1575 15.0625 44.2825 14.4792 44.5325 13.9375C44.7825 13.3958 45.1158 12.9167 45.5325 12.5C45.5325 12.5 45.5325 12.4896 45.5325 12.4688C45.5325 12.4479 45.5533 12.4375 45.595 12.4375C46.0116 12.0208 46.4908 11.6979 47.0325 11.4688C47.5741 11.2396 48.1575 11.125 48.7825 11.125ZM50.595 13.875C50.345 13.6667 50.0637 13.4896 49.7512 13.3438C49.4387 13.1979 49.1158 13.125 48.7825 13.125C48.4075 13.125 48.0741 13.1875 47.7825 13.3125C47.4908 13.4375 47.22 13.625 46.97 13.875C46.97 13.875 46.9596 13.875 46.9387 13.875C46.9179 13.875 46.9075 13.875 46.9075 13.875C46.6991 14.125 46.5221 14.4062 46.3762 14.7188C46.2304 15.0312 46.1575 15.3542 46.1575 15.6875C46.1575 16.0625 46.22 16.3958 46.345 16.6875C46.47 16.9792 46.6575 17.25 46.9075 17.5C46.9075 17.5 46.9075 17.5104 46.9075 17.5312C46.9075 17.5521 46.9075 17.5625 46.9075 17.5625C47.1575 17.7708 47.4387 17.9479 47.7512 18.0938C48.0637 18.2396 48.4075 18.3125 48.7825 18.3125C49.1158 18.3125 49.4387 18.2396 49.7512 18.0938C50.0637 17.9479 50.345 17.7708 50.595 17.5625C50.8033 17.3125 50.9804 17.0312 51.1262 16.7188C51.2721 16.4062 51.345 16.0625 51.345 15.6875C51.345 15.3542 51.2721 15.0312 51.1262 14.7188C50.9804 14.4062 50.8033 14.125 50.595 13.875Z" fill="#4BAF47"/>
</svg>
