<svg width="26" height="19" viewBox="0 0 26 19" fill="none" xmlns="http://www.w3.org/2000/svg">
<path d="M16 13.4229V15.4941C16 16.0435 15.7366 16.5703 15.2678 16.9588C14.7989 17.3472 14.163 17.5654 13.5 17.5654H3.5C2.83696 17.5654 2.20107 17.3472 1.73223 16.9588C1.26339 16.5703 1 16.0435 1 15.4941V3.06641C1 2.51707 1.26339 1.99023 1.73223 1.60178C2.20107 1.21334 2.83696 0.995117 3.5 0.995117H13C14.3806 0.995117 16 1.92254 16 3.06641V5.1377M20 13.4229L25 9.28027L20 5.1377M8 9.28027H24" stroke="#F8F8F8" stroke-linecap="round" stroke-linejoin="round"/>
</svg>
