<svg width="336" height="167" viewBox="0 0 336 167" fill="none" xmlns="http://www.w3.org/2000/svg">
<mask id="mask0_979_387" style="mask-type:alpha" maskUnits="userSpaceOnUse" x="0" y="0" width="336" height="167">
<path d="M255.667 10.2097C257.893 10.6614 260.035 10.8579 260.39 14.04C260.571 15.6607 262.76 15.8265 264.375 15.8702C267.273 15.9492 268.03 16.4172 267.858 18.9988C267.719 21.0836 268.393 21.7004 270.343 21.8721C272.912 22.0979 275.318 22.8296 278.021 21.7911C280.454 20.8571 281.845 22.0901 283 25.0176C283.245 25.6377 283.596 26.4647 284.321 26.0176C287.626 23.9798 291.573 25.5672 295.114 23.7689C297.466 22.5744 300.818 23.1155 303.178 25.3818C304.319 26.4778 305.673 27.0045 307.089 26.0411C308.591 25.0196 309.835 25.9595 310.607 26.7539C313.062 29.2767 315.834 28.5267 318.65 27.9901C319.027 27.9183 319.392 27.7826 319.763 27.6768C321.293 27.2388 319.859 30.7473 321.573 29.2519C322.482 28.4595 323.118 28.2937 324.145 28.169C328.827 27.6005 332.279 30.2538 335.869 32.6056L334.152 36.6362C334.028 36.6047 333.903 36.5757 333.777 36.5494C332.759 36.3373 331.83 34.5566 331.523 35.0436C330.888 36.0488 329.611 36.9084 329.777 38.3144C329.989 40.1186 329.096 40.5448 327.497 40.6212C326.073 40.689 324.619 40.941 323.516 42.0657C322.618 42.9827 321.554 43.001 320.28 42.9521C316.989 42.8254 315.218 44.3868 314.806 47.7203C314.384 51.1393 311.189 52.3664 309.499 54.7743C308.953 55.5524 308.463 54.5439 308.17 54.025C306.828 51.6504 307.659 49.4428 308.855 47.3593C309.434 46.3515 310.364 45.5499 311.099 44.625C311.544 44.0643 312.703 43.704 312.175 42.832C311.708 42.0604 310.635 41.8509 309.705 41.8751C308.543 41.9057 307.756 42.7021 307.22 43.6061C306.287 45.1818 305.187 44.9501 303.57 44.6603C299.353 43.9051 294.988 43.4632 292.051 47.6916C291.274 48.811 288.868 48.9742 289.601 50.792C290.292 52.5028 292.418 51.371 293.858 51.8142C294.922 52.1412 296.357 51.7744 296.405 53.2058C296.456 54.7489 298.027 56.476 296.274 57.8507C295.73 58.2776 295.239 58.5373 295.165 59.2638C295.128 59.63 295.14 60.1842 294.692 60.1829C294.268 60.1816 294.314 59.6346 294.27 59.2828C294.238 59.023 294.261 58.7573 294.231 58.4969C294.147 57.7665 294.469 56.9741 293.901 56.3168C293.703 57.0563 293.636 57.8657 293.285 58.5243C291.615 61.6685 289.834 64.6384 285.93 65.5849C282.353 66.4517 281.997 67.1834 282.858 70.793C283.171 72.109 283.178 73.2297 281.766 73.6951C280.401 74.1448 279.976 72.8779 279.505 72.0006C279.141 71.3244 278.938 70.5293 278.819 69.7637C278.646 68.6423 278.023 68.5411 277.148 68.8623C276.468 69.1123 275.745 69.9595 275.124 68.9556C274.696 68.2631 274.423 67.8048 273.804 68.6736C273.434 69.1938 272.85 69.8348 272.923 70.3413C273.08 71.4432 273.898 70.5515 274.43 70.6031C275.95 70.7519 277.382 70.9327 275.385 72.7232C274.479 73.5352 274.75 74.5978 274.958 75.6579C276.018 81.0716 273.696 85.0709 268.554 86.9064C267.269 87.3653 265.664 87.2869 265.11 89.0969C264.756 90.2503 264.229 90.1524 263.715 88.9977C263.095 87.6015 262.166 88.4951 261.469 88.9821C260.524 89.6439 260.509 90.4729 261.386 91.2673C261.775 91.6198 262.192 91.9448 262.556 92.3214C265.039 94.8899 264.165 98.4858 260.786 99.8272C259.855 100.197 259.712 99.5615 259.339 99.0328C258.324 97.5949 256.574 95.8978 255.271 97.0753C253.59 98.5948 255.368 100.4 256.705 101.678C257.689 102.619 258.847 103.751 258.597 104.973C258.026 107.768 260.503 109.468 260.661 111.944C260.732 113.06 261.808 113.227 262.703 113.475C265.33 114.203 267.776 115.707 270.678 115.255C271.177 115.177 271.911 115.377 271.948 115.914C272 116.675 271.209 116.456 270.746 116.497C267.435 116.794 264.046 116.237 261.068 115.286C258.772 114.553 256.829 111.914 255.337 109.712C254.098 107.877 252.739 106.127 251.27 104.471C250.84 103.987 250.037 103.682 250.556 102.95C251.142 102.125 251.997 102.449 252.605 102.984C253.487 103.76 254.256 104.663 255.084 105.502C255.358 105.78 255.751 106.084 256.082 105.804C256.472 105.477 256.055 105.12 255.851 104.836C253.696 101.823 252.888 98.48 253.184 94.7966C253.294 93.4232 253.07 92.0486 251.03 92.4885C249.276 92.8671 249.322 91.1942 248.713 90.3326C246.156 86.7164 245.206 86.6237 241.921 89.5552C241.166 90.2281 240.339 90.8202 239.514 91.405C236.677 93.4174 235.929 96.3984 237.387 99.7078C237.685 100.386 238.417 101.137 237.609 101.823C236.864 102.456 236.236 101.656 235.527 101.413C232.253 100.295 231.02 97.5694 230.57 94.6367C229.899 90.2679 226.608 87.7425 224.256 84.5422C223.652 83.7204 222.751 83.5468 221.805 83.5305C220.623 83.5096 219.432 83.4051 218.262 83.5194C217.534 83.5905 216.841 83.4848 216.157 83.3353C214.992 83.0807 214.301 84.5768 215.251 85.2967C215.705 85.6401 216.197 85.9528 216.616 86.3248C217.371 86.9945 216.594 87.4005 216.374 87.9684C214.987 91.5617 211.527 92.4866 208.554 93.8514C206.695 94.7046 204.935 95.9944 202.76 96.1223C202.356 96.1458 201.955 96.3579 201.955 96.8188C201.955 97.4408 202.447 97.7411 202.971 97.7881C204.303 97.9082 205.476 97.1824 206.75 96.9793C208.524 96.6974 209.38 97.8997 208.589 99.5113C207.028 102.692 205.021 105.626 202.147 107.862C197.746 111.287 197.327 112.686 198.977 117.816C200.271 121.836 200.119 122.442 196.611 125.102C195.272 126.117 194.125 127.047 194.791 128.968C195.054 129.728 195.119 130.766 194.489 131.2C191.972 132.937 191.149 135.826 189.568 138.176C187.028 141.953 183.135 141.772 179.389 142.056C178.216 142.146 177.33 140.983 177.212 140.073C176.783 136.801 175.159 133.823 174.034 130.937C172.302 126.497 171.003 122.668 172.738 117.986C173.235 116.642 172.58 114.422 171.695 113.117C170.212 110.93 169.507 108.726 169.576 106.153C169.597 105.333 169.151 104.312 168.324 104.432C166.069 104.76 164.24 102.684 162.351 103.109C160.231 103.586 157.91 103.169 155.963 104.38C154.654 105.193 153.497 104.866 152.305 104.084C149.314 102.119 147.618 98.9049 145.008 96.5733C144.735 96.3286 144.569 95.8482 144.635 95.4872C145.532 90.5212 143.815 84.8105 148.505 80.9143C150.785 79.0201 151.685 76.1174 153.878 74.1761C154.799 73.3609 154.842 72.2571 153.442 71.7114C152.508 71.3472 151.535 70.8231 151.839 69.8159C152.345 68.1377 151.371 66.3688 152.222 64.8329C152.986 63.455 154.47 63.705 155.77 63.7742C159.644 63.9805 159.998 63.6835 159.31 59.7358C159.018 58.0635 159.417 57.2834 160.847 56.2495C162.505 55.0498 164.09 53.6549 165.776 52.465C168.488 50.5499 168.794 49.8058 166.858 46.8972C166.251 45.9873 165.858 45.0969 165.619 44.0722C164.954 41.2171 165.402 39.9887 168.099 38.7224C169.981 37.8392 171.392 36.6832 172.22 34.7518C173.657 31.3961 176.427 29.494 179.706 28.233C181.051 27.7153 182.457 27.3544 183.812 26.8577C186.225 25.9726 188.287 25.5633 190.475 27.8772C191.915 29.4 194.663 29.1657 196.57 30.4007C197.218 30.821 198.225 30.8935 198.631 31.4457C200.218 33.6043 201.382 34.7218 202.283 30.9875C202.49 30.1305 203.861 29.8446 204.601 30.7244C205.724 32.0619 206.736 31.7486 208.011 31.0129C210.15 29.7793 212.631 30.4046 214.934 29.9562C217.378 29.4803 215.775 28.4275 215.46 27.5195L215.504 27.4654C217.427 27.8589 219.34 28.3074 221.276 28.6233C222.3 28.7904 223.022 28.8152 223.34 27.2127C224.031 23.7343 225.594 23.0783 229.416 23.438C230.783 23.5666 232.106 23.3309 233.491 23.9426C234.291 24.2957 235.726 24.1403 235.948 22.72C236.258 20.7389 237.271 20.9942 238.764 21.4315C240.145 21.8355 242.03 22.5268 242.01 19.7416C242.005 19.0118 242.908 18.8787 243.542 18.7403C246.328 18.1332 248.926 16.8552 251.93 16.989C254.688 17.1117 255.432 15.2821 253.95 12.6549C254.762 12.0113 255.23 11.1216 255.667 10.2097ZM167.289 64.4563C164.382 64.9694 162.409 66.722 161.225 69.2474C160.646 70.4817 160.142 71.5887 158.862 72.1964C158.436 72.3988 157.571 72.2826 157.675 72.8387C157.757 73.2721 158.63 73.1814 159.097 73.0182C161.441 72.2016 163.774 71.4373 166.286 71.2193C167.658 71.0998 168.89 71.297 170.086 71.8439C171.262 72.3818 171.111 73.4927 171.176 74.5476C171.227 75.3674 171.869 76.0508 172.69 76.0932C175.321 76.2283 177.828 78.4574 180.615 76.5149C181.045 76.2153 181.98 76.2773 182.504 76.5338C185.403 77.9561 188.504 76.9692 191.483 77.3784C192.942 77.5788 193.461 76.1513 193.74 75.0926C194.082 73.7976 193.03 73.7714 192.021 73.7016C191.147 73.6409 190.241 72.9099 189.446 73.0456C186.711 73.513 185.506 72.3779 185.333 69.7539C185.298 69.2239 184.976 68.7187 184.317 68.8094C183.874 68.8707 183.912 69.357 183.744 69.6795C182.776 71.5424 180.268 71.8622 179.069 70.2774C178.705 69.797 178.673 68.5222 178.144 68.7872C175.421 70.1527 174.217 67.626 172.402 66.7487C171.211 66.1723 170.47 65.9609 170.35 67.6893C170.287 68.609 169.772 69.7702 168.734 69.4647C167.243 69.0261 168.566 67.9928 168.63 67.2128C168.729 66.0438 169.576 64.4876 167.289 64.4563ZM177.681 50.1367C179.496 50.2313 179.346 50.136 180.083 48.9748C181.815 46.2471 181.128 43.5506 180.224 40.834C179.97 40.0696 180.071 38.6577 178.67 39.1571C177.602 39.5376 176.934 40.7791 177.626 41.7184C179.964 44.8959 176.888 46.4298 175.63 48.3515C174.843 49.5531 173.262 50.7718 171.927 48.5022C171.732 48.17 171.282 47.9011 170.966 48.2144C170.739 48.4389 170.649 48.95 170.712 49.294C171.129 51.5485 172.906 51.0681 174.426 51.0721C175.597 51.0753 176.34 49.5662 177.681 50.1367ZM199.279 65.9987C198.725 63.8414 195.663 64.0281 195.21 61.553C195.107 60.9883 194.335 62.4198 193.786 62.8349C192.915 63.4922 192.037 63.6887 191.498 62.6078C191.057 61.7233 190.583 61.192 189.816 61.9994C188.939 62.9224 187.901 63.8754 188.07 65.3656C188.177 66.3127 188.906 66.8531 189.707 66.6789C192.22 66.1319 194.548 66.483 196.922 67.4165C197.916 67.8068 199.005 67.3381 199.279 65.9987ZM196.801 86.4756C195.979 86.6531 195.947 87.2504 195.904 87.9037C195.777 89.8084 197.148 90.9161 198.156 92.2131C198.613 92.8012 199.082 93.8528 199.838 93.531C200.929 93.0662 200.242 91.9957 200.035 91.1876C199.644 89.6524 198.512 88.5297 197.718 87.219C197.536 86.9175 197.143 86.7439 196.801 86.4756ZM0.151855 52.8037C3.43686 50.7907 6.76302 48.8658 10.4399 47.6256C10.909 47.4677 11.5609 47.1772 11.5099 46.6106C11.4511 45.9546 10.6588 46.2399 10.2433 45.9958C8.55086 45.001 6.79633 44.093 5.19204 42.971C3.2102 41.5846 3.3023 40.4371 5.34293 39.1949C5.7832 38.9267 6.3012 38.7876 6.78065 38.5814C7.33001 38.3444 8.44831 38.5076 8.22883 37.6976C8.03613 36.9861 7.08048 37.6584 6.46581 37.6238C5.94911 37.5951 5.39388 37.6245 4.92814 37.4424C4.02998 37.0912 3.23763 36.4221 3.39832 35.4013C3.60278 34.1017 4.75766 34.0012 5.84003 33.9888C6.3221 33.9829 7.0132 34.5475 7.22745 33.9444C7.42668 33.3843 6.60102 33.2949 6.18492 33.0253C3.07629 31.0084 3.08804 30.5149 6.21954 28.6984C7.01189 28.2388 7.75394 27.6742 8.58548 27.3067C10.9495 26.2624 13.171 25.6299 15.9609 26.6103C18.9846 27.6729 22.3852 27.6109 25.5749 28.2682C29.532 29.0835 33.2893 29.1024 37.3249 28.0776C41.201 27.0933 45.3561 27.8257 49.244 29.1918C49.7111 29.3557 50.3101 29.7682 50.6733 29.2264C51.0018 28.7362 50.6008 28.2042 50.1611 27.9086C49.5047 27.468 48.9044 27.0979 48.7378 26.184C48.549 25.1488 47.9363 24.9177 47.1374 25.7761C46.1903 26.7937 45.0504 26.7754 43.8877 26.2695C42.6975 25.7519 41.7876 24.9921 42.6113 23.5574C43.0725 22.7539 43.5774 22.0203 43.5219 21.0288C43.4435 19.6378 44.6604 19.3317 45.3542 19.7768C47.5862 21.2076 50.3845 20.4145 52.6518 22.1652C54.5161 23.6051 57.0904 24.0274 59.5498 22.5294C60.9692 21.6652 62.467 21.4739 62.1567 24.0241C62.0365 25.0143 62.369 26.0953 63.1032 26.4836C65.119 27.5496 66.8102 28.3713 63.9407 30.4568C63.339 30.8941 63.7865 31.7179 64.5351 31.93C65.4274 32.1826 66.707 32.3582 66.8096 31.2212C66.9298 29.8889 67.3922 29.1657 68.4328 28.3974C70.1305 27.1442 69.845 26.3792 67.6646 26.3564C65.8931 26.3374 65.2863 24.5033 63.9531 23.7728C65.5058 23.4935 66.1158 21.6325 67.79 21.5177C68.7013 21.455 69.604 21.2579 70.5087 21.109C71.7994 20.8969 72.6832 20.2546 72.8733 18.8695C72.97 18.1672 72.9191 17.5197 72.0888 17.3545C70.9045 17.1195 69.8633 16.4159 68.7947 18.1293C67.2858 20.5477 64.296 18.5236 62.2064 19.6313L61.6649 18.1985C61.9921 17.8513 62.0287 17.5047 61.6636 17.1581C61.932 15.7651 60.9202 14.5093 61.5963 12.9473C62.7303 10.3272 63.015 10.0596 65.3013 11.5074C65.9832 11.9395 66.8559 12.4264 66.5894 13.2652C66.2321 14.3866 65.2817 13.4362 64.6024 13.4819C63.7591 13.5387 62.9471 13.6144 62.938 14.6718C62.9288 15.7123 63.6977 15.897 64.5677 15.8918C65.4842 15.8865 66.4033 15.9766 67.3165 15.9277C69.0011 15.8376 69.9855 15.2664 68.6314 13.523C68.0422 12.7639 67.2858 11.9258 68.2571 11.1595C69.2682 10.3612 69.9698 11.5211 70.4597 12.1386C70.949 12.7554 72.665 12.7547 71.6492 14.4499C71.3416 14.9636 72.97 15.3141 73.8015 15.519C74.1993 15.617 74.5906 15.3741 74.6899 14.9309C74.8911 14.0308 74.4619 13.431 73.6925 13.023C73.5709 12.9607 73.4541 12.8896 73.343 12.8102C68.4831 9.24108 68.5412 8.12164 73.7597 5.05249C74.6625 4.52009 75.6408 4.12748 76.6613 3.88802C82.0033 2.61519 87.4779 2.24771 92.8995 1.61391C95.1655 1.3489 97.5661 2.12434 99.8902 2.51924C100.773 2.66937 102.317 3.0336 102.338 3.37758C102.402 4.37757 101.012 4.34101 100.391 4.97939C100.038 5.3423 99.38 5.60079 99.7308 6.21044C100.131 6.9056 101.018 6.93889 101.4 6.42584C103.681 3.37301 106.861 4.14519 109.99 3.95068C112.535 3.79272 115.106 3.45787 117.722 2.5584C120.603 1.56756 124.039 1.28036 127.275 1.02122C127.924 0.969656 128.758 1.3378 129.212 1.04929C133.127 -1.43892 136.401 2.26403 140.056 2.08779C140.492 2.0669 140.828 2.43503 140.688 2.87171C140.583 3.19808 140.245 3.66674 139.979 3.68828C138.153 3.83776 136.317 3.87692 134.486 3.97549C134.108 3.99572 133.736 4.11974 133.361 4.19611C133.583 4.83644 134.152 4.61778 134.566 4.61712C138.478 4.60799 142.383 5.1602 146.307 4.69023C147.26 4.576 148.642 4.44023 148.83 5.87298C148.977 7.00025 147.778 7.21369 146.998 7.64123C144.194 9.17906 141.068 10.5315 143.216 14.7286C143.484 15.2527 142.787 15.7371 142.799 16.1444C142.905 19.7638 139.739 22.5927 140.415 26.3661C140.605 27.4275 139.938 28.5345 138.858 28.8674C136.499 29.5946 134.665 31.6722 131.971 31.5045C131.716 31.4888 131.4 31.5064 131.203 31.6415C127.347 34.2773 122.211 35.5279 120.92 40.9645C120.429 43.0291 119.219 43.2869 117.374 42.7595C114.451 41.924 113.005 39.7015 111.537 37.302C110.016 34.8158 109.356 32.5651 111.686 30.2303C112.05 29.8661 112.024 29.4092 111.515 28.9333C110.353 27.8472 108.3 24.2885 107.991 23.1051C107.046 19.4746 103.429 16.5105 99.8445 17.4675C95.884 18.5249 94.4587 15.8905 92.4697 13.8056C91.661 12.9584 92.3698 12.3657 93.1007 12.0008C94.1465 11.478 95.3785 11.4813 96.3916 10.7587C97.2127 10.1732 97.2682 9.67318 96.8495 8.81158C96.4079 7.90232 95.8671 8.22216 95.2687 8.46171C91.7094 9.88598 88.5504 11.6307 87.3818 15.7684C86.9906 17.1555 85.8945 18.2873 85.5352 19.876C85.2262 21.2429 83.3528 20.9315 82.0895 21.1365C81.629 21.2115 80.8314 20.7762 80.7909 21.4132C80.7609 21.8858 81.7178 21.66 82.128 21.8956C84.9669 23.5235 88.4877 22.5327 91.3214 24.5829C93.5775 26.2154 96.2361 27.0711 97.3342 30.1402C97.8698 31.6383 99.9464 32.18 101.51 32.8367C102.241 33.1435 103.301 33.3804 102.503 34.3249C101.878 35.0645 101.581 36.8379 99.9091 35.9567C99.3461 35.6597 98.9267 35.0951 98.4296 34.6669C98.1409 34.4182 97.7496 34.086 97.4289 34.3667C97.0749 34.6761 97.4197 35.0612 97.666 35.3412C98.0122 35.7355 98.4355 36.069 98.7425 36.4887C99.303 37.255 100.771 37.9717 99.6224 39.0272C98.7556 39.8242 97.664 41.1068 96.1963 40.4188C93.3045 39.0644 90.7139 36.883 87.1715 37.5122C86.8357 37.5716 86.5059 37.1271 86.5 36.6996C86.4928 36.2211 86.8338 36.0253 87.2603 35.9913C87.9129 35.9391 88.6033 36.0344 89.2134 35.8529C90.8883 35.3543 91.9171 33.2858 91.3207 31.7949C90.6276 30.0632 86.4288 28.0495 84.4411 28.2774C83.0321 28.4392 83.9518 28.9934 83.8564 29.5919C83.588 31.2786 84.9329 33.9515 81.3403 34.0958C80.0645 34.1474 81.0744 35.1976 81.5885 35.6735C82.5226 36.5383 84.7076 36.6747 84.4515 37.9345C84.2079 39.1355 82.0777 37.3895 80.998 38.6127C80.5486 39.1218 79.7105 39.1747 79.1736 38.7367C77.0663 37.0187 75.7938 38.802 74.4482 39.8673C70.4453 43.0369 70.6106 44.7889 75.2576 47.0264C76.3086 47.5323 77.2773 48.2934 78.4021 48.5669C81.3324 49.2803 83.829 50.3717 84.5652 53.7215C84.6952 54.3116 85.4241 55.3807 86.3053 54.5544C86.79 54.0994 86.7933 53.3409 86.419 52.792C85.2713 51.108 85.4882 49.9905 87.4569 49.1295C88.3355 48.7457 88.0684 47.7346 87.7006 47.0329C87.0467 45.7862 87.2976 44.471 87.2375 43.1766C87.0846 39.8575 88.9502 38.6427 91.9413 40.2197C93.0785 40.8196 94.3869 41.5232 95.0238 42.5474C96.0924 44.266 96.9324 45.157 99.0005 43.8757C100.345 43.0428 101.301 44.3215 101.736 45.362C102.686 47.638 104.424 49.1041 106.193 50.6752C107.54 51.8716 109.671 52.946 108.403 55.5067C107.993 56.3337 108.919 56.5165 109.426 56.8585C110.308 57.4532 111.133 58.1118 111.329 59.2462C111.419 59.7677 111.082 60.6874 111.018 60.6378C109.574 59.521 107.85 60.5843 106.43 60.0151C105.473 59.6313 105.419 58.617 105.778 57.6274C106.328 56.1072 105.531 56.1464 104.397 56.4271C103.643 56.6137 102.812 56.7332 102.055 56.619C99.3258 56.2084 99.4793 57.1353 100.309 59.3102C101.045 61.2403 101.799 61.0895 103.172 60.3147C103.814 59.9525 104.49 60.0341 104.791 60.7867C105.076 61.5014 104.631 62.3376 104.085 62.4257C102.039 62.7573 100.368 65.2213 97.9364 63.489C97.2048 62.9681 95.9755 63.3636 95.8501 63.9452C95.3536 66.2533 93.4071 66.861 91.8015 67.9204C91.4984 68.1201 91.2769 68.5294 91.1443 68.8884C89.9627 72.0724 88.2741 74.7976 85.4744 76.9379C84.0518 78.0253 83.9596 79.9163 85.4196 81.4796C86.1361 82.2465 86.3386 83.3053 85.3732 83.8575C84.4169 84.4038 84.2823 83.0324 83.7082 82.6081C83.0961 82.1558 82.5788 81.4991 82.1908 80.8327C81.047 78.8693 79.2905 78.6578 77.4197 79.257C76.2746 79.6238 75.1687 79.9013 73.9753 79.9019C71.6264 79.9032 69.5295 79.787 70.0743 83.4606C70.2775 84.8307 68.3165 86.3698 70.1103 88.1192C71.4167 89.3926 72.597 89.9971 74.2451 88.969C74.801 88.6224 75.3209 88.2158 75.8833 87.8796C76.7025 87.3894 77.7215 87.0134 78.5027 87.4971C79.7014 88.2399 78.5275 89.174 78.2107 89.8182C77.1917 91.8946 77.3923 92.9703 80.0005 92.9487C81.3919 92.9376 82.1685 93.8671 82.2006 95.2339C82.2306 96.5146 81.6871 98.1249 83.326 98.6197C85.0355 99.1353 87.2055 99.3103 88.5393 98.245C91.4108 95.952 94.2399 96.4376 97.327 97.4043C98.1572 97.6641 99.0195 97.7868 99.8876 97.8436C104.895 98.1738 107.651 102.9 112.248 104.016C113.816 109.437 119.419 108.599 123.026 110.851C123.96 111.434 125.161 111.734 126.172 112.357C128.122 113.561 128.66 115.106 127.18 116.92C125.701 118.733 125.318 120.858 124.688 123.006C123.653 126.537 123.015 130.615 117.936 130.936C116.567 131.023 115.855 132.31 115.45 133.684C113.825 139.199 113.238 139.78 107.276 142.082C106.814 142.261 106.68 142.443 106.831 142.868C107.768 145.488 105.972 146.201 104.072 146.379C102.296 146.545 102.205 148.021 101.5 148.982C100.233 150.71 99.9379 153.063 98.0488 154.435C97.9312 154.52 98.0632 155.279 98.2885 155.452C99.51 156.389 98.9685 156.993 98.1918 157.968C95.6156 161.206 95.662 161.383 97.9756 164.751C98.3454 165.289 99.06 165.69 97.8992 166.08C94.7612 167.135 91.8152 165.677 90.6263 162.555C89.6988 160.12 89.6439 157.46 90.2919 155.183C91.6447 150.43 91.4474 145.491 92.5971 140.671C93.477 136.981 94.187 132.876 94.2458 128.859C94.283 126.346 93.2797 124.41 91.2874 123.234C89.0821 121.931 87.8463 120.1 87.0154 117.82C86.7946 117.214 86.3981 116.674 86.1192 116.086C85.383 114.536 82.4579 114.023 84.1367 111.279C85.0446 109.794 84.6455 107.635 86.3184 106.407C87.3956 105.618 87.4504 104.469 87.5125 103.248C87.5791 101.943 87.2643 101.405 85.8278 101.265C83.23 101.013 80.5068 100.733 79.8666 97.3416C79.7275 96.6047 78.8443 96.5237 78.2597 96.4056C75.2419 95.7927 72.8616 93.7907 69.3734 93.6635C66.4294 93.5564 62.4618 92.0636 60.9679 88.1453C60.3081 86.4149 59.57 85.1571 56.8402 85.7093C54.6076 86.1609 53.1587 83.3549 52.401 81.3216C51.2193 78.1526 49.5347 75.7192 46.8062 73.5371C43.857 71.1788 43.047 67.3042 43.1215 63.5386C43.1724 60.9655 43.3677 58.5302 40.5981 57.1301C40.0083 56.8318 39.7666 56.352 39.6849 55.5818C39.3603 52.527 39.1094 52.356 35.863 52.0981C34.8185 52.0152 34.8596 51.1288 34.4755 50.4826C32.1142 46.5127 29.1153 43.5735 24.1045 43.0324C22.2886 42.8359 21.1735 43.7719 19.7241 44.0519C18.1857 44.3489 16.3548 43.6322 17.366 46.4892C17.6645 47.3339 16.3404 48.6126 15.2574 48.2627C13.2775 47.6224 12.3343 48.6824 11.3192 49.9396C11.0775 50.2392 10.7692 50.7006 10.4772 50.7117C6.88974 50.8482 3.92416 53.2254 0.381786 53.4845L0.151855 52.8037ZM74.7285 23.4987C74.085 23.6071 73.4423 23.7337 72.9961 24.2683C72.4873 24.8779 72.6787 25.5176 73.1039 26.028C74.4809 27.6801 75.5045 29.7271 77.9403 30.2192C78.4132 30.3145 77.8175 31.7525 78.8372 31.5012C79.3349 31.3791 79.8477 30.6415 80.028 30.0782C80.2605 29.3517 79.5988 28.8452 78.9822 28.6931C76.869 28.1723 76.1231 26.6768 75.8964 24.7213C75.8187 24.0535 75.6149 23.4321 74.7285 23.4987Z" fill="#F74D57"/>
</mask>
<g mask="url(#mask0_979_387)">
<path d="M169 56.5C169 100.407 140.346 136 105 136C69.6538 136 41 100.407 41 56.5C41 12.5934 47.6538 -41 83 -41C157 14.5 169 12.5934 169 56.5Z" fill="#1F6115"/>
<path d="M109 72.5C109 116.407 80.3462 152 45 152C9.65377 152 -19 116.407 -19 72.5C-19 28.5934 -12.3462 -25 23 -25C97 30.5 109 28.5934 109 72.5Z" fill="#1F6115"/>
<path d="M309 24.5C309 68.4066 272.511 104 227.5 104C182.489 104 146 68.4066 146 24.5C146 -19.4066 154.473 -73 199.484 -73C293.719 -17.5 309 -19.4066 309 24.5Z" fill="#1F6115"/>
<path d="M343 49.8475C343 63.7388 334.493 75 324 75C313.507 75 305 63.7388 305 49.8475C305 35.9561 306.975 19 317.469 19C339.438 36.5593 343 35.9561 343 49.8475Z" fill="#941616"/>
<path d="M285 113.847C285 127.739 276.493 139 266 139C255.507 139 247 127.739 247 113.847C247 99.9561 248.975 83 259.469 83C281.438 100.559 285 99.9561 285 113.847Z" fill="#941616"/>
<path d="M118 158.847C118 172.739 109.493 184 99 184C88.5066 184 80 172.739 80 158.847C80 144.956 81.9753 128 92.4688 128C114.438 145.559 118 144.956 118 158.847Z" fill="#941616"/>
<path d="M132 151.847C132 165.739 112.748 177 89 177C65.2518 177 46 165.739 46 151.847C46 137.956 50.4705 121 74.2188 121C123.938 138.559 132 137.956 132 151.847Z" fill="#941616"/>
<path d="M270 42.4237C270 49.3694 265.075 55 259 55C252.925 55 248 49.3694 248 42.4237C248 35.478 249.144 27 255.219 27C267.938 35.7797 270 35.478 270 42.4237Z" fill="#941616"/>
<path d="M245 110.619C245 130.712 225.077 147 200.5 147C175.923 147 156 130.712 156 110.619C156 90.5258 160.626 66 185.203 66C236.656 91.3983 245 90.5258 245 110.619Z" fill="#1F6115"/>
</g>
</svg>
