<svg width="60" height="60" viewBox="0 0 60 60" fill="none" xmlns="http://www.w3.org/2000/svg">
<path d="M29.9998 19.3333C24.1065 19.3333 19.3332 24.1067 19.3332 30C19.3332 35.8933 24.1065 40.6667 29.9998 40.6667C35.8932 40.6667 40.6665 35.8933 40.6665 30C40.6665 24.1067 35.8932 19.3333 29.9998 19.3333ZM53.8398 27.3333C52.6132 16.2133 43.7865 7.38666 32.6665 6.15999V3.33332C32.6665 1.86666 31.4665 0.666656 29.9998 0.666656C28.5332 0.666656 27.3332 1.86666 27.3332 3.33332V6.15999C16.2132 7.38666 7.3865 16.2133 6.15984 27.3333H3.33317C1.8665 27.3333 0.666504 28.5333 0.666504 30C0.666504 31.4667 1.8665 32.6667 3.33317 32.6667H6.15984C7.3865 43.7867 16.2132 52.6133 27.3332 53.84V56.6667C27.3332 58.1333 28.5332 59.3333 29.9998 59.3333C31.4665 59.3333 32.6665 58.1333 32.6665 56.6667V53.84C43.7865 52.6133 52.6132 43.7867 53.8398 32.6667H56.6665C58.1332 32.6667 59.3332 31.4667 59.3332 30C59.3332 28.5333 58.1332 27.3333 56.6665 27.3333H53.8398ZM29.9998 48.6667C19.6798 48.6667 11.3332 40.32 11.3332 30C11.3332 19.68 19.6798 11.3333 29.9998 11.3333C40.3198 11.3333 48.6665 19.68 48.6665 30C48.6665 40.32 40.3198 48.6667 29.9998 48.6667Z" fill="#1F6115"/>
</svg>
