<svg width="555" height="350" viewBox="0 0 555 350" fill="none" xmlns="http://www.w3.org/2000/svg">
<path d="M302.699 55.5862C254.907 55.5845 208.186 68.614 168.442 93.0281C128.697 117.442 97.7126 152.145 79.4034 192.751C61.0943 233.358 56.2823 278.045 65.5756 321.166C74.8688 364.287 97.8502 403.906 131.616 435.017C137.277 440.236 140.453 447.31 140.445 454.683C140.436 462.055 137.244 469.123 131.57 474.331C125.897 479.538 118.206 482.46 110.191 482.452C102.175 482.444 94.4914 479.508 88.8297 474.289C60.7937 448.51 38.5634 417.897 23.4128 384.202C8.2621 350.507 0.488809 314.394 0.538321 277.931C0.538321 124.43 135.816 0 302.699 0C469.582 0 604.86 124.43 604.86 277.931C604.909 314.394 597.136 350.507 581.985 384.202C566.835 417.897 544.604 448.51 516.568 474.289C510.907 479.508 503.223 482.444 495.207 482.452C487.192 482.46 479.501 479.538 473.828 474.331C468.154 469.123 464.962 462.055 464.953 454.683C464.945 447.31 468.121 440.236 473.782 435.017C507.548 403.906 530.529 364.287 539.823 321.166C549.116 278.045 544.304 233.358 525.995 192.751C507.685 152.145 476.701 117.442 436.956 93.0281C397.212 68.614 350.492 55.5845 302.699 55.5862Z" fill="url(#paint0_linear_77_426)" fill-opacity="0.8"/>
<defs>
<linearGradient id="paint0_linear_77_426" x1="302.699" y1="0" x2="302.699" y2="482.452" gradientUnits="userSpaceOnUse">
<stop stop-color="white"/>
<stop offset="1" stop-color="white" stop-opacity="0"/>
</linearGradient>
</defs>
</svg>
