<svg width="363" height="239" viewBox="0 0 363 239" fill="none" xmlns="http://www.w3.org/2000/svg">
<path d="M60.8331 166.925C60.8289 148.64 65.7275 130.638 75.0951 114.511C84.4626 98.3845 98.0098 84.632 114.537 74.472C131.063 64.312 150.059 58.0582 169.841 56.2647C189.624 54.4711 209.581 57.1932 227.947 64.1897C246.312 71.1862 262.518 82.2411 275.128 96.3751C287.738 110.509 296.364 127.286 300.241 145.219C304.118 163.152 303.126 181.687 297.354 199.184C291.581 216.68 281.207 232.597 267.148 245.523C264.341 248.106 262.114 251.171 260.595 254.545C259.075 257.919 258.293 261.535 258.293 265.187C258.293 268.839 259.075 272.455 260.595 275.829C262.114 279.203 264.341 282.268 267.148 284.851C272.818 290.066 280.508 292.996 288.526 292.996C292.497 292.996 296.428 292.276 300.096 290.879C303.764 289.481 307.097 287.433 309.904 284.851C335.26 261.529 352.528 231.816 359.524 199.468C366.521 167.119 362.931 133.589 349.21 103.118C335.488 72.6457 312.251 46.601 282.437 28.2768C252.622 9.95267 217.57 0.17218 181.712 0.17218C145.855 0.17218 110.803 9.95267 80.9884 28.2768C51.1741 46.601 27.9369 72.6457 14.2153 103.118C0.49377 133.589 -3.0958 167.119 3.90054 199.468C10.8969 231.816 28.1649 261.529 53.5208 284.851C56.3282 287.431 59.6607 289.478 63.3279 290.873C66.9952 292.269 70.9255 292.987 74.8943 292.986C78.8631 292.984 82.7928 292.264 86.459 290.866C90.1252 289.468 93.4561 287.419 96.2615 284.837C99.0668 282.254 101.292 279.189 102.809 275.816C104.327 272.443 105.107 268.828 105.106 265.177C105.104 261.527 104.321 257.912 102.801 254.54C101.281 251.168 99.0537 248.104 96.2464 245.523C85.0008 235.217 76.0825 222.967 70.0048 209.477C63.9271 195.988 60.8101 181.526 60.8331 166.925Z" fill="url(#paint0_linear_77_428)" fill-opacity="0.8"/>
<defs>
<linearGradient id="paint0_linear_77_428" x1="181.713" y1="0.17218" x2="181.713" y2="292.996" gradientUnits="userSpaceOnUse">
<stop stop-color="white"/>
<stop offset="1" stop-color="white" stop-opacity="0"/>
</linearGradient>
</defs>
</svg>
