<svg width="313" height="160" viewBox="0 0 313 160" fill="none" xmlns="http://www.w3.org/2000/svg">
<g clip-path="url(#clip0_303_571)">
<path d="M96.2437 144.516C96.2437 136.052 122.876 129.102 155.701 129.102C188.526 129.102 215.158 136.052 215.158 144.585C215.147 145.551 214.834 146.489 214.263 147.269C209.309 154.495 184.948 160 155.701 160C122.876 160 96.2437 153.05 96.2437 144.516Z" fill="#CEEDA2"/>
<path d="M84.4093 133.987H27.1542C25.6869 133.991 24.261 134.474 23.094 135.364L1.07285 152.636C0.844685 152.811 0.67675 153.053 0.592457 153.328C0.508165 153.603 0.511715 153.897 0.602614 154.17C0.693513 154.442 0.86723 154.68 1.09955 154.849C1.33187 155.018 1.61122 155.111 1.89865 155.114H62.3881C63.9225 155.099 65.3956 154.51 66.5171 153.462L85.0286 135.57C85.1634 135.446 85.2576 135.283 85.2987 135.104C85.3398 134.925 85.3261 134.738 85.2592 134.567C85.1923 134.396 85.0754 134.25 84.9238 134.146C84.7721 134.043 84.5928 133.987 84.4093 133.987Z" fill="#CEEDA2"/>
<path d="M311.57 133.987H254.246C252.779 133.991 251.353 134.474 250.186 135.364L228.165 152.637C227.937 152.811 227.769 153.053 227.685 153.328C227.6 153.603 227.604 153.897 227.695 154.17C227.786 154.442 227.96 154.68 228.192 154.849C228.424 155.018 228.704 155.111 228.991 155.114H289.48C291.015 155.099 292.488 154.51 293.609 153.462L312.121 135.57C312.268 135.457 312.376 135.301 312.429 135.123C312.482 134.945 312.478 134.755 312.417 134.58C312.356 134.405 312.241 134.253 312.089 134.147C311.937 134.041 311.756 133.985 311.57 133.987Z" fill="#CEEDA2"/>
<path d="M96.2432 141.695C96.2432 133.231 122.875 126.28 155.7 126.28C188.526 126.28 215.158 133.231 215.158 141.764C215.146 142.73 214.833 143.668 214.263 144.448C209.308 151.673 184.947 157.179 155.7 157.179C122.875 157.179 96.2432 150.228 96.2432 141.695Z" fill="#6F9A31"/>
<path d="M214.263 144.448C209.308 151.674 185.016 157.179 155.7 157.179C122.875 157.179 96.2432 150.229 96.2432 141.695C96.2432 141.695 106.566 154.151 153.636 154.151C194.1 154.22 210.409 146.581 214.263 144.448Z" fill="#4D662A"/>
<path d="M189.558 138.117C187.287 135.639 172.974 133.712 155.701 133.712C137.671 133.712 122.944 135.777 121.637 138.392C122.256 136.878 126.385 131.648 155.701 131.648C182.677 131.648 188.388 136.327 189.558 138.117Z" fill="#4D662A"/>
<path d="M84.8897 133.987L72.8469 47.8295C72.7805 47.3858 72.5557 46.9811 72.2142 46.6902C71.8727 46.3993 71.4375 46.2417 70.9889 46.2467H54.7482C54.4807 46.2483 54.2165 46.3068 53.9732 46.4184C53.73 46.53 53.5133 46.692 53.3376 46.8938C53.1618 47.0956 53.031 47.3325 52.9539 47.5887C52.8768 47.845 52.855 48.1147 52.8902 48.38L56.9504 80.9301C56.9897 81.2324 56.9638 81.5397 56.8744 81.8312C56.7849 82.1227 56.634 82.3916 56.4319 82.6199C56.2297 82.8481 55.981 83.0304 55.7024 83.1543C55.4239 83.2783 55.122 83.3412 54.8171 83.3386H36.2367C35.675 83.3422 35.1334 83.13 34.7236 82.7459C34.3138 82.3617 34.0672 81.8349 34.0346 81.2741L32.5206 48.1047C32.4972 47.6259 32.2918 47.1741 31.9465 46.8416C31.6012 46.5091 31.1419 46.3209 30.6626 46.3155H15.4542C15.2029 46.3105 14.9533 46.3574 14.721 46.4533C14.4888 46.5493 14.2788 46.6922 14.1044 46.8731C13.9299 47.0541 13.7947 47.2691 13.7073 47.5047C13.6198 47.7403 13.582 47.9914 13.5962 48.2424L15.6607 104.947C15.7024 105.815 16.0752 106.634 16.7024 107.236C17.3296 107.837 18.1635 108.176 19.0326 108.181H60.3912L63.6255 134.125H84.8897V133.987Z" fill="#1D6923"/>
<path d="M312.052 133.987L300.01 47.8295C299.943 47.3858 299.718 46.9811 299.377 46.6902C299.035 46.3993 298.6 46.2417 298.152 46.2467H281.911C281.643 46.2483 281.379 46.3068 281.136 46.4184C280.893 46.53 280.676 46.692 280.5 46.8938C280.324 47.0956 280.194 47.3325 280.117 47.5887C280.039 47.845 280.018 48.1147 280.053 48.38L284.113 80.9301C284.152 81.2324 284.126 81.5397 284.037 81.8312C283.948 82.1227 283.797 82.3916 283.595 82.6199C283.392 82.8481 283.144 83.0304 282.865 83.1543C282.586 83.2783 282.285 83.3412 281.98 83.3386H263.399C262.838 83.3422 262.296 83.13 261.886 82.7459C261.476 82.3617 261.23 81.8349 261.197 81.2741L259.683 48.1047C259.66 47.6259 259.454 47.1741 259.109 46.8416C258.764 46.5091 258.305 46.3209 257.825 46.3155H242.686C242.434 46.3105 242.185 46.3574 241.952 46.4533C241.72 46.5493 241.51 46.6922 241.336 46.8731C241.161 47.0541 241.026 47.2691 240.939 47.5047C240.851 47.7403 240.813 47.9914 240.828 48.2424L242.892 104.947C242.934 105.815 243.307 106.634 243.934 107.236C244.561 107.837 245.395 108.176 246.264 108.181H287.623L290.857 134.125H312.052V133.987Z" fill="#1D6923"/>
<path d="M72.3655 48.7242L63.2817 151.673C63.2057 152.608 62.7818 153.48 62.0937 154.117C61.4056 154.754 60.5034 155.11 59.5657 155.114H45.9401C45.4101 155.114 44.8862 155.002 44.4029 154.784C43.9197 154.566 43.4882 154.249 43.1369 153.852C42.7856 153.455 42.5226 152.988 42.3652 152.482C42.2078 151.976 42.1597 151.442 42.224 150.916L47.9357 102.676L7.12774 103.364C6.60054 103.373 6.0779 103.265 5.5973 103.048C5.11671 102.832 4.69008 102.511 4.34802 102.11C4.00596 101.708 3.75695 101.236 3.61886 100.728C3.48076 100.219 3.45701 99.6856 3.54929 99.1664L3.68693 98.2718L13.0459 48.1048C13.1721 47.4298 13.5298 46.8198 14.0574 46.3802C14.585 45.9405 15.2494 45.6987 15.9362 45.6963H28.9425C29.3684 45.7033 29.7879 45.8018 30.1725 45.9849C30.5571 46.1681 30.898 46.4316 31.172 46.7578C31.446 47.084 31.6467 47.4652 31.7607 47.8757C31.8747 48.2861 31.8993 48.7163 31.8327 49.1371L26.2586 80.7925C26.2059 81.0913 26.22 81.398 26.3 81.6907C26.38 81.9833 26.5239 82.2546 26.7214 82.4849C26.9188 82.7153 27.1649 82.899 27.4419 83.0228C27.7188 83.1467 28.0198 83.2075 28.3231 83.2011H47.7981L52.34 48.036C52.4353 47.3719 52.7654 46.7638 53.2703 46.322C53.7752 45.8802 54.4217 45.6338 55.0926 45.6274H69.6128C69.997 45.6496 70.3731 45.7474 70.7195 45.9151C71.0659 46.0829 71.3758 46.3172 71.6314 46.6049C71.8871 46.8925 72.0836 47.2278 72.2095 47.5914C72.3355 47.9551 72.3885 48.34 72.3655 48.7242Z" fill="#6F9A31"/>
<path d="M48.211 98.272L47.8669 102.676L7.05889 103.364C6.53169 103.373 6.00905 103.265 5.52846 103.049C5.04786 102.832 4.62123 102.511 4.27917 102.11C3.93711 101.709 3.6881 101.237 3.55001 100.728C3.41191 100.219 3.38816 99.6857 3.48045 99.1666L3.61808 98.272H48.211Z" fill="#4D662A"/>
<path d="M72.3653 48.7242L63.2815 151.673C63.2055 152.608 62.7816 153.48 62.0935 154.117C61.4054 154.754 60.5032 155.11 59.5655 155.114H57.501L68.3051 45.6963H69.6126C69.9951 45.7053 70.3718 45.7918 70.7199 45.9507C71.068 46.1096 71.3802 46.3375 71.6375 46.6206C71.8949 46.9037 72.0921 47.2362 72.2172 47.5978C72.3423 47.9593 72.3927 48.3426 72.3653 48.7242Z" fill="#4D662A"/>
<path d="M26.1911 80.8614C26.1383 81.1602 26.1524 81.4669 26.2324 81.7596C26.3124 82.0522 26.4564 82.3235 26.6538 82.5538C26.8512 82.7842 27.0973 82.9679 27.3743 83.0917C27.6512 83.2155 27.9522 83.2764 28.2555 83.27H24.2642C23.9199 83.2722 23.5792 83.199 23.2662 83.0555C22.9532 82.912 22.6754 82.7017 22.4524 82.4393C22.2294 82.1769 22.0665 81.8689 21.9753 81.5368C21.8841 81.2048 21.8667 80.8568 21.9244 80.5173L28.0491 45.7651H28.9437C29.3696 45.7722 29.7891 45.8707 30.1737 46.0538C30.5584 46.2369 30.8992 46.5005 31.1732 46.8267C31.4472 47.1529 31.648 47.5341 31.762 47.9446C31.876 48.355 31.9005 48.7852 31.834 49.2059L26.1911 80.8614Z" fill="#4D662A"/>
<path d="M299.455 48.7242L290.372 151.673C290.296 152.608 289.872 153.48 289.184 154.117C288.495 154.754 287.593 155.11 286.656 155.114H273.03C272.5 155.114 271.976 155.002 271.493 154.784C271.01 154.566 270.578 154.249 270.227 153.852C269.875 153.455 269.612 152.988 269.455 152.482C269.298 151.976 269.25 151.442 269.314 150.916L275.026 102.676L234.218 103.364C233.69 103.373 233.168 103.265 232.687 103.048C232.207 102.832 231.78 102.511 231.438 102.11C231.096 101.708 230.847 101.236 230.709 100.728C230.571 100.219 230.547 99.6856 230.639 99.1664L230.777 98.2718L240.136 48.1048C240.262 47.4298 240.62 46.8198 241.147 46.3802C241.675 45.9405 242.339 45.6987 243.026 45.6963H256.032C256.458 45.7033 256.878 45.8018 257.262 45.9849C257.647 46.1681 257.988 46.4316 258.262 46.7578C258.536 47.084 258.737 47.4652 258.851 47.8757C258.965 48.2861 258.989 48.7163 258.923 49.1371L253.348 80.7925C253.296 81.0913 253.31 81.398 253.39 81.6907C253.47 81.9833 253.614 82.2546 253.811 82.4849C254.009 82.7153 254.255 82.899 254.532 83.0228C254.809 83.1467 255.11 83.2075 255.413 83.2011H274.888L279.43 48.036C279.525 47.3719 279.855 46.7638 280.36 46.322C280.865 45.8802 281.512 45.6338 282.182 45.6274H296.703C297.091 45.6375 297.473 45.7271 297.825 45.8908C298.177 46.0545 298.492 46.2887 298.75 46.579C299.008 46.8693 299.204 47.2095 299.325 47.5785C299.447 47.9475 299.491 48.3374 299.455 48.7242Z" fill="#6F9A31"/>
<path d="M275.37 98.272L275.026 102.676L234.218 103.364C233.69 103.373 233.168 103.265 232.687 103.049C232.207 102.832 231.78 102.511 231.438 102.11C231.096 101.709 230.847 101.237 230.709 100.728C230.571 100.219 230.547 99.6857 230.639 99.1666L230.777 98.272H275.37Z" fill="#4D662A"/>
<path d="M299.456 48.7243L290.372 151.673C290.296 152.608 289.872 153.48 289.184 154.117C288.496 154.754 287.594 155.11 286.656 155.114H284.592L295.396 45.6964H296.703C297.09 45.6933 297.472 45.7717 297.826 45.9265C298.18 46.0813 298.497 46.309 298.757 46.5948C299.017 46.8806 299.213 47.218 299.334 47.5849C299.454 47.9519 299.496 48.3401 299.456 48.7243Z" fill="#4D662A"/>
<path d="M253.348 80.8614C253.295 81.1602 253.309 81.4669 253.389 81.7596C253.469 82.0522 253.613 82.3235 253.811 82.5538C254.008 82.7842 254.254 82.9679 254.531 83.0917C254.808 83.2155 255.109 83.2764 255.412 83.27H251.421C251.077 83.2722 250.736 83.199 250.423 83.0555C250.11 82.912 249.832 82.7017 249.609 82.4393C249.386 82.1769 249.223 81.8689 249.132 81.5368C249.041 81.2048 249.023 80.8568 249.081 80.5173L255.206 45.7651H256.1C256.526 45.7722 256.946 45.8707 257.33 46.0538C257.715 46.2369 258.056 46.5005 258.33 46.8267C258.604 47.1529 258.805 47.5341 258.919 47.9446C259.033 48.355 259.057 48.7852 258.991 49.2059L253.348 80.8614Z" fill="#4D662A"/>
<path opacity="0.28" d="M128.52 69.711L114.413 141.28C113.656 145.134 116.133 148.781 119.505 148.781H194.24C197.543 148.781 200.02 145.271 199.401 141.555L187.84 69.9863C187.358 67.096 185.225 65.0315 182.678 65.0315H133.681C131.204 64.9627 129.071 66.9584 128.52 69.711Z" fill="#6F9A31"/>
<path d="M192.245 74.1861L199.058 96.8266C199.085 96.9409 199.136 97.048 199.209 97.1401C199.282 97.2323 199.374 97.3073 199.479 97.3598C199.584 97.4123 199.7 97.4411 199.817 97.4441C199.935 97.4471 200.051 97.4242 200.159 97.3771C200.344 97.305 200.497 97.1664 200.586 96.9884C200.675 96.8103 200.694 96.6054 200.641 96.4137L196.167 73.2226C196.097 72.9301 195.964 72.6563 195.777 72.42C195.591 72.1836 195.356 71.9902 195.088 71.853C194.82 71.7158 194.526 71.638 194.225 71.625C193.925 71.612 193.625 71.664 193.346 71.7775C192.903 71.9784 192.547 72.333 192.345 72.7757C192.142 73.2184 192.107 73.7193 192.245 74.1861Z" fill="#FEC272"/>
<path d="M179.376 82.3747L183.78 99.854C183.796 99.9275 183.827 99.9969 183.871 100.058C183.915 100.119 183.971 100.171 184.035 100.209C184.1 100.248 184.171 100.273 184.246 100.283C184.32 100.293 184.396 100.287 184.468 100.267C184.532 100.25 184.592 100.22 184.644 100.18C184.697 100.139 184.74 100.088 184.772 100.03C184.804 99.9725 184.824 99.9088 184.831 99.843C184.838 99.7773 184.832 99.7108 184.813 99.6475L181.991 81.8241C181.957 81.6232 181.877 81.4325 181.759 81.2662C181.641 81.0998 181.488 80.9621 181.309 80.863C181.131 80.764 180.933 80.7062 180.729 80.6939C180.526 80.6816 180.322 80.7151 180.133 80.7919C179.849 80.9345 179.621 81.1674 179.484 81.4539C179.347 81.7404 179.309 82.0643 179.376 82.3747Z" fill="#FEC272"/>
<path d="M121.984 76.3882L116.272 93.7987C116.251 93.8755 116.214 93.9468 116.163 94.0075C116.111 94.0682 116.047 94.1167 115.975 94.1496C115.902 94.1825 115.824 94.199 115.744 94.1978C115.665 94.1966 115.586 94.1778 115.515 94.1428C115.386 94.0862 115.282 93.9864 115.219 93.8607C115.156 93.7351 115.139 93.5915 115.171 93.4546L119.3 75.6312C119.353 75.4345 119.446 75.2512 119.575 75.0934C119.704 74.9356 119.864 74.8069 120.047 74.7159C120.229 74.6248 120.428 74.5734 120.631 74.5652C120.835 74.5569 121.038 74.5919 121.227 74.6678C121.542 74.8112 121.794 75.066 121.934 75.3834C122.074 75.7008 122.091 76.0586 121.984 76.3882Z" fill="#FEC272"/>
<path d="M133.338 81.755L125.906 114.099C125.89 114.172 125.859 114.242 125.815 114.303C125.771 114.364 125.716 114.415 125.651 114.454C125.587 114.493 125.515 114.518 125.44 114.528C125.366 114.538 125.29 114.532 125.218 114.512C125.154 114.495 125.094 114.465 125.042 114.424C124.99 114.384 124.946 114.333 124.914 114.275C124.882 114.217 124.862 114.153 124.855 114.088C124.848 114.022 124.854 113.955 124.874 113.892L130.723 81.2045C130.757 81.0035 130.837 80.8129 130.955 80.6465C131.073 80.4802 131.226 80.3425 131.405 80.2434C131.583 80.1444 131.781 80.0866 131.985 80.0743C132.188 80.062 132.392 80.0954 132.581 80.1723C132.889 80.2848 133.141 80.5135 133.282 80.8093C133.424 81.1052 133.444 81.4446 133.338 81.755Z" fill="#FEC272"/>
<path d="M149.097 85.5379L145.519 109.004C145.509 109.081 145.482 109.154 145.44 109.219C145.398 109.284 145.342 109.338 145.275 109.378C145.209 109.418 145.135 109.442 145.058 109.449C144.981 109.456 144.903 109.445 144.831 109.417C144.702 109.375 144.592 109.291 144.517 109.179C144.442 109.067 144.407 108.932 144.418 108.798L146.345 85.125C146.375 84.9274 146.448 84.7386 146.558 84.5719C146.668 84.4052 146.814 84.2645 146.984 84.1597C147.154 84.0549 147.345 83.9885 147.544 83.9651C147.743 83.9416 147.944 83.9617 148.134 84.024C148.297 84.06 148.451 84.1277 148.587 84.2233C148.724 84.3189 148.84 84.4405 148.93 84.5811C149.019 84.7218 149.08 84.8787 149.109 85.0428C149.138 85.207 149.134 85.3753 149.097 85.5379Z" fill="#FEC272"/>
<path d="M167.54 85.0593L168.434 122.289C168.433 122.367 168.416 122.444 168.383 122.514C168.351 122.585 168.304 122.648 168.246 122.7C168.188 122.752 168.119 122.791 168.045 122.815C167.971 122.839 167.893 122.847 167.815 122.839C167.684 122.816 167.565 122.749 167.477 122.649C167.39 122.549 167.339 122.422 167.333 122.289L164.787 85.0593C164.782 84.8588 164.821 84.6596 164.901 84.4759C164.982 84.2923 165.102 84.1288 165.253 83.9972C165.405 83.8657 165.583 83.7692 165.776 83.7149C165.969 83.6605 166.172 83.6496 166.37 83.6829C166.691 83.7472 166.982 83.918 167.194 84.1678C167.406 84.4175 167.528 84.7316 167.54 85.0593Z" fill="#FEC272"/>
<path d="M96.039 51.2703C95.3461 50.4582 94.7672 49.5552 94.3186 48.5865L92.7358 37.9888L96.3831 41.3608L96.039 51.2703Z" fill="#1D6923"/>
<path d="M198.713 54.8491C196.781 58.5165 194.349 61.8978 191.487 64.8963C185.294 71.5026 174.834 79.0036 159.281 79.0036C148.339 79.0036 140.219 75.3563 134.439 70.9521C128.998 66.8366 124.65 61.4491 121.776 55.262L198.713 54.8491Z" fill="#1D6923"/>
<path d="M198.713 54.8491C196.781 58.5165 194.349 61.8978 191.487 64.8963C185.051 67.3062 178.352 68.9462 171.53 69.7822C155.565 71.9155 143.109 71.7779 134.439 70.9521C128.998 66.8366 124.65 61.4491 121.776 55.262L198.713 54.8491Z" fill="#072359"/>
<path d="M222.936 37.5761C222.568 40.8484 221.97 44.0907 221.147 47.2792C220.914 48.1581 220.542 48.9944 220.046 49.7566C218.601 52.0963 215.848 54.6425 211.375 57.0511C210.618 57.464 209.724 57.8769 208.829 58.2898C208.141 58.6339 207.453 58.9091 206.696 59.2532C205.663 59.6661 204.631 60.079 203.53 60.4919C199.032 62.024 194.433 63.2426 189.767 64.1392C189.354 64.208 189.01 64.2768 188.597 64.3456C187.565 64.5521 186.326 64.6897 185.019 64.8273C179.513 65.4467 172.219 65.8596 164.443 65.9972C162.997 65.9972 161.552 66.066 160.107 66.066C152.744 66.1348 145.312 65.9284 138.843 65.5843C137.467 65.5155 136.09 65.4467 134.852 65.309C131.666 65.1067 128.495 64.716 125.355 64.1392C121.845 63.451 118.68 62.694 115.858 61.8682C114.688 61.5242 113.587 61.1801 112.486 60.836C103.953 58.0145 98.7919 54.5737 96.1081 51.4082C95.7207 50.9835 95.375 50.5226 95.0759 50.0319C94.7934 49.6261 94.5623 49.1869 94.3877 48.7243C94.1665 48.2891 94.0045 47.8262 93.906 47.348C93.3189 44.9925 92.8821 42.6021 92.5985 40.1911C92.3232 37.9202 92.2544 36.4062 92.2544 36.4062L157.63 41.2922L223.005 37.6449L222.936 37.5761Z" fill="#CEEDA2"/>
<path d="M222.867 37.4386C222.749 38.1436 222.412 38.7935 221.904 39.2967C220.184 41.2923 216.055 44.2514 209.035 46.9353C208.141 47.2793 207.177 47.6234 206.145 47.9675C205.663 48.1051 205.182 48.3116 204.7 48.4492C203.668 48.7933 202.567 49.1374 201.397 49.4126C196.9 50.6731 192.325 51.6386 187.702 52.3029C186.464 52.5094 185.156 52.7158 183.78 52.8534C177.319 53.6719 170.817 54.1313 164.305 54.2298C162.929 54.2298 161.483 54.2986 160.038 54.2986H159.969C152.606 54.2986 145.793 53.9545 139.669 53.404C138.292 53.2663 136.916 53.1287 135.609 52.9911C129.586 52.328 123.611 51.2938 117.716 49.8943C116.546 49.6191 115.377 49.275 114.276 48.9997C104.022 46.1783 97.2779 42.6686 94.1812 39.7784C93.6397 39.2832 93.155 38.7292 92.736 38.1268C92.3611 37.6287 92.1453 37.0291 92.1167 36.4064C92.1167 31.5204 111.385 21.1292 160.314 21.1292C209.242 21.0604 222.867 34.0666 222.867 37.4386Z" fill="#1D6923"/>
<path d="M132.099 26.7033L96.3147 41.3612C94.9492 40.4108 93.7218 39.2761 92.6675 37.9892L130.929 26.084L132.099 26.7033Z" fill="#072359"/>
<path d="M222.868 37.5075C222.73 38.1859 222.395 38.8084 221.905 39.2967L185.157 26.7034L186.327 26.1528L222.868 37.5075Z" fill="#072359"/>
<path d="M138.155 30.4882L117.716 49.8256C116.546 49.5503 115.376 49.2063 114.275 48.931L136.916 30.4194L138.155 30.4882Z" fill="#072359"/>
<path d="M149.372 32.7592L139.669 53.4041C138.293 53.2665 136.916 53.1288 135.609 52.9912L148.133 32.6904L149.372 32.7592Z" fill="#072359"/>
<path d="M187.771 52.3719C186.533 52.5783 185.156 52.7848 183.849 52.9224L174.352 32.7592L175.66 32.6904L187.771 52.3719Z" fill="#072359"/>
<path d="M164.305 54.2988C162.928 54.2988 161.483 54.3676 160.038 54.3676H159.969L161.621 34.0669L162.928 33.998L164.305 54.2988Z" fill="#072359"/>
<path d="M208.966 46.9353C208.072 47.2794 207.108 47.6235 206.076 47.9676L181.371 30.4882L182.679 30.4194L208.966 46.9353Z" fill="#072359"/>
<path d="M164.374 65.8599C162.929 65.8599 161.484 65.9287 160.039 65.9287V54.2988L164.305 54.23L164.374 65.8599Z" fill="#1D6923"/>
<path d="M188.459 64.2079C187.358 64.4144 186.188 64.552 184.881 64.6896L183.78 52.8533L187.702 52.3027L188.459 64.2079Z" fill="#1D6923"/>
<path d="M211.306 56.9822C210.549 57.3951 209.655 57.808 208.76 58.2209L206.145 47.8985L208.966 46.9351L211.306 56.9822Z" fill="#1D6923"/>
<path d="M139.668 53.4041L138.842 65.4469C137.466 65.3781 136.09 65.3093 134.851 65.1717L135.677 52.9912L139.668 53.4041Z" fill="#1D6923"/>
<path d="M117.716 49.8258L115.789 61.731C114.62 61.3869 113.519 61.0428 112.417 60.6987L114.207 48.9312L117.716 49.8258Z" fill="#1D6923"/>
<path d="M96.383 41.4989L95.0067 49.9633C94.7242 49.5575 94.4931 49.1184 94.3185 48.6558C94.0973 48.2205 93.9353 47.7577 93.8368 47.2795C93.2497 44.924 92.813 42.5335 92.5293 40.1226L92.7357 38.0581C92.7357 38.0581 93.9056 39.4344 94.3873 39.9161C94.8002 40.329 96.383 41.4989 96.383 41.4989Z" fill="#1D6923"/>
<path d="M157.079 42.2556C177.336 42.2556 193.758 37.6033 193.758 31.8644C193.758 26.1255 177.336 21.4731 157.079 21.4731C136.822 21.4731 120.4 26.1255 120.4 31.8644C120.4 37.6033 136.822 42.2556 157.079 42.2556Z" fill="#072359"/>
<path d="M190.593 30.2127C190.593 30.2127 187.909 33.2406 181.303 35.8556C176.417 37.7824 169.397 39.434 159.763 39.434C155.146 39.4645 150.537 39.0497 146 38.1953C133.131 35.718 127.557 30.3503 127.557 30.3503C127.557 30.3503 130.379 9.43017 147.996 2.3421C152.072 0.745309 156.418 -0.0491578 160.795 0.00235362C185.019 0.00235362 190.593 30.2127 190.593 30.2127Z" fill="#CEEDA2"/>
<path d="M146 38.1955C133.131 35.7181 127.557 30.3505 127.557 30.3505C127.557 30.3505 130.379 9.43035 147.996 2.34229C144.555 5.23256 141.183 11.0131 140.632 20.4409C140.082 27.4602 141.733 33.3096 146 38.1955Z" fill="#CEEDA2"/>
<path d="M190.593 30.2127C190.593 30.2127 187.909 33.2406 181.303 35.8556C180.614 33.3624 179.74 30.9241 178.688 28.5611C178.688 28.5611 172.219 29.9374 169.329 23.8128C166.438 17.6881 173.389 13.2839 173.389 13.2839C173.389 13.2839 171.737 7.98503 163.204 4.54422C154.671 1.10341 147.858 2.3421 147.858 2.3421C151.934 0.745309 156.28 -0.0491577 160.658 0.00235362C185.019 0.00235362 190.593 30.2127 190.593 30.2127Z" fill="#CEEDA2"/>
<path d="M162.86 17.2752C163.886 17.2752 164.718 16.4742 164.718 15.486C164.718 14.4978 163.886 13.6968 162.86 13.6968C161.833 13.6968 161.001 14.4978 161.001 15.486C161.001 16.4742 161.833 17.2752 162.86 17.2752Z" fill="#CEEDA2"/>
<path d="M156.391 18.9958C157.189 18.9958 157.836 18.3796 157.836 17.6195C157.836 16.8594 157.189 16.2432 156.391 16.2432C155.593 16.2432 154.946 16.8594 154.946 17.6195C154.946 18.3796 155.593 18.9958 156.391 18.9958Z" fill="#CEEDA2"/>
<path d="M160.726 28.2856C162.285 28.2856 163.548 27.0532 163.548 25.5329C163.548 24.0127 162.285 22.7803 160.726 22.7803C159.168 22.7803 157.905 24.0127 157.905 25.5329C157.905 27.0532 159.168 28.2856 160.726 28.2856Z" fill="#CEEDA2"/>
</g>
<defs>
<clipPath id="clip0_303_571">
<rect width="311.935" height="160" fill="white" transform="translate(0.532715)"/>
</clipPath>
</defs>
</svg>
