<svg width="60" height="60" viewBox="0 0 60 60" fill="none" xmlns="http://www.w3.org/2000/svg">
<path d="M0.77832 57.5518C0.77832 58.5625 1.59624 59.3804 2.60689 59.3804H57.3925C58.4032 59.3804 59.2211 58.5625 59.2211 57.5518C59.2211 56.5412 58.4032 55.7233 57.3925 55.7233H47.8549C47.8814 55.5987 47.93 55.4826 47.93 55.3501C47.93 51.3215 44.7747 48.0447 40.8979 48.0447C39.8675 48.0447 38.8748 48.2715 37.964 48.7072C35.896 47.1679 33.08 46.7823 30.7373 47.6894C30.5462 47.4195 30.3324 47.1712 30.1082 46.9337C30.1591 46.7922 30.2189 46.6537 30.2337 46.4985C30.2373 46.4842 30.239 46.4681 30.2408 46.452C30.4195 45.4699 30.58 44.4878 30.7069 43.5218C30.7336 43.4217 30.7534 43.3217 30.7641 43.22C30.7731 43.1718 30.7945 43.0701 30.7998 43.0469C30.8106 42.988 30.8177 42.9147 30.823 42.8415C30.8342 42.7638 30.8419 42.6854 30.8527 42.6073C32.0716 42.9973 33.3172 43.1879 34.5498 43.1879C39.2641 43.186 43.7713 40.4558 45.7784 35.8915C45.9748 35.4468 45.9855 34.9432 45.8087 34.4915C45.6319 34.0399 45.2837 33.6755 44.839 33.4809C40.1789 31.4408 35.0278 32.4739 31.5729 35.7399C31.702 33.8444 31.7699 31.9434 31.7836 30.0412C32.0326 29.7107 32.2175 29.3706 32.3442 29.0433C36.6256 31.1092 43.0395 25.8 41.221 21.7576C45.7588 20.2921 45.7575 12.4781 41.2174 11.0184C43.0393 7.00739 36.675 1.63212 32.3442 3.72547C30.7347 -0.414054 21.8767 -0.415334 20.2621 3.72364C15.946 1.6398 9.57594 7.01086 11.3963 11.018C6.85631 12.4777 6.85338 20.2958 11.3945 21.7572C9.51359 25.9384 16.0981 31.0511 20.2623 29.0448C20.8087 30.4519 22.3033 32.1073 26.307 32.1073C26.9779 32.1073 27.5548 32.0467 28.0922 31.9626C27.9915 35.4451 27.6958 38.9443 27.1909 42.4019C27.1873 42.4233 27.1838 42.4484 27.182 42.4769C27.1677 42.5413 27.1516 42.6216 27.1392 42.7144C27.1178 42.7912 27.1035 42.868 27.0927 42.9467C27.0075 43.6168 26.8865 44.3007 26.7709 44.9824C26.2662 44.8605 25.7436 44.7932 25.209 44.7932C22.0214 44.7932 19.3339 47.0593 18.5661 50.12C15.7733 50.3807 13.5143 52.7272 13.3214 55.6735C13.3203 55.6909 13.3287 55.7061 13.3282 55.7235H2.60726C1.59624 55.7233 0.77832 56.5412 0.77832 57.5518ZM41.3569 36.2197C39.4319 38.6912 36.2639 39.9268 33.1658 39.4161C35.0999 36.8983 38.2498 35.6858 41.3569 36.2197ZM23.139 22.8662C20.7695 21.6897 20.0061 25.8912 18.0764 25.8912C16.7202 25.8912 14.7086 23.959 14.7086 23.3323C14.7086 22.8587 17.1131 21.586 17.5354 21.3681C19.4148 20.3973 18.3988 17.5164 16.3194 17.9538C12.8575 18.6815 11.6783 18.7688 11.6783 16.3841C11.6783 14.0498 12.737 14.084 16.3122 14.8163C17.1908 14.995 18.0962 14.4985 18.4015 13.6394C18.7087 12.7822 18.3372 11.8288 17.53 11.4055C17.1247 11.1932 14.7086 9.89872 14.7086 9.43939C14.7086 8.77525 17.4467 5.91097 19.0746 7.28222C20.5567 8.53753 21.2327 10.8503 23.139 9.90366C25.0698 8.94896 23.6141 7.0926 23.6141 5.34832C23.6141 3.96227 28.9908 3.95678 28.9908 5.34832C28.9908 7.05822 27.5621 8.96798 29.4801 9.90549C31.8724 11.0855 32.6011 6.87683 34.5337 6.87683C35.8896 6.87683 37.9053 8.80816 37.9053 9.43939C37.9053 9.90403 35.4926 11.1888 35.0803 11.4036C33.2126 12.3788 34.2236 15.2336 36.2947 14.8161C39.7408 14.1094 40.9358 13.9978 40.9358 16.3839C40.9358 21.0477 35.4065 15.7979 34.2053 19.125C33.2667 21.7398 37.9053 22.1511 37.9053 23.3321C37.9053 23.9637 35.8938 25.891 34.5337 25.891C33.5191 25.891 32.413 24.3174 31.773 23.4375C30.5806 21.7941 27.9844 23.0518 28.5337 25.0071C28.8712 26.2054 28.9908 27.0571 28.9908 27.4214C28.9908 28.3499 27.114 28.4499 26.3068 28.4499C20.4448 28.4501 26.3474 24.4487 23.139 22.8662ZM19.0856 53.7519C19.2767 53.7519 19.4499 53.7769 19.591 53.825C20.1892 54.0304 20.8606 53.943 21.3499 53.5392C21.8393 53.1355 22.0892 52.541 22.0016 51.9125C22.0016 50.0037 23.4409 48.4499 25.2088 48.4499C26.5712 48.4499 27.7856 49.3785 28.2301 50.7624C28.4122 51.3285 28.8588 51.7695 29.4265 51.948C29.998 52.1267 30.614 52.014 31.0838 51.6516C32.6856 50.423 35.0141 50.6676 36.3998 52.2051C37.0444 52.9248 38.1426 53.0122 38.8998 52.4104C39.4802 51.9462 40.1712 51.7015 40.8981 51.7015C42.7588 51.7015 44.2731 53.3372 44.2731 55.3497C44.2731 55.4823 44.3217 55.5984 44.3486 55.7229H17.0177C17.1793 54.6082 18.04 53.7519 19.0856 53.7519Z" fill="#1F6115"/>
</svg>
