<svg width="24" height="24" viewBox="0 0 24 24" fill="none" xmlns="http://www.w3.org/2000/svg">
<g clip-path="url(#clip0_298_24)">
<path d="M11.2236 15.7767C11.2236 15.212 10.7648 14.7179 10.1648 14.7179H6.95306C7.05894 14.4708 7.12953 14.1179 7.20012 13.6943C7.55306 13.7649 7.906 13.7296 8.29424 13.5885C8.71776 13.412 9.07071 13.1296 9.38835 12.812C9.95306 12.9532 12.2119 12.6708 12.3531 10.8708C12.3884 10.3414 13.2354 10.059 13.2354 10.059C13.3766 10.0238 13.4472 9.88258 13.4825 9.77669C13.5178 9.67081 13.4119 9.49434 13.306 9.42375C12.6707 9.03552 12.0001 8.85905 11.3648 8.85905C9.77659 8.85905 8.71777 10.059 8.68247 11.9296C8.68247 12.1061 8.71776 12.2826 8.82365 12.4238C8.40012 12.8473 7.83541 13.1649 7.23541 13.0238C7.23541 12.4238 7.16482 11.7179 6.95306 10.9414C6.77659 10.3767 6.706 9.77669 6.67071 9.21199C6.95306 9.17669 7.23541 9.07081 7.41188 8.85905C10.1295 6.00022 8.89424 2.75317 5.29424 1.80022C5.15306 1.76493 5.01188 1.80022 4.94129 1.90611C4.87071 2.01199 4.83541 2.15317 4.906 2.29434C4.906 2.29434 5.54129 3.60022 4.94129 4.27081C3.84718 5.50611 4.09424 7.12964 5.61188 8.85905C5.71776 8.96493 5.82365 9.03552 5.92953 9.10611C5.96482 9.77669 6.07071 10.4826 6.24718 11.1532C6.42365 11.7885 6.49424 12.3532 6.49424 12.8473C5.89424 12.9885 5.36482 12.6708 4.94129 12.2473C5.04718 12.1061 5.08247 11.9296 5.08247 11.7532C5.04718 9.88258 3.98835 8.68258 2.40012 8.68258C1.76482 8.68258 1.09424 8.89434 0.458941 9.24728C0.353059 9.31787 0.282471 9.45905 0.282471 9.60022C0.282471 9.7414 0.388353 9.84728 0.52953 9.88258C0.741294 9.95317 1.41188 10.2708 1.41188 10.6943C1.48247 11.859 2.47071 12.6002 4.05894 12.6708C4.05894 12.6708 4.09424 12.6708 4.12953 12.6708C4.20012 12.6708 4.306 12.6708 4.37659 12.6355C4.94129 13.2355 5.64718 13.659 6.45894 13.5532C6.38835 14.1179 6.24718 14.5414 6.14129 14.7532H2.61188C2.04718 14.7532 1.55306 15.212 1.55306 15.812C1.55306 16.3061 1.906 16.7649 2.40012 16.8355L3.38835 23.3649C3.42365 23.5414 3.56482 23.6826 3.74129 23.6826C3.81188 23.6826 9.24718 23.6826 9.03541 23.6826C9.21188 23.6826 9.35306 23.5414 9.38835 23.3649L10.3766 16.8355C10.8707 16.7296 11.2236 16.3061 11.2236 15.7767ZM11.4001 9.56493C11.7178 9.56493 12.0354 9.63552 12.3531 9.7414C12.0354 9.98846 11.6825 10.3414 11.6472 10.8355C11.5766 11.7179 10.7648 12.0355 9.95306 12.1414C10.3413 11.5767 10.5884 11.0473 10.5884 11.012C10.6589 10.8355 10.5884 10.6238 10.4119 10.5532C10.2354 10.4826 10.0236 10.5532 9.95306 10.7296C9.95306 10.7296 9.74129 11.1885 9.42365 11.7179C9.52953 10.3767 10.2707 9.56493 11.4001 9.56493ZM2.18835 10.6238C2.15306 10.1296 1.80012 9.7414 1.48247 9.52964C1.80012 9.42375 2.15306 9.35316 2.43541 9.35316C3.56482 9.35316 4.306 10.1649 4.41188 11.5061C4.05894 11.012 3.88247 10.5532 3.88247 10.5532C3.81188 10.3767 3.60012 10.3061 3.42365 10.3767C3.24718 10.4473 3.17659 10.659 3.24718 10.8355C3.28247 10.8708 3.49424 11.4002 3.88247 11.9649C3.07071 11.859 2.25894 11.5414 2.18835 10.6238ZM5.506 4.69434C6.03541 4.09434 5.96482 3.24728 5.82365 2.68258C8.36482 3.67081 9.106 6.10611 6.95306 8.36493C6.88247 8.43552 6.77659 8.47081 6.706 8.50611C6.706 6.98846 7.02365 5.78846 7.02365 5.78846C7.12953 5.32964 6.45894 5.15316 6.35306 5.61199C6.31777 5.68258 6.07071 6.7414 6.03541 8.11787C5.18835 7.12964 4.55306 5.82375 5.506 4.69434ZM2.25894 15.7767C2.25894 15.6002 2.40012 15.4238 2.61188 15.4238H10.1648C10.3413 15.4238 10.5178 15.5649 10.5178 15.7767C10.5178 15.9885 10.3766 16.1296 10.1648 16.1296C6.77659 16.1296 6.00012 16.1296 2.61188 16.1296C2.43541 16.1296 2.25894 15.9885 2.25894 15.7767ZM3.14129 16.8355H4.87071L5.15306 22.9414H4.05894L3.14129 16.8355ZM5.85894 22.9414L5.54129 16.8355H7.20012L6.95306 22.9414H5.85894ZM8.75306 22.9414H7.65894L7.97659 16.8355H9.706L8.75306 22.9414ZM22.3766 18.2473C22.4119 17.859 22.3766 17.8943 22.3766 15.2473C22.3766 15.0355 22.2354 14.8943 22.0236 14.8943C21.1766 14.8943 20.506 14.7532 19.9413 14.4708C20.0119 14.0826 20.0825 13.6943 20.0825 13.3414C20.0825 13.1649 19.9413 12.9885 19.6942 12.9885V4.05905L20.7178 3.07081C21.2119 2.61199 21.1413 2.11787 21.1413 1.62375C21.1413 0.917871 20.5413 0.317871 19.7648 0.317871H17.6472C16.906 0.317871 16.2707 0.882577 16.2707 1.62375C16.2707 2.08258 16.2001 2.57669 16.6942 3.03552L17.7178 4.05905V12.9532C17.4354 12.9532 17.3295 13.1296 17.3295 13.3061C17.3295 13.6238 17.3648 13.9767 17.4707 14.3649C16.906 14.6473 16.2354 14.7885 15.3884 14.859C15.2119 14.859 15.0707 15.0355 15.0707 15.212V17.8238C15.0707 18.3179 15.1413 18.812 15.2825 19.3061C14.4001 19.7649 14.3295 20.2238 13.1648 20.3649C11.8942 20.5414 11.6472 20.4708 11.1531 21.2473L11.1178 21.2826C10.8354 21.7414 10.4825 22.1296 10.0942 22.4473C9.95306 22.5532 9.91777 22.7296 10.0236 22.9061C10.0942 23.0473 10.2707 23.1179 10.4472 23.0473C10.9413 22.8708 11.6825 23.4355 12.4589 23.3296C13.0236 23.259 13.3766 22.9061 13.7648 22.8355C13.906 22.8002 14.0119 22.8002 14.2942 22.8002C14.6825 22.8002 15.0354 22.7296 15.2825 22.7649C15.6354 22.8708 15.9884 23.2943 16.5178 23.4708C17.7531 23.8943 18.8472 22.5532 19.4472 22.659C19.6589 22.6943 20.506 23.4002 22.0236 23.4708C22.7295 23.5061 23.1178 23.259 23.1884 22.5532C23.1884 22.1296 24.6354 19.7649 22.3766 18.2473ZM19.3766 13.6943C19.306 14.4355 18.9531 15.5649 18.706 16.3061C18.4942 15.6002 18.106 14.4002 18.0354 13.6943C18.3531 13.6943 19.3766 13.6943 19.3766 13.6943ZM18.3178 3.70611L17.1884 2.57669C16.9413 2.32964 16.9766 2.04728 16.9766 1.65905C16.9766 1.30611 17.2942 1.05905 17.6472 1.05905H19.8001C20.1531 1.05905 20.4707 1.30611 20.4707 1.65905C20.4707 2.04728 20.5413 2.32964 20.2589 2.57669L19.1295 3.67081C19.0589 3.7414 19.0236 3.81199 19.0236 3.91787V13.0238H18.4589V3.95317C18.4236 3.84728 18.3884 3.77669 18.3178 3.70611ZM15.7413 17.859V15.6002C16.4825 15.5296 17.0825 15.3885 17.6119 15.1414C17.8236 15.9885 18.2472 17.259 18.3531 17.6473C18.4589 17.9649 18.9178 17.9649 19.0236 17.6473C19.1648 17.2238 19.5531 15.9885 19.7648 15.212C20.2942 15.459 20.9295 15.6002 21.6707 15.6355V17.8238C21.4236 17.8238 21.2119 18.0002 21.106 18.0708C20.6472 18.5296 20.8236 18.1767 20.2236 18.0355C19.6589 17.8943 18.9178 18.3532 18.4589 18.6708C17.0119 19.6238 17.0825 19.059 16.0942 19.0943C16.0589 19.0943 16.0236 19.0943 15.9531 19.0943C15.8119 18.7061 15.7413 18.2826 15.7413 17.859ZM22.5178 22.2002C22.306 22.6943 22.6236 22.9414 21.9884 22.9061C19.5884 22.7649 20.1531 21.3885 18.106 22.5532C16.9766 23.1885 16.7295 23.012 16.2001 22.6238C15.2825 21.9532 15.0707 22.2002 14.2589 22.2002C13.6589 22.2002 13.5531 22.2002 12.8825 22.5179C12.0707 22.9061 12.106 22.7296 11.1178 22.4826C11.9295 21.5296 11.6825 21.3885 12.3178 21.2826C13.8707 21.0708 13.9766 21.1061 14.9648 20.4002C16.8707 19.0238 16.4472 20.859 18.7766 19.3061C20.4707 18.1767 19.906 19.1649 20.8589 19.059C21.2472 19.0238 21.4589 18.7061 21.6001 18.6002C21.8825 18.9885 23.7531 19.3767 22.5178 22.2002Z" fill="white"/>
</g>
<defs>
<clipPath id="clip0_298_24">
<rect width="24" height="24" fill="white"/>
</clipPath>
</defs>
</svg>
