<svg width="24" height="24" viewBox="0 0 24 24" fill="none" xmlns="http://www.w3.org/2000/svg">
<path d="M22.5116 9.72787L20.5867 9.30075C20.4367 8.82075 20.2402 8.36137 20.0149 7.91965L21.0562 6.18452C21.4451 5.56315 21.6416 4.6489 21.0562 4.06315L19.995 3.00265C19.4096 2.4169 18.4211 2.52227 17.8241 2.93627L16.1359 4.01175C15.6978 3.7845 15.24 3.58987 14.7641 3.43613L14.3321 1.488C14.2031 0.773648 13.5784 0 12.75 0H11.25C10.4216 0 9.91385 0.78525 9.74998 1.5L9.26885 3.42488C8.76073 3.58688 8.27285 3.79387 7.80785 4.03912L6.07723 2.937C5.4806 2.523 4.49173 2.41762 3.90635 3.00338L2.84548 4.06388C2.25973 4.65 2.45623 5.56387 2.84548 6.18525L3.94123 8.0115C3.73575 8.4255 3.55348 8.85375 3.41285 9.30112L1.48835 9.72825C0.773602 9.85687 0 10.4816 0 11.31V12.81C0 13.6384 0.78525 14.1461 1.5 14.31L3.44887 14.7971C3.58352 15.2104 3.75187 15.6071 3.94237 15.9919L2.8455 17.82C2.45665 18.441 2.26015 19.3552 2.8455 19.941L3.90675 21.0015C4.49213 21.5876 5.48063 21.4819 6.07763 21.0682L7.812 19.9631C8.27962 20.2099 8.77012 20.4187 9.28162 20.5804L9.7616 22.5C9.92585 23.2148 10.4332 24 11.2616 24H12.7616C13.59 24 14.2147 23.2264 14.3437 22.5116L14.7765 20.5583C15.2475 20.406 15.6994 20.214 16.1321 19.9897L17.8241 21.0679C18.4211 21.4819 19.41 21.5872 19.995 21.0011L21.0563 19.9406C21.6416 19.3545 21.4451 18.4406 21.0563 17.8196L20.0141 16.0823C20.2238 15.6705 20.4053 15.2423 20.5511 14.7968L22.5 14.31C23.2148 14.1457 24 13.6384 24 12.81V11.31C24 10.4816 23.2267 9.85687 22.5116 9.72787ZM22.5007 12.7042C22.437 12.75 22.3169 12.8129 22.1647 12.8481L19.3837 13.5426L19.1257 14.3309C19.0091 14.686 18.8583 15.0464 18.6776 15.4022L18.3011 16.1421L19.7703 18.592C19.8641 18.742 19.908 18.8762 19.9211 18.9554L18.9345 19.9405C18.8392 19.9105 18.7308 19.8715 18.6787 19.8359L16.2097 18.2613L15.4421 18.6584C15.0723 18.8504 14.6928 19.0094 14.3148 19.1317L13.4973 19.396L12.8793 22.1879C12.8508 22.3372 12.7709 22.4575 12.7162 22.5007H11.3662C11.3205 22.4369 11.2578 22.3169 11.2229 22.165L10.5326 19.4039L9.73348 19.1504C9.3217 19.0206 8.9111 18.8478 8.51135 18.637L7.73998 18.2298L5.2706 19.8036C5.16973 19.8719 5.06173 19.9105 4.96385 19.9105L3.98023 18.9532C3.99335 18.8756 4.03423 18.7473 4.11598 18.6164L5.6501 16.0604L5.28523 15.3258C5.11498 14.9793 4.97998 14.6542 4.87498 14.3321L4.61735 13.5431L1.8637 12.8545C1.69045 12.8152 1.5652 12.7507 1.49995 12.7045V11.3099L1.50335 11.3107C1.52848 11.3107 1.65185 11.2229 1.7546 11.2042L4.58398 10.5775L4.84383 9.75063C4.94958 9.41388 5.09395 9.06288 5.28483 8.67778L5.6497 7.94278L4.13173 5.41341C4.0376 5.26266 3.9941 5.12841 3.98098 5.04966L4.96723 4.06376C5.06285 4.09451 5.17048 4.13313 5.22223 4.16876L7.73735 5.77188L8.50798 5.36538C8.9036 5.15691 9.31273 4.98478 9.72448 4.85391L10.5217 4.60003L11.2057 1.8633C11.2455 1.69008 11.3092 1.56483 11.3557 1.49955H12.75C12.7399 1.51495 12.8362 1.6458 12.8561 1.7542L13.4861 4.5997L14.3029 4.8637C14.6857 4.98745 15.0705 5.1487 15.4447 5.34295L16.2124 5.74158L18.63 4.20145C18.7312 4.13243 18.8396 4.0942 18.9367 4.0942L19.9211 5.05083C19.908 5.12883 19.8667 5.25745 19.785 5.3887L18.3004 7.86108L18.6791 8.60208C18.8835 9.00183 19.0395 9.37683 19.1554 9.74883L19.4145 10.5772L22.1869 11.1926C22.3545 11.2237 22.485 11.3205 22.5128 11.373L22.5007 12.7042ZM12.0101 7.49236C9.51933 7.49236 7.49283 9.51473 7.49283 11.9999C7.49283 14.4846 9.51933 16.507 12.0101 16.507C14.5008 16.507 16.5273 14.4846 16.5273 11.9999C16.5273 9.51473 14.5008 7.49236 12.0101 7.49236ZM12 14.9999C10.3458 14.9999 8.99995 13.654 8.99995 11.9999C8.99995 10.3454 10.3458 8.99986 12 8.99986C13.6545 8.99986 15 10.3454 15 11.9999C15 13.654 13.6541 14.9999 12 14.9999Z" fill="#F8F8F8"/>
</svg>
