<svg width="32" height="32" viewBox="0 0 32 32" fill="none" xmlns="http://www.w3.org/2000/svg">
<path d="M30.7648 7.26198L19.2218 0.746985C17.6508 -0.140015 14.9508 -0.141015 13.3768 0.746985L1.83382 7.26198C0.95082 7.76098 0.46582 8.45898 0.46582 9.22898C0.46582 9.99899 0.95182 10.697 1.83382 11.195L13.3768 17.711C14.1628 18.155 15.2008 18.399 16.2988 18.399C17.3978 18.399 18.4358 18.154 19.2218 17.711L30.7648 11.195C31.6478 10.697 32.1338 9.99899 32.1338 9.22898C32.1338 8.45898 31.6468 7.76098 30.7648 7.26198ZM30.2388 10.265L18.6958 16.781C17.4578 17.48 15.1398 17.481 13.9018 16.781L2.35882 10.265C1.83482 9.96898 1.53482 9.59098 1.53482 9.22898C1.53482 8.86598 1.83482 8.48899 2.35882 8.19199L13.9018 1.67598C14.5208 1.32598 15.3948 1.12599 16.2978 1.12599C17.2018 1.12599 18.0758 1.32699 18.6948 1.67598L30.2378 8.19199C30.7618 8.48799 31.0628 8.86598 31.0628 9.22898C31.0638 9.59098 30.7638 9.96898 30.2388 10.265Z" fill="#1F6115"/>
<path d="M30.7648 14.099C30.6424 14.0408 30.5024 14.0312 30.3731 14.0721C30.2438 14.113 30.1349 14.2014 30.0682 14.3195C30.0015 14.4375 29.982 14.5765 30.0137 14.7083C30.0453 14.8402 30.1258 14.9551 30.2388 15.03C30.7628 15.326 31.0638 15.704 31.0638 16.066C31.0638 16.428 30.7628 16.806 30.2388 17.102L18.6958 23.618C17.3978 24.351 15.2018 24.352 13.9018 23.618L2.35884 17.102C1.83484 16.806 1.53484 16.428 1.53484 16.066C1.53484 15.704 1.83484 15.326 2.35884 15.03C2.41997 14.9954 2.4737 14.9492 2.51696 14.8939C2.56022 14.8386 2.59217 14.7753 2.61097 14.7077C2.62978 14.64 2.63507 14.5693 2.62656 14.4996C2.61804 14.4299 2.59588 14.3626 2.56134 14.3015C2.52681 14.2403 2.48057 14.1866 2.42526 14.1434C2.36996 14.1001 2.30668 14.0682 2.23903 14.0493C2.17139 14.0305 2.1007 14.0252 2.031 14.0338C1.96131 14.0423 1.89397 14.0644 1.83284 14.099C0.949844 14.597 0.464844 15.296 0.464844 16.066C0.464844 16.836 0.949844 17.535 1.83284 18.033L13.3758 24.549C14.1948 25.011 15.2468 25.243 16.2978 25.243C17.3498 25.243 18.4018 25.012 19.2208 24.549L30.7638 18.033C31.6468 17.535 32.1328 16.836 32.1328 16.066C32.1328 15.296 31.6468 14.597 30.7648 14.099Z" fill="#1F6115"/>
<path d="M30.7648 20.804C30.6423 20.7458 30.5024 20.7362 30.3731 20.7771C30.2438 20.818 30.1349 20.9064 30.0682 21.0245C30.0015 21.1425 29.982 21.2815 30.0136 21.4133C30.0453 21.5452 30.1258 21.6601 30.2388 21.735C30.7628 22.031 31.0638 22.409 31.0638 22.771C31.0638 23.133 30.7628 23.511 30.2388 23.808L18.6958 30.324C17.3978 31.057 15.2018 31.058 13.9018 30.324L2.35882 23.807C1.83482 23.511 1.53482 23.133 1.53482 22.77C1.53482 22.408 1.83482 22.03 2.35882 21.734C2.41995 21.6994 2.47368 21.6532 2.51694 21.5979C2.5602 21.5426 2.59214 21.4793 2.61095 21.4117C2.62975 21.344 2.63505 21.2733 2.62653 21.2036C2.61802 21.1339 2.59586 21.0666 2.56132 21.0055C2.52678 20.9444 2.48054 20.8906 2.42524 20.8474C2.36994 20.8041 2.30666 20.7722 2.23901 20.7534C2.17136 20.7346 2.10067 20.7293 2.03098 20.7378C1.96129 20.7463 1.89395 20.7684 1.83282 20.803C0.95182 21.302 0.46582 22 0.46582 22.771C0.46582 23.542 0.95082 24.24 1.83382 24.738L13.3768 31.254C14.1958 31.716 15.2478 31.948 16.2988 31.948C17.3508 31.948 18.4028 31.717 19.2218 31.254L30.7648 24.738C31.6478 24.239 32.1338 23.541 32.1338 22.771C32.1338 22.001 31.6468 21.302 30.7648 20.804Z" fill="#1F6115"/>
</svg>
