<svg width="112" height="17" viewBox="0 0 112 17" fill="none" xmlns="http://www.w3.org/2000/svg">
<path d="M8 0.5L9.79611 6.02786H15.6085L10.9062 9.44427L12.7023 14.9721L8 11.5557L3.29772 14.9721L5.09383 9.44427L0.391548 6.02786H6.20389L8 0.5Z" fill="#FFBE40"/>
<path d="M32 0.5L33.7961 6.02786H39.6085L34.9062 9.44427L36.7023 14.9721L32 11.5557L27.2977 14.9721L29.0938 9.44427L24.3915 6.02786H30.2039L32 0.5Z" fill="#FFBE40"/>
<path d="M56 0.5L57.7961 6.02786H63.6085L58.9062 9.44427L60.7023 14.9721L56 11.5557L51.2977 14.9721L53.0938 9.44427L48.3915 6.02786H54.2039L56 0.5Z" fill="#FFBE40"/>
<path d="M80 0.5L81.7961 6.02786H87.6085L82.9062 9.44427L84.7023 14.9721L80 11.5557L75.2977 14.9721L77.0938 9.44427L72.3915 6.02786H78.2039L80 0.5Z" fill="#FFBE40"/>
<path d="M104 0.5L105.796 6.02786H111.608L106.906 9.44427L108.702 14.9721L104 11.5557L99.2977 14.9721L101.094 9.44427L96.3915 6.02786H102.204L104 0.5Z" fill="#FFBE40"/>
</svg>
