<svg width="72" height="64" viewBox="0 0 72 64" fill="none" xmlns="http://www.w3.org/2000/svg">
<path d="M22.777 3.55893C25.1678 0.767433 28.4959 1.14439 30.6617 3.41533L31.9838 4.89212C32.2094 5.1285 32.486 5.31018 32.7926 5.42328C33.0991 5.53639 33.4275 5.57792 33.7525 5.5447L36.0431 4.81818C39.1694 4.08738 42.0641 6.37786 42.1303 10.0129L42.1553 11.3842C42.2344 12.1288 42.8976 12.6243 43.5773 12.9423L45.6731 13.7727C48.7094 15.1877 49.5252 18.6603 47.3871 21.6288L46.7787 22.4603C46.2347 23.2272 46.3665 24.2159 46.9358 24.9625L47.575 25.8238C49.8939 28.5711 48.6841 32.4219 45.5065 33.8166L43.7311 34.5972C43.0604 34.8916 42.8045 35.3798 42.693 36.1038L42.6109 38.4442C42.5465 39.0989 42.3524 39.7343 42.0399 40.3134C41.7274 40.8924 41.3029 41.4034 40.791 41.8167C40.279 42.2301 39.69 42.5374 39.0581 42.7208C38.4263 42.9042 37.7642 42.96 37.1106 42.8851L34.3699 42.2064C33.7121 42.1265 32.9025 42.3579 32.4797 43.0504L31.52 44.4134C29.1292 47.2092 25.8249 46.8144 24.1355 45.2327L22.2802 43.0677C21.795 42.6171 21.1908 42.2342 20.4761 42.5186L17.7471 43.3187C15.4849 43.6815 12.7849 41.987 12.3174 39.7464L11.941 36.4977C11.8713 36.165 11.7236 35.8537 11.5099 35.5894C11.2963 35.3251 11.0228 35.1154 10.7122 34.9776L8.77544 34.35C5.85509 33.0532 4.82671 29.8055 6.43926 27.0479L7.49672 25.5255C7.70397 25.1714 7.80523 24.7652 7.78845 24.3551C7.77168 23.9451 7.63758 23.5486 7.40208 23.2125L6.572 22.0834C4.22045 18.8619 5.73749 15.1849 9.11419 14.0295L9.85781 13.7753C10.6797 13.4934 11.4655 12.7943 11.5197 11.9269L11.6477 9.82421C11.8568 6.40734 14.9334 4.39316 18.2235 5.32871L19.2901 5.6309C20.3188 6.01036 21.1131 5.65677 21.6576 5.04082L22.777 3.55893Z" fill="url(#paint0_linear_381_83)"/>
<path d="M22.777 3.55893C25.1678 0.767433 28.4959 1.14439 30.6617 3.41533L31.9838 4.89212C32.2094 5.1285 32.486 5.31018 32.7926 5.42328C33.0991 5.53639 33.4275 5.57792 33.7525 5.5447L36.0431 4.81818C39.1694 4.08738 42.0641 6.37786 42.1303 10.0129L42.1553 11.3842C42.2344 12.1288 42.8976 12.6243 43.5773 12.9423L45.6731 13.7727C48.7094 15.1877 49.5252 18.6603 47.3871 21.6288L46.7787 22.4603C46.2347 23.2272 46.3665 24.2159 46.9358 24.9625L47.575 25.8238C49.8939 28.5711 48.6841 32.4219 45.5065 33.8166L43.7311 34.5972C43.0604 34.8916 42.8045 35.3798 42.693 36.1038L42.6109 38.4442C42.5465 39.0989 42.3524 39.7343 42.0399 40.3134C41.7274 40.8924 41.3029 41.4034 40.791 41.8167C40.279 42.2301 39.69 42.5374 39.0581 42.7208C38.4263 42.9042 37.7642 42.96 37.1106 42.8851L34.3699 42.2064C33.7121 42.1265 32.9025 42.3579 32.4797 43.0504L31.52 44.4134C29.1292 47.2092 25.8249 46.8144 24.1355 45.2327L22.2802 43.0677C21.795 42.6171 21.1908 42.2342 20.4761 42.5186L17.7471 43.3187C15.4849 43.6815 12.7849 41.987 12.3174 39.7464L11.941 36.4977C11.8713 36.165 11.7236 35.8537 11.5099 35.5894C11.2963 35.3251 11.0228 35.1154 10.7122 34.9776L8.77544 34.35C5.85509 33.0532 4.82671 29.8055 6.43926 27.0479L7.49672 25.5255C7.70397 25.1714 7.80523 24.7652 7.78845 24.3551C7.77168 23.9451 7.63758 23.5486 7.40208 23.2125L6.572 22.0834C4.22045 18.8619 5.73749 15.1849 9.11419 14.0295L9.85781 13.7753C10.6797 13.4934 11.4655 12.7943 11.5197 11.9269L11.6477 9.82421C11.8568 6.40734 14.9334 4.39316 18.2235 5.32871L19.2901 5.6309C20.3188 6.01036 21.1131 5.65677 21.6576 5.04082L22.777 3.55893Z" fill="url(#paint1_radial_381_83)"/>
<path d="M22.777 3.55893C25.1678 0.767433 28.4959 1.14439 30.6617 3.41533L31.9838 4.89212C32.2094 5.1285 32.486 5.31018 32.7926 5.42328C33.0991 5.53639 33.4275 5.57792 33.7525 5.5447L36.0431 4.81818C39.1694 4.08738 42.0641 6.37786 42.1303 10.0129L42.1553 11.3842C42.2344 12.1288 42.8976 12.6243 43.5773 12.9423L45.6731 13.7727C48.7094 15.1877 49.5252 18.6603 47.3871 21.6288L46.7787 22.4603C46.2347 23.2272 46.3665 24.2159 46.9358 24.9625L47.575 25.8238C49.8939 28.5711 48.6841 32.4219 45.5065 33.8166L43.7311 34.5972C43.0604 34.8916 42.8045 35.3798 42.693 36.1038L42.6109 38.4442C42.5465 39.0989 42.3524 39.7343 42.0399 40.3134C41.7274 40.8924 41.3029 41.4034 40.791 41.8167C40.279 42.2301 39.69 42.5374 39.0581 42.7208C38.4263 42.9042 37.7642 42.96 37.1106 42.8851L34.3699 42.2064C33.7121 42.1265 32.9025 42.3579 32.4797 43.0504L31.52 44.4134C29.1292 47.2092 25.8249 46.8144 24.1355 45.2327L22.2802 43.0677C21.795 42.6171 21.1908 42.2342 20.4761 42.5186L17.7471 43.3187C15.4849 43.6815 12.7849 41.987 12.3174 39.7464L11.941 36.4977C11.8713 36.165 11.7236 35.8537 11.5099 35.5894C11.2963 35.3251 11.0228 35.1154 10.7122 34.9776L8.77544 34.35C5.85509 33.0532 4.82671 29.8055 6.43926 27.0479L7.49672 25.5255C7.70397 25.1714 7.80523 24.7652 7.78845 24.3551C7.77168 23.9451 7.63758 23.5486 7.40208 23.2125L6.572 22.0834C4.22045 18.8619 5.73749 15.1849 9.11419 14.0295L9.85781 13.7753C10.6797 13.4934 11.4655 12.7943 11.5197 11.9269L11.6477 9.82421C11.8568 6.40734 14.9334 4.39316 18.2235 5.32871L19.2901 5.6309C20.3188 6.01036 21.1131 5.65677 21.6576 5.04082L22.777 3.55893Z" fill="url(#paint2_radial_381_83)"/>
<path d="M22.777 3.55893C25.1678 0.767433 28.4959 1.14439 30.6617 3.41533L31.9838 4.89212C32.2094 5.1285 32.486 5.31018 32.7926 5.42328C33.0991 5.53639 33.4275 5.57792 33.7525 5.5447L36.0431 4.81818C39.1694 4.08738 42.0641 6.37786 42.1303 10.0129L42.1553 11.3842C42.2344 12.1288 42.8976 12.6243 43.5773 12.9423L45.6731 13.7727C48.7094 15.1877 49.5252 18.6603 47.3871 21.6288L46.7787 22.4603C46.2347 23.2272 46.3665 24.2159 46.9358 24.9625L47.575 25.8238C49.8939 28.5711 48.6841 32.4219 45.5065 33.8166L43.7311 34.5972C43.0604 34.8916 42.8045 35.3798 42.693 36.1038L42.6109 38.4442C42.5465 39.0989 42.3524 39.7343 42.0399 40.3134C41.7274 40.8924 41.3029 41.4034 40.791 41.8167C40.279 42.2301 39.69 42.5374 39.0581 42.7208C38.4263 42.9042 37.7642 42.96 37.1106 42.8851L34.3699 42.2064C33.7121 42.1265 32.9025 42.3579 32.4797 43.0504L31.52 44.4134C29.1292 47.2092 25.8249 46.8144 24.1355 45.2327L22.2802 43.0677C21.795 42.6171 21.1908 42.2342 20.4761 42.5186L17.7471 43.3187C15.4849 43.6815 12.7849 41.987 12.3174 39.7464L11.941 36.4977C11.8713 36.165 11.7236 35.8537 11.5099 35.5894C11.2963 35.3251 11.0228 35.1154 10.7122 34.9776L8.77544 34.35C5.85509 33.0532 4.82671 29.8055 6.43926 27.0479L7.49672 25.5255C7.70397 25.1714 7.80523 24.7652 7.78845 24.3551C7.77168 23.9451 7.63758 23.5486 7.40208 23.2125L6.572 22.0834C4.22045 18.8619 5.73749 15.1849 9.11419 14.0295L9.85781 13.7753C10.6797 13.4934 11.4655 12.7943 11.5197 11.9269L11.6477 9.82421C11.8568 6.40734 14.9334 4.39316 18.2235 5.32871L19.2901 5.6309C20.3188 6.01036 21.1131 5.65677 21.6576 5.04082L22.777 3.55893Z" fill="url(#paint3_radial_381_83)"/>
<path d="M22.777 3.55893C25.1678 0.767433 28.4959 1.14439 30.6617 3.41533L31.9838 4.89212C32.2094 5.1285 32.486 5.31018 32.7926 5.42328C33.0991 5.53639 33.4275 5.57792 33.7525 5.5447L36.0431 4.81818C39.1694 4.08738 42.0641 6.37786 42.1303 10.0129L42.1553 11.3842C42.2344 12.1288 42.8976 12.6243 43.5773 12.9423L45.6731 13.7727C48.7094 15.1877 49.5252 18.6603 47.3871 21.6288L46.7787 22.4603C46.2347 23.2272 46.3665 24.2159 46.9358 24.9625L47.575 25.8238C49.8939 28.5711 48.6841 32.4219 45.5065 33.8166L43.7311 34.5972C43.0604 34.8916 42.8045 35.3798 42.693 36.1038L42.6109 38.4442C42.5465 39.0989 42.3524 39.7343 42.0399 40.3134C41.7274 40.8924 41.3029 41.4034 40.791 41.8167C40.279 42.2301 39.69 42.5374 39.0581 42.7208C38.4263 42.9042 37.7642 42.96 37.1106 42.8851L34.3699 42.2064C33.7121 42.1265 32.9025 42.3579 32.4797 43.0504L31.52 44.4134C29.1292 47.2092 25.8249 46.8144 24.1355 45.2327L22.2802 43.0677C21.795 42.6171 21.1908 42.2342 20.4761 42.5186L17.7471 43.3187C15.4849 43.6815 12.7849 41.987 12.3174 39.7464L11.941 36.4977C11.8713 36.165 11.7236 35.8537 11.5099 35.5894C11.2963 35.3251 11.0228 35.1154 10.7122 34.9776L8.77544 34.35C5.85509 33.0532 4.82671 29.8055 6.43926 27.0479L7.49672 25.5255C7.70397 25.1714 7.80523 24.7652 7.78845 24.3551C7.77168 23.9451 7.63758 23.5486 7.40208 23.2125L6.572 22.0834C4.22045 18.8619 5.73749 15.1849 9.11419 14.0295L9.85781 13.7753C10.6797 13.4934 11.4655 12.7943 11.5197 11.9269L11.6477 9.82421C11.8568 6.40734 14.9334 4.39316 18.2235 5.32871L19.2901 5.6309C20.3188 6.01036 21.1131 5.65677 21.6576 5.04082L22.777 3.55893Z" fill="url(#paint4_radial_381_83)"/>
<path d="M22.777 3.55893C25.1678 0.767433 28.4959 1.14439 30.6617 3.41533L31.9838 4.89212C32.2094 5.1285 32.486 5.31018 32.7926 5.42328C33.0991 5.53639 33.4275 5.57792 33.7525 5.5447L36.0431 4.81818C39.1694 4.08738 42.0641 6.37786 42.1303 10.0129L42.1553 11.3842C42.2344 12.1288 42.8976 12.6243 43.5773 12.9423L45.6731 13.7727C48.7094 15.1877 49.5252 18.6603 47.3871 21.6288L46.7787 22.4603C46.2347 23.2272 46.3665 24.2159 46.9358 24.9625L47.575 25.8238C49.8939 28.5711 48.6841 32.4219 45.5065 33.8166L43.7311 34.5972C43.0604 34.8916 42.8045 35.3798 42.693 36.1038L42.6109 38.4442C42.5465 39.0989 42.3524 39.7343 42.0399 40.3134C41.7274 40.8924 41.3029 41.4034 40.791 41.8167C40.279 42.2301 39.69 42.5374 39.0581 42.7208C38.4263 42.9042 37.7642 42.96 37.1106 42.8851L34.3699 42.2064C33.7121 42.1265 32.9025 42.3579 32.4797 43.0504L31.52 44.4134C29.1292 47.2092 25.8249 46.8144 24.1355 45.2327L22.2802 43.0677C21.795 42.6171 21.1908 42.2342 20.4761 42.5186L17.7471 43.3187C15.4849 43.6815 12.7849 41.987 12.3174 39.7464L11.941 36.4977C11.8713 36.165 11.7236 35.8537 11.5099 35.5894C11.2963 35.3251 11.0228 35.1154 10.7122 34.9776L8.77544 34.35C5.85509 33.0532 4.82671 29.8055 6.43926 27.0479L7.49672 25.5255C7.70397 25.1714 7.80523 24.7652 7.78845 24.3551C7.77168 23.9451 7.63758 23.5486 7.40208 23.2125L6.572 22.0834C4.22045 18.8619 5.73749 15.1849 9.11419 14.0295L9.85781 13.7753C10.6797 13.4934 11.4655 12.7943 11.5197 11.9269L11.6477 9.82421C11.8568 6.40734 14.9334 4.39316 18.2235 5.32871L19.2901 5.6309C20.3188 6.01036 21.1131 5.65677 21.6576 5.04082L22.777 3.55893Z" fill="url(#paint5_radial_381_83)"/>
<path d="M22.777 3.55893C25.1678 0.767433 28.4959 1.14439 30.6617 3.41533L31.9838 4.89212C32.2094 5.1285 32.486 5.31018 32.7926 5.42328C33.0991 5.53639 33.4275 5.57792 33.7525 5.5447L36.0431 4.81818C39.1694 4.08738 42.0641 6.37786 42.1303 10.0129L42.1553 11.3842C42.2344 12.1288 42.8976 12.6243 43.5773 12.9423L45.6731 13.7727C48.7094 15.1877 49.5252 18.6603 47.3871 21.6288L46.7787 22.4603C46.2347 23.2272 46.3665 24.2159 46.9358 24.9625L47.575 25.8238C49.8939 28.5711 48.6841 32.4219 45.5065 33.8166L43.7311 34.5972C43.0604 34.8916 42.8045 35.3798 42.693 36.1038L42.6109 38.4442C42.5465 39.0989 42.3524 39.7343 42.0399 40.3134C41.7274 40.8924 41.3029 41.4034 40.791 41.8167C40.279 42.2301 39.69 42.5374 39.0581 42.7208C38.4263 42.9042 37.7642 42.96 37.1106 42.8851L34.3699 42.2064C33.7121 42.1265 32.9025 42.3579 32.4797 43.0504L31.52 44.4134C29.1292 47.2092 25.8249 46.8144 24.1355 45.2327L22.2802 43.0677C21.795 42.6171 21.1908 42.2342 20.4761 42.5186L17.7471 43.3187C15.4849 43.6815 12.7849 41.987 12.3174 39.7464L11.941 36.4977C11.8713 36.165 11.7236 35.8537 11.5099 35.5894C11.2963 35.3251 11.0228 35.1154 10.7122 34.9776L8.77544 34.35C5.85509 33.0532 4.82671 29.8055 6.43926 27.0479L7.49672 25.5255C7.70397 25.1714 7.80523 24.7652 7.78845 24.3551C7.77168 23.9451 7.63758 23.5486 7.40208 23.2125L6.572 22.0834C4.22045 18.8619 5.73749 15.1849 9.11419 14.0295L9.85781 13.7753C10.6797 13.4934 11.4655 12.7943 11.5197 11.9269L11.6477 9.82421C11.8568 6.40734 14.9334 4.39316 18.2235 5.32871L19.2901 5.6309C20.3188 6.01036 21.1131 5.65677 21.6576 5.04082L22.777 3.55893Z" fill="url(#paint6_radial_381_83)"/>
<path d="M22.777 3.55893C25.1678 0.767433 28.4959 1.14439 30.6617 3.41533L31.9838 4.89212C32.2094 5.1285 32.486 5.31018 32.7926 5.42328C33.0991 5.53639 33.4275 5.57792 33.7525 5.5447L36.0431 4.81818C39.1694 4.08738 42.0641 6.37786 42.1303 10.0129L42.1553 11.3842C42.2344 12.1288 42.8976 12.6243 43.5773 12.9423L45.6731 13.7727C48.7094 15.1877 49.5252 18.6603 47.3871 21.6288L46.7787 22.4603C46.2347 23.2272 46.3665 24.2159 46.9358 24.9625L47.575 25.8238C49.8939 28.5711 48.6841 32.4219 45.5065 33.8166L43.7311 34.5972C43.0604 34.8916 42.8045 35.3798 42.693 36.1038L42.6109 38.4442C42.5465 39.0989 42.3524 39.7343 42.0399 40.3134C41.7274 40.8924 41.3029 41.4034 40.791 41.8167C40.279 42.2301 39.69 42.5374 39.0581 42.7208C38.4263 42.9042 37.7642 42.96 37.1106 42.8851L34.3699 42.2064C33.7121 42.1265 32.9025 42.3579 32.4797 43.0504L31.52 44.4134C29.1292 47.2092 25.8249 46.8144 24.1355 45.2327L22.2802 43.0677C21.795 42.6171 21.1908 42.2342 20.4761 42.5186L17.7471 43.3187C15.4849 43.6815 12.7849 41.987 12.3174 39.7464L11.941 36.4977C11.8713 36.165 11.7236 35.8537 11.5099 35.5894C11.2963 35.3251 11.0228 35.1154 10.7122 34.9776L8.77544 34.35C5.85509 33.0532 4.82671 29.8055 6.43926 27.0479L7.49672 25.5255C7.70397 25.1714 7.80523 24.7652 7.78845 24.3551C7.77168 23.9451 7.63758 23.5486 7.40208 23.2125L6.572 22.0834C4.22045 18.8619 5.73749 15.1849 9.11419 14.0295L9.85781 13.7753C10.6797 13.4934 11.4655 12.7943 11.5197 11.9269L11.6477 9.82421C11.8568 6.40734 14.9334 4.39316 18.2235 5.32871L19.2901 5.6309C20.3188 6.01036 21.1131 5.65677 21.6576 5.04082L22.777 3.55893Z" fill="url(#paint7_radial_381_83)"/>
<path d="M22.777 3.55893C25.1678 0.767433 28.4959 1.14439 30.6617 3.41533L31.9838 4.89212C32.2094 5.1285 32.486 5.31018 32.7926 5.42328C33.0991 5.53639 33.4275 5.57792 33.7525 5.5447L36.0431 4.81818C39.1694 4.08738 42.0641 6.37786 42.1303 10.0129L42.1553 11.3842C42.2344 12.1288 42.8976 12.6243 43.5773 12.9423L45.6731 13.7727C48.7094 15.1877 49.5252 18.6603 47.3871 21.6288L46.7787 22.4603C46.2347 23.2272 46.3665 24.2159 46.9358 24.9625L47.575 25.8238C49.8939 28.5711 48.6841 32.4219 45.5065 33.8166L43.7311 34.5972C43.0604 34.8916 42.8045 35.3798 42.693 36.1038L42.6109 38.4442C42.5465 39.0989 42.3524 39.7343 42.0399 40.3134C41.7274 40.8924 41.3029 41.4034 40.791 41.8167C40.279 42.2301 39.69 42.5374 39.0581 42.7208C38.4263 42.9042 37.7642 42.96 37.1106 42.8851L34.3699 42.2064C33.7121 42.1265 32.9025 42.3579 32.4797 43.0504L31.52 44.4134C29.1292 47.2092 25.8249 46.8144 24.1355 45.2327L22.2802 43.0677C21.795 42.6171 21.1908 42.2342 20.4761 42.5186L17.7471 43.3187C15.4849 43.6815 12.7849 41.987 12.3174 39.7464L11.941 36.4977C11.8713 36.165 11.7236 35.8537 11.5099 35.5894C11.2963 35.3251 11.0228 35.1154 10.7122 34.9776L8.77544 34.35C5.85509 33.0532 4.82671 29.8055 6.43926 27.0479L7.49672 25.5255C7.70397 25.1714 7.80523 24.7652 7.78845 24.3551C7.77168 23.9451 7.63758 23.5486 7.40208 23.2125L6.572 22.0834C4.22045 18.8619 5.73749 15.1849 9.11419 14.0295L9.85781 13.7753C10.6797 13.4934 11.4655 12.7943 11.5197 11.9269L11.6477 9.82421C11.8568 6.40734 14.9334 4.39316 18.2235 5.32871L19.2901 5.6309C20.3188 6.01036 21.1131 5.65677 21.6576 5.04082L22.777 3.55893Z" fill="url(#paint8_radial_381_83)"/>
<path d="M22.777 3.55893C25.1678 0.767433 28.4959 1.14439 30.6617 3.41533L31.9838 4.89212C32.2094 5.1285 32.486 5.31018 32.7926 5.42328C33.0991 5.53639 33.4275 5.57792 33.7525 5.5447L36.0431 4.81818C39.1694 4.08738 42.0641 6.37786 42.1303 10.0129L42.1553 11.3842C42.2344 12.1288 42.8976 12.6243 43.5773 12.9423L45.6731 13.7727C48.7094 15.1877 49.5252 18.6603 47.3871 21.6288L46.7787 22.4603C46.2347 23.2272 46.3665 24.2159 46.9358 24.9625L47.575 25.8238C49.8939 28.5711 48.6841 32.4219 45.5065 33.8166L43.7311 34.5972C43.0604 34.8916 42.8045 35.3798 42.693 36.1038L42.6109 38.4442C42.5465 39.0989 42.3524 39.7343 42.0399 40.3134C41.7274 40.8924 41.3029 41.4034 40.791 41.8167C40.279 42.2301 39.69 42.5374 39.0581 42.7208C38.4263 42.9042 37.7642 42.96 37.1106 42.8851L34.3699 42.2064C33.7121 42.1265 32.9025 42.3579 32.4797 43.0504L31.52 44.4134C29.1292 47.2092 25.8249 46.8144 24.1355 45.2327L22.2802 43.0677C21.795 42.6171 21.1908 42.2342 20.4761 42.5186L17.7471 43.3187C15.4849 43.6815 12.7849 41.987 12.3174 39.7464L11.941 36.4977C11.8713 36.165 11.7236 35.8537 11.5099 35.5894C11.2963 35.3251 11.0228 35.1154 10.7122 34.9776L8.77544 34.35C5.85509 33.0532 4.82671 29.8055 6.43926 27.0479L7.49672 25.5255C7.70397 25.1714 7.80523 24.7652 7.78845 24.3551C7.77168 23.9451 7.63758 23.5486 7.40208 23.2125L6.572 22.0834C4.22045 18.8619 5.73749 15.1849 9.11419 14.0295L9.85781 13.7753C10.6797 13.4934 11.4655 12.7943 11.5197 11.9269L11.6477 9.82421C11.8568 6.40734 14.9334 4.39316 18.2235 5.32871L19.2901 5.6309C20.3188 6.01036 21.1131 5.65677 21.6576 5.04082L22.777 3.55893Z" fill="url(#paint9_radial_381_83)"/>
<g filter="url(#filter0_d_381_83)">
<path d="M27.4232 41.112C31.9651 41.0293 36.2881 39.1457 39.4412 35.8756C42.5944 32.6054 44.3193 28.2167 44.2366 23.6748C44.1538 19.1329 42.2702 14.8099 39.0001 11.6567C35.73 8.50362 31.3413 6.7787 26.7994 6.86142C22.2574 6.94415 17.9344 8.82775 14.7813 12.0979C11.6282 15.368 9.90326 19.7567 9.98599 24.2986C10.0687 28.8405 11.9523 33.1636 15.2224 36.3167C18.4925 39.4698 22.8813 41.1947 27.4232 41.112Z" fill="url(#paint10_radial_381_83)"/>
<path d="M27.4232 41.112C31.9651 41.0293 36.2881 39.1457 39.4412 35.8756C42.5944 32.6054 44.3193 28.2167 44.2366 23.6748C44.1538 19.1329 42.2702 14.8099 39.0001 11.6567C35.73 8.50362 31.3413 6.7787 26.7994 6.86142C22.2574 6.94415 17.9344 8.82775 14.7813 12.0979C11.6282 15.368 9.90326 19.7567 9.98599 24.2986C10.0687 28.8405 11.9523 33.1636 15.2224 36.3167C18.4925 39.4698 22.8813 41.1947 27.4232 41.112Z" fill="url(#paint11_radial_381_83)"/>
<path d="M27.4232 41.112C31.9651 41.0293 36.2881 39.1457 39.4412 35.8756C42.5944 32.6054 44.3193 28.2167 44.2366 23.6748C44.1538 19.1329 42.2702 14.8099 39.0001 11.6567C35.73 8.50362 31.3413 6.7787 26.7994 6.86142C22.2574 6.94415 17.9344 8.82775 14.7813 12.0979C11.6282 15.368 9.90326 19.7567 9.98599 24.2986C10.0687 28.8405 11.9523 33.1636 15.2224 36.3167C18.4925 39.4698 22.8813 41.1947 27.4232 41.112Z" fill="url(#paint12_radial_381_83)"/>
</g>
<path d="M27.7177 42.391C28.8781 42.3699 30.0229 42.1204 31.0869 41.6568C32.1508 41.1932 33.1131 40.5246 33.9186 39.6892C34.7242 38.8538 35.3573 37.8678 35.7818 36.7877C36.2063 35.7076 36.414 34.5544 36.3928 33.394C36.3717 32.2337 36.1222 31.0888 35.6586 30.0249C35.1951 28.9609 34.5265 27.9987 33.691 27.1932C32.8556 26.3876 31.8696 25.7545 30.7895 25.33C29.7094 24.9054 28.5562 24.6978 27.3958 24.7189C25.0524 24.7616 22.8219 25.7335 21.195 27.4208C19.5681 29.108 18.6781 31.3725 18.7208 33.7159C18.7634 36.0594 19.7353 38.2899 21.4226 39.9168C23.1098 41.5437 25.3743 42.4337 27.7177 42.391Z" fill="url(#paint13_radial_381_83)"/>
<path d="M27.7177 42.391C28.8781 42.3699 30.0229 42.1204 31.0869 41.6568C32.1508 41.1932 33.1131 40.5246 33.9186 39.6892C34.7242 38.8538 35.3573 37.8678 35.7818 36.7877C36.2063 35.7076 36.414 34.5544 36.3928 33.394C36.3717 32.2337 36.1222 31.0888 35.6586 30.0249C35.1951 28.9609 34.5265 27.9987 33.691 27.1932C32.8556 26.3876 31.8696 25.7545 30.7895 25.33C29.7094 24.9054 28.5562 24.6978 27.3958 24.7189C25.0524 24.7616 22.8219 25.7335 21.195 27.4208C19.5681 29.108 18.6781 31.3725 18.7208 33.7159C18.7634 36.0594 19.7353 38.2899 21.4226 39.9168C23.1098 41.5437 25.3743 42.4337 27.7177 42.391Z" fill="url(#paint14_radial_381_83)"/>
<g filter="url(#filter1_d_381_83)">
<path d="M60.1589 24.1003C52.2567 16.6742 39.8361 17.0317 32.4101 24.9339C30.4945 26.9622 29.0346 29.3766 28.1283 32.0152C28.099 32.0984 28.0513 32.174 27.9888 32.2362C27.9262 32.2985 27.8504 32.3458 27.767 32.3747C27.6836 32.4035 27.5948 32.4132 27.5071 32.4029C27.4195 32.3927 27.3353 32.3628 27.2608 32.3154C26.5717 31.8752 25.8435 31.4996 25.0853 31.1933C22.9156 30.2451 20.5422 29.8575 18.1835 30.0664C15.8248 30.2752 13.5565 31.0737 11.5871 32.3883C9.61763 33.703 8.01032 35.4917 6.91292 37.59C5.81552 39.6883 5.26324 42.0288 5.30687 44.3963C5.36742 47.7207 6.58238 50.7616 8.55127 53.1543C9.90734 54.8733 11.6432 56.2549 13.6227 57.1906C15.6023 58.1263 17.7716 58.5907 19.9608 58.5474L47.7155 58.0419C53.8833 57.9295 59.2739 54.7902 62.5135 50.0711C68.3206 42.1765 67.4605 30.9903 60.1589 24.1003Z" fill="#E0D3FF"/>
</g>
<g filter="url(#filter2_dd_381_83)">
<path d="M60.1589 24.1003C52.2567 16.6742 39.8361 17.0317 32.4101 24.9339C30.4945 26.9622 29.0346 29.3766 28.1283 32.0152C28.099 32.0984 28.0513 32.174 27.9888 32.2362C27.9262 32.2985 27.8504 32.3458 27.767 32.3747C27.6836 32.4035 27.5948 32.4132 27.5071 32.4029C27.4195 32.3927 27.3353 32.3628 27.2608 32.3154C26.5717 31.8752 25.8435 31.4996 25.0853 31.1933C22.9156 30.2451 20.5422 29.8575 18.1835 30.0664C15.8248 30.2752 13.5565 31.0737 11.5871 32.3883C9.61763 33.703 8.01032 35.4917 6.91292 37.59C5.81552 39.6883 5.26324 42.0288 5.30687 44.3963C5.36742 47.7207 6.58238 50.7616 8.55127 53.1543C9.90734 54.8733 11.6432 56.2549 13.6227 57.1906C15.6023 58.1263 17.7716 58.5907 19.9608 58.5474L47.7155 58.0419C53.8833 57.9295 59.2739 54.7902 62.5135 50.0711C68.3206 42.1765 67.4605 30.9903 60.1589 24.1003Z" fill="#E0D3FF"/>
<path d="M60.1589 24.1003C52.2567 16.6742 39.8361 17.0317 32.4101 24.9339C30.4945 26.9622 29.0346 29.3766 28.1283 32.0152C28.099 32.0984 28.0513 32.174 27.9888 32.2362C27.9262 32.2985 27.8504 32.3458 27.767 32.3747C27.6836 32.4035 27.5948 32.4132 27.5071 32.4029C27.4195 32.3927 27.3353 32.3628 27.2608 32.3154C26.5717 31.8752 25.8435 31.4996 25.0853 31.1933C22.9156 30.2451 20.5422 29.8575 18.1835 30.0664C15.8248 30.2752 13.5565 31.0737 11.5871 32.3883C9.61763 33.703 8.01032 35.4917 6.91292 37.59C5.81552 39.6883 5.26324 42.0288 5.30687 44.3963C5.36742 47.7207 6.58238 50.7616 8.55127 53.1543C9.90734 54.8733 11.6432 56.2549 13.6227 57.1906C15.6023 58.1263 17.7716 58.5907 19.9608 58.5474L47.7155 58.0419C53.8833 57.9295 59.2739 54.7902 62.5135 50.0711C68.3206 42.1765 67.4605 30.9903 60.1589 24.1003Z" fill="url(#paint15_radial_381_83)"/>
<path d="M60.1589 24.1003C52.2567 16.6742 39.8361 17.0317 32.4101 24.9339C30.4945 26.9622 29.0346 29.3766 28.1283 32.0152C28.099 32.0984 28.0513 32.174 27.9888 32.2362C27.9262 32.2985 27.8504 32.3458 27.767 32.3747C27.6836 32.4035 27.5948 32.4132 27.5071 32.4029C27.4195 32.3927 27.3353 32.3628 27.2608 32.3154C26.5717 31.8752 25.8435 31.4996 25.0853 31.1933C22.9156 30.2451 20.5422 29.8575 18.1835 30.0664C15.8248 30.2752 13.5565 31.0737 11.5871 32.3883C9.61763 33.703 8.01032 35.4917 6.91292 37.59C5.81552 39.6883 5.26324 42.0288 5.30687 44.3963C5.36742 47.7207 6.58238 50.7616 8.55127 53.1543C9.90734 54.8733 11.6432 56.2549 13.6227 57.1906C15.6023 58.1263 17.7716 58.5907 19.9608 58.5474L47.7155 58.0419C53.8833 57.9295 59.2739 54.7902 62.5135 50.0711C68.3206 42.1765 67.4605 30.9903 60.1589 24.1003Z" fill="url(#paint16_radial_381_83)"/>
<path d="M60.1589 24.1003C52.2567 16.6742 39.8361 17.0317 32.4101 24.9339C30.4945 26.9622 29.0346 29.3766 28.1283 32.0152C28.099 32.0984 28.0513 32.174 27.9888 32.2362C27.9262 32.2985 27.8504 32.3458 27.767 32.3747C27.6836 32.4035 27.5948 32.4132 27.5071 32.4029C27.4195 32.3927 27.3353 32.3628 27.2608 32.3154C26.5717 31.8752 25.8435 31.4996 25.0853 31.1933C22.9156 30.2451 20.5422 29.8575 18.1835 30.0664C15.8248 30.2752 13.5565 31.0737 11.5871 32.3883C9.61763 33.703 8.01032 35.4917 6.91292 37.59C5.81552 39.6883 5.26324 42.0288 5.30687 44.3963C5.36742 47.7207 6.58238 50.7616 8.55127 53.1543C9.90734 54.8733 11.6432 56.2549 13.6227 57.1906C15.6023 58.1263 17.7716 58.5907 19.9608 58.5474L47.7155 58.0419C53.8833 57.9295 59.2739 54.7902 62.5135 50.0711C68.3206 42.1765 67.4605 30.9903 60.1589 24.1003Z" fill="url(#paint17_radial_381_83)"/>
<path d="M60.1589 24.1003C52.2567 16.6742 39.8361 17.0317 32.4101 24.9339C30.4945 26.9622 29.0346 29.3766 28.1283 32.0152C28.099 32.0984 28.0513 32.174 27.9888 32.2362C27.9262 32.2985 27.8504 32.3458 27.767 32.3747C27.6836 32.4035 27.5948 32.4132 27.5071 32.4029C27.4195 32.3927 27.3353 32.3628 27.2608 32.3154C26.5717 31.8752 25.8435 31.4996 25.0853 31.1933C22.9156 30.2451 20.5422 29.8575 18.1835 30.0664C15.8248 30.2752 13.5565 31.0737 11.5871 32.3883C9.61763 33.703 8.01032 35.4917 6.91292 37.59C5.81552 39.6883 5.26324 42.0288 5.30687 44.3963C5.36742 47.7207 6.58238 50.7616 8.55127 53.1543C9.90734 54.8733 11.6432 56.2549 13.6227 57.1906C15.6023 58.1263 17.7716 58.5907 19.9608 58.5474L47.7155 58.0419C53.8833 57.9295 59.2739 54.7902 62.5135 50.0711C68.3206 42.1765 67.4605 30.9903 60.1589 24.1003Z" fill="url(#paint18_radial_381_83)"/>
</g>
<defs>
<filter id="filter0_d_381_83" x="9.38315" y="6.8584" width="34.8563" height="34.8563" filterUnits="userSpaceOnUse" color-interpolation-filters="sRGB">
<feFlood flood-opacity="0" result="BackgroundImageFix"/>
<feColorMatrix in="SourceAlpha" type="matrix" values="0 0 0 0 0 0 0 0 0 0 0 0 0 0 0 0 0 0 127 0" result="hardAlpha"/>
<feOffset dx="-0.3" dy="0.3"/>
<feGaussianBlur stdDeviation="0.15"/>
<feComposite in2="hardAlpha" operator="out"/>
<feColorMatrix type="matrix" values="0 0 0 0 0.921569 0 0 0 0 0.47451 0 0 0 0 0.133333 0 0 0 1 0"/>
<feBlend mode="normal" in2="BackgroundImageFix" result="effect1_dropShadow_381_83"/>
<feBlend mode="normal" in="SourceGraphic" in2="effect1_dropShadow_381_83" result="shape"/>
</filter>
<filter id="filter1_d_381_83" x="1.30444" y="14.7603" width="69.0215" height="47.79" filterUnits="userSpaceOnUse" color-interpolation-filters="sRGB">
<feFlood flood-opacity="0" result="BackgroundImageFix"/>
<feColorMatrix in="SourceAlpha" type="matrix" values="0 0 0 0 0 0 0 0 0 0 0 0 0 0 0 0 0 0 127 0" result="hardAlpha"/>
<feOffset/>
<feGaussianBlur stdDeviation="2"/>
<feComposite in2="hardAlpha" operator="out"/>
<feColorMatrix type="matrix" values="0 0 0 0 0.701961 0 0 0 0 0.698039 0 0 0 0 0.992157 0 0 0 1 0"/>
<feBlend mode="normal" in2="BackgroundImageFix" result="effect1_dropShadow_381_83"/>
<feBlend mode="normal" in="SourceGraphic" in2="effect1_dropShadow_381_83" result="shape"/>
</filter>
<filter id="filter2_dd_381_83" x="-0.695557" y="12.7603" width="73.0215" height="51.79" filterUnits="userSpaceOnUse" color-interpolation-filters="sRGB">
<feFlood flood-opacity="0" result="BackgroundImageFix"/>
<feColorMatrix in="SourceAlpha" type="matrix" values="0 0 0 0 0 0 0 0 0 0 0 0 0 0 0 0 0 0 127 0" result="hardAlpha"/>
<feOffset/>
<feGaussianBlur stdDeviation="3"/>
<feComposite in2="hardAlpha" operator="out"/>
<feColorMatrix type="matrix" values="0 0 0 0 0.701961 0 0 0 0 0.698039 0 0 0 0 0.992157 0 0 0 1 0"/>
<feBlend mode="normal" in2="BackgroundImageFix" result="effect1_dropShadow_381_83"/>
<feColorMatrix in="SourceAlpha" type="matrix" values="0 0 0 0 0 0 0 0 0 0 0 0 0 0 0 0 0 0 127 0" result="hardAlpha"/>
<feOffset/>
<feGaussianBlur stdDeviation="1"/>
<feComposite in2="hardAlpha" operator="out"/>
<feColorMatrix type="matrix" values="0 0 0 0 0.701961 0 0 0 0 0.698039 0 0 0 0 0.992157 0 0 0 1 0"/>
<feBlend mode="normal" in2="effect1_dropShadow_381_83" result="effect2_dropShadow_381_83"/>
<feBlend mode="normal" in="SourceGraphic" in2="effect2_dropShadow_381_83" result="shape"/>
</filter>
<linearGradient id="paint0_linear_381_83" x1="40.1406" y1="8.8808" x2="16.2395" y2="40.5457" gradientUnits="userSpaceOnUse">
<stop stop-color="#FC8B23"/>
<stop offset="1" stop-color="#E67639"/>
</linearGradient>
<radialGradient id="paint1_radial_381_83" cx="0" cy="0" r="1" gradientUnits="userSpaceOnUse" gradientTransform="translate(30.8616 3.58234) rotate(137.111) scale(6.02442 5.31541)">
<stop offset="0.3" stop-color="#FFA13A"/>
<stop offset="1" stop-color="#FFA13A" stop-opacity="0"/>
</radialGradient>
<radialGradient id="paint2_radial_381_83" cx="0" cy="0" r="1" gradientUnits="userSpaceOnUse" gradientTransform="translate(15.1539 1.96499) rotate(66.767) scale(9.57743 8.45025)">
<stop offset="0.3" stop-color="#FF942A"/>
<stop offset="1" stop-color="#FF942A" stop-opacity="0"/>
</radialGradient>
<radialGradient id="paint3_radial_381_83" cx="0" cy="0" r="1" gradientUnits="userSpaceOnUse" gradientTransform="translate(41.0335 10.4299) rotate(-165.788) scale(3.81865 5.28741)">
<stop offset="0.3" stop-color="#FFA13D"/>
<stop offset="1" stop-color="#FFA13D" stop-opacity="0"/>
</radialGradient>
<radialGradient id="paint4_radial_381_83" cx="0" cy="0" r="1" gradientUnits="userSpaceOnUse" gradientTransform="translate(48.8343 15.8482) rotate(153.152) scale(6.77064 5.0006)">
<stop offset="0.3" stop-color="#FFA13D"/>
<stop offset="1" stop-color="#FFA13D" stop-opacity="0"/>
</radialGradient>
<radialGradient id="paint5_radial_381_83" cx="0" cy="0" r="1" gradientUnits="userSpaceOnUse" gradientTransform="translate(50.5175 27.2716) rotate(-174.422) scale(7.55252 4.25611)">
<stop offset="0.3" stop-color="#FFA13D"/>
<stop offset="1" stop-color="#FFA13D" stop-opacity="0"/>
</radialGradient>
<radialGradient id="paint6_radial_381_83" cx="0" cy="0" r="1" gradientUnits="userSpaceOnUse" gradientTransform="translate(43.9146 36.1713) rotate(-45.0075) scale(6.85075 6.59988)">
<stop stop-color="#E0762A"/>
<stop offset="1" stop-color="#E0762A" stop-opacity="0"/>
</radialGradient>
<radialGradient id="paint7_radial_381_83" cx="0" cy="0" r="1" gradientUnits="userSpaceOnUse" gradientTransform="translate(12.1395 35.142) rotate(-128.791) scale(5.25213 5.05981)">
<stop stop-color="#E0762A"/>
<stop offset="1" stop-color="#E0762A" stop-opacity="0"/>
</radialGradient>
<radialGradient id="paint8_radial_381_83" cx="0" cy="0" r="1" gradientUnits="userSpaceOnUse" gradientTransform="translate(4.65115 17.5238) rotate(24.2345) scale(5.33348 6.44629)">
<stop stop-color="#F0851D"/>
<stop offset="1" stop-color="#F0851D" stop-opacity="0"/>
</radialGradient>
<radialGradient id="paint9_radial_381_83" cx="0" cy="0" r="1" gradientUnits="userSpaceOnUse" gradientTransform="translate(36.9738 43.9071) rotate(-143.531) scale(6.21828 5.86643)">
<stop offset="0.337" stop-color="#E3745B"/>
<stop offset="1" stop-color="#E3745B" stop-opacity="0"/>
</radialGradient>
<radialGradient id="paint10_radial_381_83" cx="0" cy="0" r="1" gradientUnits="userSpaceOnUse" gradientTransform="translate(36.648 13.8889) rotate(116.696) scale(30.5633 37.7427)">
<stop offset="0.172" stop-color="#FFD13D"/>
<stop offset="1" stop-color="#D89A29"/>
</radialGradient>
<radialGradient id="paint11_radial_381_83" cx="0" cy="0" r="1" gradientUnits="userSpaceOnUse" gradientTransform="translate(21.2029 33.959) rotate(-141.674) scale(10.6619 9.00176)">
<stop offset="0.341" stop-color="#DCA225"/>
<stop offset="1" stop-color="#DCA225" stop-opacity="0"/>
</radialGradient>
<radialGradient id="paint12_radial_381_83" cx="0" cy="0" r="1" gradientUnits="userSpaceOnUse" gradientTransform="translate(41.0448 20.8077) rotate(167.256) scale(36.4753 30.7956)">
<stop offset="0.62" stop-color="#DCA225" stop-opacity="0"/>
<stop offset="1" stop-color="#DCA225"/>
</radialGradient>
<radialGradient id="paint13_radial_381_83" cx="0" cy="0" r="1" gradientUnits="userSpaceOnUse" gradientTransform="translate(26.9254 32.0579) rotate(-111.511) scale(7.8216 7.59681)">
<stop offset="0.307" stop-color="#CECDFF"/>
<stop offset="1" stop-color="#B7B6FA"/>
</radialGradient>
<radialGradient id="paint14_radial_381_83" cx="0" cy="0" r="1" gradientUnits="userSpaceOnUse" gradientTransform="translate(30.2072 30.0325) rotate(-149.854) scale(3.17113 10.5451)">
<stop offset="0.401" stop-color="#B8B7FF"/>
<stop offset="1" stop-color="#B8B7FF" stop-opacity="0"/>
</radialGradient>
<radialGradient id="paint15_radial_381_83" cx="0" cy="0" r="1" gradientUnits="userSpaceOnUse" gradientTransform="translate(36.835 43.6464) rotate(-107.998) scale(28.42 15.9677)">
<stop stop-color="#D6CCFF"/>
<stop offset="1" stop-color="#D6CCFF" stop-opacity="0"/>
</radialGradient>
<radialGradient id="paint16_radial_381_83" cx="0" cy="0" r="1" gradientUnits="userSpaceOnUse" gradientTransform="translate(62.6115 29.7484) rotate(145.963) scale(26.4827 29.5816)">
<stop offset="0.19" stop-color="#F2F0FF"/>
<stop offset="1" stop-color="#F2F0FF" stop-opacity="0"/>
</radialGradient>
<radialGradient id="paint17_radial_381_83" cx="0" cy="0" r="1" gradientUnits="userSpaceOnUse" gradientTransform="translate(20.6426 37.641) rotate(146.276) scale(20.8753 25.4382)">
<stop stop-color="#F2F0FF"/>
<stop offset="0.696" stop-color="#F2F0FF" stop-opacity="0"/>
</radialGradient>
<radialGradient id="paint18_radial_381_83" cx="0" cy="0" r="1" gradientUnits="userSpaceOnUse" gradientTransform="translate(25.2906 28.7698) rotate(70.8625) scale(17.6128 6.56615)">
<stop stop-color="#F2F0FF"/>
<stop offset="1" stop-color="#F2F0FF" stop-opacity="0"/>
</radialGradient>
</defs>
</svg>
