<svg width="18" height="18" viewBox="0 0 18 18" fill="none" xmlns="http://www.w3.org/2000/svg">
<path fill-rule="evenodd" clip-rule="evenodd" d="M9.4 13.5H10.75C14.202 13.5 17 10.702 17 7.25C17 3.798 14.202 1 10.75 1H7.25C3.798 1 1 3.798 1 7.25C1 11.28 3.298 13.69 5.715 15.143C6.928 15.872 8.15 16.343 9.073 16.6315C9.187 16.667 9.2965 16.7 9.4 16.73V13.5ZM10.4 18C10.4 18 10.018 17.9355 9.4 17.7685C6.795 17.0625 0 14.525 0 7.25C0 3.246 3.246 0 7.25 0H10.75C14.754 0 18 3.246 18 7.25C18 11.254 14.754 14.5 10.75 14.5H10.4V18Z" fill="#F8F8F8"/>
<path fill-rule="evenodd" clip-rule="evenodd" d="M10.8456 3.24105C11.3606 3.58305 11.7486 4.13755 11.7486 4.88105C11.7486 5.67005 11.4306 6.25004 10.9151 6.60504C10.7115 6.74283 10.4869 6.84653 10.2501 6.91205V7.67805C10.2501 7.87696 10.171 8.06772 10.0304 8.20838C9.88973 8.34903 9.69897 8.42804 9.50006 8.42804C9.30114 8.42804 9.11038 8.34903 8.96973 8.20838C8.82907 8.06772 8.75006 7.87696 8.75006 7.67805V6.27955C8.75001 6.08926 8.8223 5.90607 8.95228 5.76709C9.08225 5.62811 9.26019 5.54373 9.45006 5.53105C9.72706 5.51255 9.93706 5.45755 10.0636 5.37005C10.1148 5.33608 10.1562 5.28916 10.1836 5.23405C10.2136 5.17405 10.2486 5.06705 10.2486 4.88055C10.2486 4.72405 10.1876 4.60455 10.0151 4.48955C9.81906 4.35955 9.50406 4.26355 9.12556 4.25155C8.75156 4.23955 8.38806 4.31255 8.12056 4.44205C7.85256 4.57205 7.75406 4.71805 7.72656 4.82555C7.70206 4.92095 7.65902 5.0106 7.59988 5.08937C7.54075 5.16814 7.46667 5.23449 7.38189 5.28463C7.29711 5.33478 7.20329 5.36773 7.10577 5.38161C7.00826 5.3955 6.90896 5.39004 6.81356 5.36555C6.71815 5.34105 6.6285 5.29801 6.54973 5.23887C6.47096 5.17974 6.40461 5.10566 6.35447 5.02088C6.30432 4.9361 6.27137 4.84228 6.25749 4.74476C6.2436 4.64725 6.24907 4.54795 6.27356 4.45255C6.44606 3.78205 6.94756 3.34405 7.46656 3.09255C7.98656 2.84005 8.59806 2.73355 9.17306 2.75205C9.74456 2.77005 10.3546 2.91405 10.8456 3.24105Z" fill="#F8F8F8"/>
<path d="M10.5 10.5C10.5 10.7652 10.3946 11.0196 10.2071 11.2071C10.0196 11.3946 9.76522 11.5 9.5 11.5C9.23478 11.5 8.98043 11.3946 8.79289 11.2071C8.60536 11.0196 8.5 10.7652 8.5 10.5C8.5 10.2348 8.60536 9.98043 8.79289 9.79289C8.98043 9.60536 9.23478 9.5 9.5 9.5C9.76522 9.5 10.0196 9.60536 10.2071 9.79289C10.3946 9.98043 10.5 10.2348 10.5 10.5Z" fill="#F8F8F8"/>
</svg>
