<svg width="64" height="64" viewBox="0 0 64 64" fill="none" xmlns="http://www.w3.org/2000/svg">
<path d="M29.9294 42.0706C29.9294 40.5647 28.7059 39.247 27.1059 39.247H18.5412C18.8235 38.5882 19.0118 37.647 19.2 36.5176C20.1412 36.7059 21.0823 36.6118 22.1176 36.2353C23.247 35.7647 24.1882 35.0118 25.0353 34.1647C26.5412 34.5412 32.5647 33.7882 32.9412 28.9882C33.0353 27.5765 35.2941 26.8235 35.2941 26.8235C35.6706 26.7294 35.8588 26.3529 35.9529 26.0706C36.047 25.7882 35.7647 25.3176 35.4823 25.1294C33.7882 24.0941 32 23.6235 30.3059 23.6235C26.0706 23.6235 23.247 26.8235 23.1529 31.8118C23.1529 32.2823 23.247 32.7529 23.5294 33.1294C22.4 34.2588 20.8941 35.1059 19.2941 34.7294C19.2941 33.1294 19.1059 31.247 18.5412 29.1765C18.0706 27.6706 17.8823 26.0706 17.7882 24.5647C18.5412 24.4706 19.2941 24.1882 19.7647 23.6235C27.0118 16 23.7176 7.34116 14.1176 4.79999C13.7412 4.70587 13.3647 4.79999 13.1765 5.08234C12.9882 5.36469 12.8941 5.74116 13.0823 6.11763C13.0823 6.11763 14.7765 9.59999 13.1765 11.3882C10.2588 14.6823 10.9176 19.0118 14.9647 23.6235C15.247 23.9059 15.5294 24.0941 15.8118 24.2823C15.9059 26.0706 16.1882 27.9529 16.6588 29.7412C17.1294 31.4353 17.3176 32.9412 17.3176 34.2588C15.7176 34.6353 14.3059 33.7882 13.1765 32.6588C13.4588 32.2823 13.5529 31.8118 13.5529 31.3412C13.4588 26.3529 10.6353 23.1529 6.39999 23.1529C4.70587 23.1529 2.91764 23.7176 1.22352 24.6588C0.941165 24.847 0.75293 25.2235 0.75293 25.6C0.75293 25.9765 1.03528 26.2588 1.41175 26.3529C1.97646 26.5412 3.76469 27.3882 3.76469 28.5176C3.95293 31.6235 6.58822 33.6 10.8235 33.7882C10.8235 33.7882 10.9176 33.7882 11.0118 33.7882C11.2 33.7882 11.4823 33.7882 11.6706 33.6941C13.1765 35.2941 15.0588 36.4235 17.2235 36.1412C17.0353 37.647 16.6588 38.7765 16.3765 39.3412H6.96469C5.45881 39.3412 4.14117 40.5647 4.14117 42.1647C4.14117 43.4823 5.08234 44.7059 6.39999 44.8941L9.03528 62.3059C9.1294 62.7765 9.50587 63.1529 9.97646 63.1529C10.1647 63.1529 24.6588 63.1529 24.0941 63.1529C24.5647 63.1529 24.9412 62.7765 25.0353 62.3059L27.6706 44.8941C28.9882 44.6118 29.9294 43.4823 29.9294 42.0706ZM30.4 25.5059C31.247 25.5059 32.0941 25.6941 32.9412 25.9765C32.0941 26.6353 31.1529 27.5765 31.0588 28.8941C30.8706 31.247 28.7059 32.0941 26.5412 32.3765C27.5765 30.8706 28.2353 29.4588 28.2353 29.3647C28.4235 28.8941 28.2353 28.3294 27.7647 28.1412C27.2941 27.9529 26.7294 28.1412 26.5412 28.6118C26.5412 28.6118 25.9765 29.8353 25.1294 31.247C25.4118 27.6706 27.3882 25.5059 30.4 25.5059ZM5.83528 28.3294C5.74116 27.0118 4.79999 25.9765 3.95293 25.4118C4.79999 25.1294 5.74117 24.9412 6.49411 24.9412C9.50587 24.9412 11.4823 27.1059 11.7647 30.6823C10.8235 29.3647 10.3529 28.1412 10.3529 28.1412C10.1647 27.6706 9.59999 27.4823 9.1294 27.6706C8.65881 27.8588 8.47058 28.4235 8.65881 28.8941C8.75293 28.9882 9.31763 30.4 10.3529 31.9059C8.18822 31.6235 6.02352 30.7765 5.83528 28.3294ZM14.6823 12.5176C16.0941 10.9176 15.9059 8.65881 15.5294 7.15293C22.3059 9.78822 24.2823 16.2823 18.5412 22.3059C18.3529 22.4941 18.0706 22.5882 17.8823 22.6823C17.8823 18.6353 18.7294 15.4353 18.7294 15.4353C19.0118 14.2118 17.2235 13.7412 16.9412 14.9647C16.847 15.1529 16.1882 17.9765 16.0941 21.647C13.8353 19.0118 12.1412 15.5294 14.6823 12.5176ZM6.02352 42.0706C6.02352 41.6 6.39999 41.1294 6.96469 41.1294H27.1059C27.5765 41.1294 28.047 41.5059 28.047 42.0706C28.047 42.6353 27.6706 43.0118 27.1059 43.0118C18.0706 43.0118 16 43.0118 6.96469 43.0118C6.49411 43.0118 6.02352 42.6353 6.02352 42.0706ZM8.37646 44.8941H12.9882L13.7412 61.1765H10.8235L8.37646 44.8941ZM15.6235 61.1765L14.7765 44.8941H19.2L18.5412 61.1765H15.6235ZM23.3412 61.1765H20.4235L21.2706 44.8941H25.8823L23.3412 61.1765ZM59.6706 48.6588C59.7647 47.6235 59.6706 47.7176 59.6706 40.6588C59.6706 40.0941 59.2941 39.7176 58.7294 39.7176C56.4706 39.7176 54.6823 39.3412 53.1765 38.5882C53.3647 37.5529 53.5529 36.5176 53.5529 35.5765C53.5529 35.1059 53.1765 34.6353 52.5176 34.6353V10.8235L55.247 8.18822C56.5647 6.96469 56.3765 5.64705 56.3765 4.3294C56.3765 2.44705 54.7765 0.847046 52.7059 0.847046H47.0588C45.0823 0.847046 43.3882 2.35293 43.3882 4.3294C43.3882 5.55293 43.2 6.87058 44.5176 8.09411L47.247 10.8235V34.5412C46.4941 34.5412 46.2118 35.0118 46.2118 35.4823C46.2118 36.3294 46.3059 37.2706 46.5882 38.3059C45.0823 39.0588 43.2941 39.4353 41.0353 39.6235C40.5647 39.6235 40.1882 40.0941 40.1882 40.5647V47.5294C40.1882 48.847 40.3765 50.1647 40.7529 51.4823C38.4 52.7059 38.2118 53.9294 35.1059 54.3059C31.7176 54.7765 31.0588 54.5882 29.7412 56.6588L29.647 56.7529C28.8941 57.9765 27.9529 59.0118 26.9176 59.8588C26.5412 60.1412 26.447 60.6118 26.7294 61.0823C26.9176 61.4588 27.3882 61.6471 27.8588 61.4588C29.1765 60.9882 31.1529 62.4941 33.2235 62.2118C34.7294 62.0235 35.6706 61.0823 36.7059 60.8941C37.0823 60.8 37.3647 60.8 38.1176 60.8C39.1529 60.8 40.0941 60.6118 40.7529 60.7059C41.6941 60.9882 42.6353 62.1176 44.047 62.5882C47.3412 63.7176 50.2588 60.1412 51.8588 60.4235C52.4235 60.5176 54.6823 62.4 58.7294 62.5882C60.6118 62.6823 61.647 62.0235 61.8353 60.1412C61.8353 59.0118 65.6941 52.7059 59.6706 48.6588ZM51.6706 36.5176C51.4823 38.4941 50.5412 41.5059 49.8823 43.4823C49.3176 41.6 48.2823 38.4 48.0941 36.5176C48.9412 36.5176 51.6706 36.5176 51.6706 36.5176ZM48.847 9.88234L45.8353 6.87058C45.1765 6.21175 45.2706 5.45881 45.2706 4.42352C45.2706 3.48234 46.1176 2.82352 47.0588 2.82352H52.8C53.7412 2.82352 54.5882 3.48234 54.5882 4.42352C54.5882 5.45881 54.7765 6.21175 54.0235 6.87058L51.0118 9.78822C50.8235 9.97646 50.7294 10.1647 50.7294 10.447V34.7294H49.2235V10.5412C49.1294 10.2588 49.0353 10.0706 48.847 9.88234ZM41.9765 47.6235V41.6C43.9529 41.4118 45.5529 41.0353 46.9647 40.3765C47.5294 42.6353 48.6588 46.0235 48.9412 47.0588C49.2235 47.9059 50.4471 47.9059 50.7294 47.0588C51.1059 45.9294 52.1412 42.6353 52.7059 40.5647C54.1176 41.2235 55.8118 41.6 57.7882 41.6941V47.5294C57.1294 47.5294 56.5647 48 56.2823 48.1882C55.0588 49.4118 55.5294 48.4706 53.9294 48.0941C52.4235 47.7176 50.447 48.9412 49.2235 49.7882C45.3647 52.3294 45.5529 50.8235 42.9176 50.9176C42.8235 50.9176 42.7294 50.9176 42.5412 50.9176C42.1647 49.8823 41.9765 48.7529 41.9765 47.6235ZM60.047 59.2C59.4823 60.5176 60.3294 61.1765 58.6353 61.0823C52.2353 60.7059 53.7412 57.0353 48.2823 60.1412C45.2706 61.8353 44.6118 61.3647 43.2 60.3294C40.7529 58.5412 40.1882 59.2 38.0235 59.2C36.4235 59.2 36.1412 59.2 34.3529 60.047C32.1882 61.0823 32.2823 60.6118 29.647 59.9529C31.8118 57.4118 31.1529 57.0353 32.847 56.7529C36.9882 56.1882 37.2706 56.2823 39.9059 54.4C44.9882 50.7294 43.8588 55.6235 50.0706 51.4823C54.5882 48.4706 53.0823 51.1059 55.6235 50.8235C56.6588 50.7294 57.2235 49.8823 57.6 49.6C58.3529 50.6353 63.3412 51.6706 60.047 59.2Z" fill="#1F6115"/>
</svg>
