<svg width="65" height="42" viewBox="0 0 65 42" fill="none" xmlns="http://www.w3.org/2000/svg">
<path d="M60.3799 17.9375L58.7549 11.3125C58.9632 11.2708 59.1403 11.1562 59.2861 10.9688C59.432 10.7812 59.5049 10.5625 59.5049 10.3125V9.25C59.5049 8.08333 59.0986 7.09375 58.2861 6.28125C57.4736 5.46875 56.4841 5.0625 55.3174 5.0625H47.7549V2.8125C47.7549 2.27083 47.557 1.79167 47.1611 1.375C46.7653 0.958332 46.2757 0.75 45.6924 0.75H7.25488C6.67155 0.75 6.17155 0.958332 5.75488 1.375C5.33822 1.79167 5.12988 2.27083 5.12988 2.8125V21C5.12988 21.2917 5.23405 21.5312 5.44238 21.7188C5.65072 21.9062 5.87988 22 6.12988 22C6.42155 22 6.66113 21.9062 6.84863 21.7188C7.03613 21.5312 7.12988 21.2917 7.12988 21V2.8125C7.12988 2.8125 7.1403 2.80208 7.16113 2.78125C7.18197 2.76042 7.21322 2.75 7.25488 2.75H45.6924C45.7341 2.75 45.7549 2.76042 45.7549 2.78125C45.7549 2.80208 45.7549 2.8125 45.7549 2.8125V21C45.7549 21.2917 45.8591 21.5312 46.0674 21.7188C46.2757 21.9062 46.5049 22 46.7549 22C47.0466 22 47.2861 21.9062 47.4736 21.7188C47.6611 21.5312 47.7549 21.2917 47.7549 21V19.875H59.6299C60.3382 19.875 60.9736 20.0833 61.5361 20.5C62.0986 20.9167 62.4841 21.4583 62.6924 22.125H59.6299C59.3382 22.125 59.0986 22.2292 58.9111 22.4375C58.7236 22.6458 58.6299 22.875 58.6299 23.125V25.25C58.6299 26.125 58.932 26.875 59.5361 27.5C60.1403 28.125 60.8799 28.4375 61.7549 28.4375H62.8799V32.8125H60.2549C59.8382 31.5625 59.0778 30.5417 57.9736 29.75C56.8695 28.9583 55.6299 28.5625 54.2549 28.5625C52.8799 28.5625 51.6403 28.9583 50.5361 29.75C49.432 30.5417 48.6716 31.5625 48.2549 32.8125H47.7549V25.25C47.7549 25 47.6611 24.7708 47.4736 24.5625C47.2861 24.3542 47.0466 24.25 46.7549 24.25C46.5049 24.25 46.2757 24.3542 46.0674 24.5625C45.8591 24.7708 45.7549 25 45.7549 25.25V32.8125H25.0049C24.5465 31.5625 23.7757 30.5417 22.6924 29.75C21.609 28.9583 20.3799 28.5625 19.0049 28.5625C17.5882 28.5625 16.3382 28.9583 15.2549 29.75C14.1715 30.5417 13.4215 31.5625 13.0049 32.8125H7.25488C7.21322 32.8125 7.18197 32.8125 7.16113 32.8125C7.1403 32.8125 7.12988 32.7917 7.12988 32.75V30.5625H11.5049C11.7965 30.5625 12.0361 30.4583 12.2236 30.25C12.4111 30.0417 12.5049 29.8125 12.5049 29.5625C12.5049 29.2708 12.4111 29.0312 12.2236 28.8438C12.0361 28.6562 11.7965 28.5625 11.5049 28.5625H1.87988C1.58822 28.5625 1.34863 28.6562 1.16113 28.8438C0.973633 29.0312 0.879883 29.2708 0.879883 29.5625C0.879883 29.8125 0.973633 30.0417 1.16113 30.25C1.34863 30.4583 1.58822 30.5625 1.87988 30.5625H5.12988V32.75C5.12988 33.3333 5.33822 33.8229 5.75488 34.2188C6.17155 34.6146 6.67155 34.8125 7.25488 34.8125H12.6299C12.6299 34.8542 12.6299 34.875 12.6299 34.875C12.6299 36.625 13.2549 38.125 14.5049 39.375C15.7549 40.625 17.2549 41.25 19.0049 41.25C20.7549 41.25 22.2445 40.625 23.4736 39.375C24.7028 38.125 25.3174 36.625 25.3174 34.875C25.3174 34.875 25.3174 34.8542 25.3174 34.8125H47.9424C47.9424 34.8542 47.932 34.875 47.9111 34.875C47.8903 34.875 47.8799 34.875 47.8799 34.875C47.8799 36.625 48.5049 38.125 49.7549 39.375C51.0049 40.625 52.5049 41.25 54.2549 41.25C56.0049 41.25 57.5049 40.625 58.7549 39.375C60.0049 38.125 60.6299 36.625 60.6299 34.875C60.6299 34.875 60.6299 34.8542 60.6299 34.8125H63.8799C64.1716 34.8125 64.4111 34.7188 64.5986 34.5312C64.7861 34.3438 64.8799 34.1042 64.8799 33.8125V23.125C64.8799 21.8333 64.4528 20.6875 63.5986 19.6875C62.7445 18.6875 61.6716 18.1042 60.3799 17.9375ZM47.7549 7.0625H55.3174C55.9424 7.0625 56.4632 7.27083 56.8799 7.6875C57.2966 8.10417 57.5049 8.625 57.5049 9.25V9.3125H47.7549V7.0625ZM47.7549 17.875V11.3125H56.6924L58.3174 17.875H47.7549ZM19.0049 39.25C17.7965 39.25 16.7653 38.8229 15.9111 37.9688C15.057 37.1146 14.6299 36.0833 14.6299 34.875C14.6299 33.7083 15.057 32.6979 15.9111 31.8438C16.7653 30.9896 17.7965 30.5625 19.0049 30.5625C20.1715 30.5625 21.182 30.9896 22.0361 31.8438C22.8903 32.6979 23.3174 33.7083 23.3174 34.875C23.3174 36.0833 22.8903 37.1146 22.0361 37.9688C21.182 38.8229 20.1715 39.25 19.0049 39.25ZM54.2549 39.25C53.0466 39.25 52.0257 38.8229 51.1924 37.9688C50.3591 37.1146 49.9424 36.0833 49.9424 34.875C49.9424 33.7083 50.3591 32.6979 51.1924 31.8438C52.0257 30.9896 53.0466 30.5625 54.2549 30.5625C55.4632 30.5625 56.4945 30.9896 57.3486 31.8438C58.2028 32.6979 58.6299 33.7083 58.6299 34.875C58.6299 36.0833 58.2028 37.1146 57.3486 37.9688C56.4945 38.8229 55.4632 39.25 54.2549 39.25ZM62.8799 26.4375H61.7549C61.4216 26.4375 61.1507 26.3229 60.9424 26.0938C60.7341 25.8646 60.6299 25.5833 60.6299 25.25V24.125H62.8799V26.4375ZM19.0049 32.8125C18.4215 32.8125 17.932 33.0208 17.5361 33.4375C17.1403 33.8542 16.9424 34.3333 16.9424 34.875C16.9424 35.4583 17.1403 35.9479 17.5361 36.3438C17.932 36.7396 18.4215 36.9375 19.0049 36.9375C19.5465 36.9375 20.0257 36.7396 20.4424 36.3438C20.859 35.9479 21.0674 35.4583 21.0674 34.875C21.0674 34.3333 20.859 33.8542 20.4424 33.4375C20.0257 33.0208 19.5465 32.8125 19.0049 32.8125ZM54.2549 32.8125C53.6716 32.8125 53.182 33.0208 52.7861 33.4375C52.3903 33.8542 52.1924 34.3333 52.1924 34.875C52.1924 35.4583 52.3903 35.9479 52.7861 36.3438C53.182 36.7396 53.6716 36.9375 54.2549 36.9375C54.8382 36.9375 55.3278 36.7396 55.7236 36.3438C56.1195 35.9479 56.3174 35.4583 56.3174 34.875C56.3174 34.3333 56.1195 33.8542 55.7236 33.4375C55.3278 33.0208 54.8382 32.8125 54.2549 32.8125ZM42.5049 28.5625H27.5049C27.2549 28.5625 27.0257 28.6562 26.8174 28.8438C26.609 29.0312 26.5049 29.2708 26.5049 29.5625C26.5049 29.8125 26.609 30.0417 26.8174 30.25C27.0257 30.4583 27.2549 30.5625 27.5049 30.5625H42.5049C42.7966 30.5625 43.0361 30.4583 43.2236 30.25C43.4111 30.0417 43.5049 29.8125 43.5049 29.5625C43.5049 29.2708 43.4111 29.0312 43.2236 28.8438C43.0361 28.6562 42.7966 28.5625 42.5049 28.5625ZM16.8174 24.25H4.00488C3.75488 24.25 3.52572 24.3542 3.31738 24.5625C3.10905 24.7708 3.00488 25 3.00488 25.25C3.00488 25.5417 3.10905 25.7812 3.31738 25.9688C3.52572 26.1562 3.75488 26.25 4.00488 26.25H16.8174C17.109 26.25 17.3486 26.1562 17.5361 25.9688C17.7236 25.7812 17.8174 25.5417 17.8174 25.25C17.8174 25 17.7236 24.7708 17.5361 24.5625C17.3486 24.3542 17.109 24.25 16.8174 24.25ZM35.7549 10.6875C35.5466 10.4792 35.307 10.375 35.0361 10.375C34.7653 10.375 34.5257 10.4792 34.3174 10.6875L25.3799 19.5625L20.7549 14.9375C20.5465 14.7292 20.307 14.625 20.0361 14.625C19.7653 14.625 19.5257 14.7292 19.3174 14.9375C19.1507 15.1458 19.0674 15.3854 19.0674 15.6562C19.0674 15.9271 19.1507 16.1667 19.3174 16.375L24.6924 21.6875C24.7757 21.8125 24.8799 21.8958 25.0049 21.9375C25.1299 21.9792 25.2549 22 25.3799 22C25.5049 22 25.6299 21.9792 25.7549 21.9375C25.8799 21.8958 26.0049 21.8125 26.1299 21.6875L35.7549 12.0625C35.9216 11.8958 36.0049 11.6667 36.0049 11.375C36.0049 11.0833 35.9216 10.8542 35.7549 10.6875Z" fill="#4BAF47"/>
</svg>
