<svg width="54" height="53" viewBox="0 0 54 53" fill="none" xmlns="http://www.w3.org/2000/svg">
<path d="M29.6668 4.31987V4.3732C29.6668 6.15987 30.8668 7.6532 32.5468 8.18653C40.1468 10.5599 45.6668 17.6265 45.6668 25.9999C45.6668 27.3865 45.5068 28.6932 45.2134 29.9732C44.8401 31.6799 45.5334 33.4399 47.0534 34.3465L47.0801 34.3732C49.3734 35.7065 52.3601 34.5065 52.9734 31.9465C53.4268 30.0265 53.6668 28.0265 53.6668 25.9999C53.6668 13.9999 45.7201 3.8132 34.7868 0.479868C32.2534 -0.293466 29.6668 1.6532 29.6668 4.31987V4.31987ZM24.1734 44.4532C16.2001 43.3065 9.72009 36.8265 8.54676 28.8799C7.10676 19.2799 12.9734 10.8265 21.4268 8.18653C23.1334 7.67987 24.3334 6.15987 24.3334 4.3732V4.31987C24.3334 1.6532 21.7468 -0.293466 19.1868 0.479868C7.16009 4.15987 -1.2399 16.1065 0.573429 29.7065C2.14676 41.3865 11.5868 50.8265 23.2668 52.3999C31.6401 53.5199 39.3734 50.7732 44.9468 45.6532C46.9201 43.8399 46.5734 40.6132 44.2534 39.2799C42.7068 38.3732 40.7868 38.6665 39.4534 39.8665C35.5334 43.4399 30.0934 45.3332 24.1734 44.4532V44.4532Z" fill="#1F6115"/>
</svg>
