<svg width="36" height="49" viewBox="0 0 36 49" fill="none" xmlns="http://www.w3.org/2000/svg">
<path d="M16.1136 33.6702V33.9202H16.3636H19.6364H19.8864V33.6702V21.0593V20.8093H19.6364H16.3636H16.1136V21.0593V33.6702ZM0.360957 48.5533L18 1.59282L35.639 48.5533H0.360957ZM18 41.4868C18.5694 41.4868 19.0287 41.1825 19.3756 40.6477C19.7212 40.115 19.8864 39.4659 19.8864 38.7146C19.8864 37.9633 19.7212 37.3141 19.3756 36.7815C19.0287 36.2467 18.5694 35.9424 18 35.9424C17.4306 35.9424 16.9713 36.2467 16.6244 36.7815C16.2788 37.3141 16.1136 37.9633 16.1136 38.7146C16.1136 39.4659 16.2788 40.115 16.6244 40.6477C16.9713 41.1825 17.4306 41.4868 18 41.4868Z" fill="#E1D80D" stroke="black" stroke-width="0.5"/>
</svg>
