<svg width="24" height="24" viewBox="0 0 24 24" fill="none" xmlns="http://www.w3.org/2000/svg">
<mask id="path-1-inside-1_954_1209" fill="white">
<path d="M0 23.2045L11.5179 0.79248L23.0359 23.2045H0ZM11.5179 19.6657C11.8146 19.6657 12.0633 19.5527 12.264 19.3266C12.4647 19.1005 12.565 18.8204 12.565 18.4861C12.565 18.1519 12.4647 17.8718 12.264 17.6457C12.0633 17.4196 11.8146 17.3066 11.5179 17.3066C11.2213 17.3066 10.9726 17.4196 10.7719 17.6457C10.5712 17.8718 10.4709 18.1519 10.4709 18.4861C10.4709 18.8204 10.5712 19.1005 10.7719 19.3266C10.9726 19.5527 11.2213 19.6657 11.5179 19.6657ZM10.4709 16.127H12.565V10.2291H10.4709V16.127Z"/>
</mask>
<path d="M0 23.2045L11.5179 0.79248L23.0359 23.2045H0ZM11.5179 19.6657C11.8146 19.6657 12.0633 19.5527 12.264 19.3266C12.4647 19.1005 12.565 18.8204 12.565 18.4861C12.565 18.1519 12.4647 17.8718 12.264 17.6457C12.0633 17.4196 11.8146 17.3066 11.5179 17.3066C11.2213 17.3066 10.9726 17.4196 10.7719 17.6457C10.5712 17.8718 10.4709 18.1519 10.4709 18.4861C10.4709 18.8204 10.5712 19.1005 10.7719 19.3266C10.9726 19.5527 11.2213 19.6657 11.5179 19.6657ZM10.4709 16.127H12.565V10.2291H10.4709V16.127Z" fill="#E1D80D"/>
<path d="M0 23.2045L-0.44471 22.9759L-0.819123 23.7045H0V23.2045ZM11.5179 0.79248L11.9626 0.563935L11.5179 -0.301396L11.0732 0.563935L11.5179 0.79248ZM23.0359 23.2045V23.7045H23.855L23.4806 22.9759L23.0359 23.2045ZM10.4709 16.127H9.97085V16.627H10.4709V16.127ZM12.565 16.127V16.627H13.065V16.127H12.565ZM12.565 10.2291H13.065V9.7291H12.565V10.2291ZM10.4709 10.2291V9.7291H9.97085V10.2291H10.4709ZM0.44471 23.433L11.9626 1.02103L11.0732 0.563935L-0.44471 22.9759L0.44471 23.433ZM11.0732 1.02103L22.5912 23.433L23.4806 22.9759L11.9626 0.563935L11.0732 1.02103ZM23.0359 22.7045H0V23.7045H23.0359V22.7045ZM11.5179 20.1657C11.9606 20.1657 12.3444 19.9892 12.6379 19.6585L11.8901 18.9947C11.7822 19.1162 11.6686 19.1657 11.5179 19.1657V20.1657ZM12.6379 19.6585C12.9286 19.331 13.065 18.9288 13.065 18.4861H12.065C12.065 18.7119 12.0007 18.87 11.8901 18.9947L12.6379 19.6585ZM13.065 18.4861C13.065 18.0435 12.9286 17.6412 12.6379 17.3138L11.8901 17.9776C12.0007 18.1023 12.065 18.2604 12.065 18.4861H13.065ZM12.6379 17.3138C12.3444 16.9831 11.9606 16.8066 11.5179 16.8066V17.8066C11.6686 17.8066 11.7822 17.8561 11.8901 17.9776L12.6379 17.3138ZM11.5179 16.8066C11.0752 16.8066 10.6915 16.9831 10.398 17.3138L11.1458 17.9776C11.2537 17.8561 11.3673 17.8066 11.5179 17.8066V16.8066ZM10.398 17.3138C10.1073 17.6412 9.97085 18.0435 9.97085 18.4861H10.9709C10.9709 18.2604 11.0351 18.1023 11.1458 17.9776L10.398 17.3138ZM9.97085 18.4861C9.97085 18.9288 10.1073 19.331 10.398 19.6585L11.1458 18.9947C11.0351 18.87 10.9709 18.7119 10.9709 18.4861H9.97085ZM10.398 19.6585C10.6915 19.9892 11.0753 20.1657 11.5179 20.1657V19.1657C11.3673 19.1657 11.2537 19.1162 11.1458 18.9947L10.398 19.6585ZM10.4709 16.627H12.565V15.627H10.4709V16.627ZM13.065 16.127V10.2291H12.065V16.127H13.065ZM12.565 9.7291H10.4709V10.7291H12.565V9.7291ZM9.97085 10.2291V16.127H10.9709V10.2291H9.97085Z" fill="black" mask="url(#path-1-inside-1_954_1209)"/>
</svg>
